<svg xmlns="http://www.w3.org/2000/svg" width="679" height="519" viewBox="0 0 679 519"><defs><style type="text/css"/></defs><g transform="translate(515.3828834786134 -63.85259796688597) scale(1)"><g class="relationship"><g transform="translate(-262.3347911589466 556.4781852397988) rotate(-34.9040621735632)" stroke-width="2" stroke="#000000"><path d="M 12 0 L 260.3984030330851 0"/></g><g transform="translate(-150.63628563118783 478.5444546951301) rotate(-34.9040621735632) translate(0 -10)"><g transform="translate(0 0)"><g transform="translate(-50.83333206176758 0)" fill="#ffffff" stroke="#000000" stroke-width="0"><rect x="0" y="0" width="101.66666412353516" height="20" rx="5" ry="5" stroke="none"/><text xml:space="preserve" x="5" y="13" stroke="none" text-anchor="left" font-family="sans-serif" font-size="10" font-weight="normal" fill="#000000">ACCESS CONTROL</text></g></g></g></g><g class="relationship"><g transform="translate(-262.3347911589466 556.4781852397988) rotate(-135.00000000000003)" stroke-width="2" stroke="#000000"><path d="M 12 0 L 260.3984030330851 0"/></g><g transform="translate(-358.64217014348696 460.17080625525847) rotate(44.99999999999997) translate(0 -10)"><g transform="translate(0 0)"><g transform="translate(-47.31666564941406 0)" fill="#ffffff" stroke="#000000" stroke-width="0"><rect x="0" y="0" width="94.63333129882812" height="20" rx="5" ry="5" stroke="none"/><text xml:space="preserve" x="5" y="13" stroke="none" text-anchor="left" font-family="sans-serif" font-size="10" font-weight="normal" fill="#000000">COLLABORATION</text></g></g></g></g><g class="relationship"><g transform="translate(-262.3347911589466 556.4781852397988) rotate(-74.14610985690044)" stroke-width="2" stroke="#000000"><path d="M 12 0 L 308.0504894864573 0"/></g><g transform="translate(-218.6182705673407 402.54006526136743) rotate(-74.14610985690044) translate(0 -10)"><g transform="translate(0 0)"><g transform="translate(-34.10000038146973 0)" fill="#ffffff" stroke="#000000" stroke-width="0"><rect x="0" y="0" width="68.20000076293945" height="20" rx="5" ry="5" stroke="none"/><text xml:space="preserve" x="5" y="13" stroke="none" text-anchor="left" font-family="sans-serif" font-size="10" font-weight="normal" fill="#000000">EXECUTION</text></g></g></g></g><g class="relationship"><g transform="translate(-262.3347911589466 556.4781852397988) rotate(-111.96249197342657)" stroke-width="2" stroke="#000000"><path d="M 12 0 L 322.07076004978614 0"/></g><g transform="translate(-324.8059469342237 401.56474852057323) rotate(68.03750802657343) translate(0 -10)"><g transform="translate(0 0)"><g transform="translate(-74.9000015258789 0)" fill="#ffffff" stroke="#000000" stroke-width="0"><rect x="0" y="0" width="149.8000030517578" height="20" rx="5" ry="5" stroke="none"/><text xml:space="preserve" x="5" y="13" stroke="none" text-anchor="left" font-family="sans-serif" font-size="10" font-weight="normal" fill="#000000">TRANSACTION PROCESSING</text></g></g></g></g><g class="relationship"><g transform="translate(-262.3347911589466 556.4781852397988) rotate(-87.81108961849147)" stroke-width="2" stroke="#000000"><path d="M 12 0 L 398.32515529719376 0"/></g><g transform="translate(-254.49872946430682 351.46530904775483) rotate(-87.81108961849147) translate(0 -10)"><g transform="translate(0 0)"><g transform="translate(-79.57499694824219 0)" fill="#ffffff" stroke="#000000" stroke-width="0"><rect x="0" y="0" width="159.14999389648438" height="20" rx="5" ry="5" stroke="none"/><text xml:space="preserve" x="5" y="13" stroke="none" text-anchor="left" font-family="sans-serif" font-size="10" font-weight="normal" fill="#000000">DEVELOPMENT AND SUPPORT</text></g></g></g></g><g class="relationship"><g transform="translate(-38.937780103429105 400.61072415046146) rotate(-131.8109817896304)" stroke-width="2" stroke="#000000"><path d="M 12 0 L 191.94330083685875 0"/></g><g transform="translate(-106.91976503958195 324.60633471669877) rotate(48.18901821036959) translate(0 -10)"><g transform="translate(0 0)"><g transform="translate(-61.94166564941406 0)" fill="#ffffff" stroke="#000000" stroke-width="0"><rect x="0" y="0" width="123.88333129882812" height="20" rx="5" ry="5" stroke="none"/><text xml:space="preserve" x="5" y="13" stroke="none" text-anchor="left" font-family="sans-serif" font-size="10" font-weight="normal" fill="#000000">SECURITY PROTOCOLS</text></g></g></g></g><g class="relationship"><g transform="translate(-454.9495491280274 363.86342727071815) rotate(-22.370982367076397)" stroke-width="2" stroke="#000000"><path d="M 12 0 L 290.83985708631985 0"/></g><g transform="translate(-314.92564955188107 306.2326862768271) rotate(-22.370982367076397) translate(0 -10)"><g transform="translate(0 0)"><g transform="translate(-75.94166564941406 0)" fill="#ffffff" stroke="#000000" stroke-width="0"><rect x="0" y="0" width="151.88333129882812" height="20" rx="5" ry="5" stroke="none"/><text xml:space="preserve" x="5" y="13" stroke="none" text-anchor="left" font-family="sans-serif" font-size="10" font-weight="normal" fill="#000000">SUPPLY CHAIN INTEGRATION</text></g></g></g></g><g class="relationship"><g transform="translate(-454.9495491280274 363.86342727071815) rotate(-60.00000000000001)" stroke-width="2" stroke="#000000"><path d="M 12 0 L 123.3448928370531 0"/></g><g transform="translate(-421.11332591876413 305.2573695360329) rotate(-60.00000000000001) translate(0 -10)"><g transform="translate(0 0)"><g transform="translate(-43.483333587646484 0)" fill="#ffffff" stroke="#000000" stroke-width="0"><rect x="0" y="0" width="86.96666717529297" height="20" rx="5" ry="5" stroke="none"/><text xml:space="preserve" x="5" y="13" stroke="none" text-anchor="left" font-family="sans-serif" font-size="10" font-weight="normal" fill="#000000">PROCUREMENT</text></g></g></g></g><g class="relationship"><g transform="translate(-174.9017499757348 248.6019452829361) rotate(-125.0883736775362)" stroke-width="2" stroke="#000000"><path d="M 12 0 L 112.83650192050136 0"/></g><g transform="translate(-210.78220887270092 197.5271890693235) rotate(54.9116263224638) translate(0 -10)"><g transform="translate(0 0)"><g transform="translate(-38.63333511352539 0)" fill="#ffffff" stroke="#000000" stroke-width="0"><rect x="0" y="0" width="77.26667022705078" height="20" rx="5" ry="5" stroke="none"/><text xml:space="preserve" x="5" y="13" stroke="none" text-anchor="left" font-family="sans-serif" font-size="10" font-weight="normal" fill="#000000">PRODUCTION</text></g></g></g></g><g class="relationship"><g transform="translate(-387.27710270950087 246.65131180134765) rotate(-35.47287039335307)" stroke-width="2" stroke="#000000"><path d="M 12 0 L 160.66219810778247 0"/></g><g transform="translate(-316.96988523958396 196.55187232852927) rotate(-35.47287039335307) translate(0 -10)"><g transform="translate(0 0)"><g transform="translate(-20.800000190734863 0)" fill="#ffffff" stroke="#000000" stroke-width="0"><rect x="0" y="0" width="41.60000038146973" height="20" rx="5" ry="5" stroke="none"/><text xml:space="preserve" x="5" y="13" stroke="none" text-anchor="left" font-family="sans-serif" font-size="10" font-weight="normal" fill="#000000">SALES</text></g></g></g></g><g class="relationship"><g transform="translate(-387.27710270950087 85.75209290349764) rotate(23.348857459648585)" stroke-width="2" stroke="#000000"><path d="M 12 0 L 141.15662109018666 0"/></g><g transform="translate(-316.96988523958396 116.10226287960427) rotate(23.348857459648585) translate(0 -10)"><g transform="translate(0 0)"><g transform="translate(-27.33333396911621 0)" fill="#ffffff" stroke="#000000" stroke-width="0"><rect x="0" y="0" width="54.66666793823242" height="20" rx="5" ry="5" stroke="none"/><text xml:space="preserve" x="5" y="13" stroke="none" text-anchor="left" font-family="sans-serif" font-size="10" font-weight="normal" fill="#000000">DEMAND</text></g></g></g></g><g class="relationship"><g transform="translate(-38.937780103429105 400.61072415046146) rotate(-156.15547513299333)" stroke-width="2" stroke="#000000"><path d="M 12 0 L 368.8461425885017 0"/></g><g transform="translate(-213.10744140646497 323.63101797590457) rotate(23.844524867006655) translate(0 -10)"><g transform="translate(0 0)"><g transform="translate(-51.80833435058594 0)" fill="#ffffff" stroke="#000000" stroke-width="0"><rect x="0" y="0" width="103.61666870117188" height="20" rx="5" ry="5" stroke="none"/><text xml:space="preserve" x="5" y="13" stroke="none" text-anchor="left" font-family="sans-serif" font-size="10" font-weight="normal" fill="#000000">DATA PROTECTION</text></g></g></g></g><g class="relationship"><g transform="translate(-387.27710270950087 85.75209290349764) rotate(90)" stroke-width="2" stroke="#000000"><path d="M 12 0 L 148.89921889785 0"/></g><g transform="translate(-387.27710270950087 166.20170235242264) rotate(270) translate(0 -10)"><g transform="translate(0 0)"><g transform="translate(-61.358333587646484 0)" fill="#ffffff" stroke="#000000" stroke-width="0"><rect x="0" y="0" width="122.71666717529297" height="20" rx="5" ry="5" stroke="none"/><text xml:space="preserve" x="5" y="13" stroke="none" text-anchor="left" font-family="sans-serif" font-size="10" font-weight="normal" fill="#000000">SALES TRANSACTIONS</text></g></g></g></g><g class="relationship"><g transform="translate(62.1504533167221 363.86342727071815) rotate(-154.0696692235574)" stroke-width="2" stroke="#000000"><path d="M 12 0 L 251.58861188569608 0"/></g><g transform="translate(-56.375648329506355 306.2326862768271) rotate(25.930330776442577) translate(0 -10)"><g transform="translate(0 0)"><g transform="translate(-52.391666412353516 0)" fill="#ffffff" stroke="#000000" stroke-width="0"><rect x="0" y="0" width="104.78333282470703" height="20" rx="5" ry="5" stroke="none"/><text xml:space="preserve" x="5" y="13" stroke="none" text-anchor="left" font-family="sans-serif" font-size="10" font-weight="normal" fill="#000000">QUALITY CONTROL</text></g></g></g></g><g class="relationship"><g transform="translate(-99.42483398036431 104.28644081477029) rotate(164.01933874831272)" stroke-width="2" stroke="#000000"><path d="M 12 0 L 141.15662109018666 0"/></g><g transform="translate(-173.0437508750157 125.36943683524058) rotate(344.0193387483127) translate(0 -10)"><g transform="translate(0 0)"><g transform="translate(-36.14999961853027 0)" fill="#ffffff" stroke="#000000" stroke-width="0"><rect x="0" y="0" width="72.29999923706055" height="20" rx="5" ry="5" stroke="none"/><text xml:space="preserve" x="5" y="13" stroke="none" text-anchor="left" font-family="sans-serif" font-size="10" font-weight="normal" fill="#000000">INNOVATION</text></g></g></g></g><g class="relationship"><g transform="translate(52.748043460542505 263.52051718179143) rotate(-176.25059741609107)" stroke-width="2" stroke="#000000"><path d="M 12 0 L 216.13809905204573 0"/></g><g transform="translate(-61.07685325759614 256.06123123236375) rotate(3.7494025839089478) translate(0 -10)"><g transform="translate(0 0)"><g transform="translate(-67.98333358764648 0)" fill="#ffffff" stroke="#000000" stroke-width="0"><rect x="0" y="0" width="135.96666717529297" height="20" rx="5" ry="5" stroke="none"/><text xml:space="preserve" x="5" y="13" stroke="none" text-anchor="left" font-family="sans-serif" font-size="10" font-weight="normal" fill="#000000">ENVIRONMENTAL IMPACT</text></g></g></g></g><g class="node"><g fill="#ffffff" stroke="#000000" stroke-width="2"><circle cx="-38.937780103429105" cy="400.61072415046146" r="11"/></g><g transform="translate(-38.937780103429105 400.61072415046146)"><g transform="translate(14 -6)"><g transform="translate(0 0)"><g fill="#000000" font-family="sans-serif" font-size="10" font-weight="normal" text-anchor="start"><text xml:space="preserve" x="0" y="9" stroke="none">Network &amp; Security</text></g></g></g></g></g><g class="node"><g fill="#ffffff" stroke="#000000" stroke-width="2"><circle cx="-262.3347911589466" cy="556.4781852397988" r="11"/></g><g transform="translate(-262.3347911589466 556.4781852397988)"><g transform="translate(8.572527594031472e-16 14)"><g transform="translate(0 0)"><g fill="#000000" font-family="sans-serif" font-size="10" font-weight="normal" text-anchor="middle"><text xml:space="preserve" x="0" y="9" stroke="none">Employees</text></g></g></g></g></g><g class="node"><g fill="#ffffff" stroke="#000000" stroke-width="2"><circle cx="-454.9495491280274" cy="363.86342727071815" r="11"/></g><g transform="translate(-454.9495491280274 363.86342727071815)"><g transform="translate(-14 -5.999999999999998)"><g transform="translate(0 0)"><g fill="#000000" font-family="sans-serif" font-size="10" font-weight="normal" text-anchor="end"><text xml:space="preserve" x="0" y="9" stroke="none">Suppliers</text></g></g></g></g></g><g class="node"><g fill="#ffffff" stroke="#000000" stroke-width="2"><circle cx="-174.9017499757348" cy="248.6019452829361" r="11"/></g><g transform="translate(-174.9017499757348 248.6019452829361)"><g transform="translate(9.899494936611665 -21.899494936611664)"><g transform="translate(0 0)"><g fill="#000000" font-family="sans-serif" font-size="10" font-weight="normal" text-anchor="start"><text xml:space="preserve" x="0" y="9" stroke="none">Process</text></g></g></g></g></g><g class="node"><g fill="#ffffff" stroke="#000000" stroke-width="2"><circle cx="-387.27710270950087" cy="246.65131180134765" r="11"/></g><g transform="translate(-387.27710270950087 246.65131180134765)"><g transform="translate(-14 -5.999999999999998)"><g transform="translate(0 0)"><g fill="#000000" font-family="sans-serif" font-size="10" font-weight="normal" text-anchor="end"><text xml:space="preserve" x="0" y="9" stroke="none">Transactions</text></g></g></g></g></g><g class="node"><g fill="#ffffff" stroke="#000000" stroke-width="2"><circle cx="-246.66266776966705" cy="146.4524328557109" r="11"/></g><g transform="translate(-246.66266776966705 146.4524328557109)"><g transform="translate(8.572527594031472e-16 -26)"><g transform="translate(0 0)"><g fill="#000000" font-family="sans-serif" font-size="10" font-weight="normal" text-anchor="middle"><text xml:space="preserve" x="0" y="9" stroke="none">Product</text></g></g></g></g></g><g class="node"><g fill="#ffffff" stroke="#000000" stroke-width="2"><circle cx="-387.27710270950087" cy="85.75209290349764" r="11"/></g><g transform="translate(-387.27710270950087 85.75209290349764)"><g transform="translate(-9.899494936611664 -21.899494936611667)"><g transform="translate(0 0)"><g fill="#000000" font-family="sans-serif" font-size="10" font-weight="normal" text-anchor="end"><text xml:space="preserve" x="0" y="9" stroke="none">Customers</text></g></g></g></g></g><g class="node"><g fill="#ffffff" stroke="#000000" stroke-width="2"><circle cx="62.1504533167221" cy="363.86342727071815" r="11"/></g><g transform="translate(62.1504533167221 363.86342727071815)"><g transform="translate(9.899494936611665 9.899494936611664)"><g transform="translate(0 0)"><g fill="#000000" font-family="sans-serif" font-size="10" font-weight="normal" text-anchor="start"><text xml:space="preserve" x="0" y="9" stroke="none">Quality Assurance</text></g></g></g></g></g><g class="node"><g fill="#ffffff" stroke="#000000" stroke-width="2"><circle cx="-99.42483398036431" cy="104.28644081477029" r="11"/></g><g transform="translate(-99.42483398036431 104.28644081477029)"><g transform="translate(14 -6)"><g transform="translate(0 0)"><g fill="#000000" font-family="sans-serif" font-size="10" font-weight="normal" text-anchor="start"><text xml:space="preserve" x="0" y="9" stroke="none">Research and Development</text></g></g></g></g></g><g class="node"><g fill="#ffffff" stroke="#000000" stroke-width="2"><circle cx="52.748043460542505" cy="263.52051718179143" r="11"/></g><g transform="translate(52.748043460542505 263.52051718179143)"><g transform="translate(14 -6)"><g transform="translate(0 0)"><g fill="#000000" font-family="sans-serif" font-size="10" font-weight="normal" text-anchor="start"><text xml:space="preserve" x="0" y="9" stroke="none">Sustainability</text></g></g></g></g></g></g></svg>