<svg xmlns="http://www.w3.org/2000/svg" width="863" height="415" viewBox="0 0 863 415"><defs><style type="text/css"/></defs><g transform="translate(774.0382916068378 -112.01788829988044) scale(1)"><g class="relationship"><g transform="translate(-194.5292081771908 174.01788829988044) rotate(22.309338455776093)" stroke-width="2" stroke="#000000"><path d="M 12 0 L 128.8739373068508 0"/><polygon points="-14.155129855222071,0 -15.727922061357857,5.242640687119286 0,0 -15.727922061357857,-5.242640687119286" fill="#000000" transform="translate(143.02906716207286 0) rotate(0)" stroke="none"/></g><g transform="translate(-129.36459738007073 200.75625124048491) rotate(22.309338455776093) translate(0 -10)"><g transform="translate(0 0)"><g transform="translate(-42.57500076293945 0)" fill="#ffffff" stroke="#000000" stroke-width="0"><rect x="0" y="0" width="85.1500015258789" height="20" rx="5" ry="5" stroke="none"/><text xml:space="preserve" x="5" y="13" stroke="none" text-anchor="left" font-family="sans-serif" font-size="10" font-weight="normal" fill="#000000">SOURCE_CODE</text></g></g></g></g><g class="relationship"><g transform="translate(-194.5292081771908 174.01788829988044) rotate(102.24924890467055)" stroke-width="2" stroke="#000000"><path d="M 12 0 L 135.18708990470054 0"/><polygon points="-14.155129855222071,0 -15.727922061357857,5.242640687119286 0,0 -15.727922061357857,-5.242640687119286" fill="#000000" transform="translate(149.3422197599226 0) rotate(0)" stroke="none"/></g><g transform="translate(-210.1431724515901 245.9359943531643) rotate(282.24924890467054) translate(0 -10)"><g transform="translate(0 0)"><g transform="translate(-30.08333396911621 0)" fill="#ffffff" stroke="#000000" stroke-width="0"><rect x="0" y="0" width="60.16666793823242" height="20" rx="5" ry="5" stroke="none"/><text xml:space="preserve" x="5" y="13" stroke="none" text-anchor="left" font-family="sans-serif" font-size="10" font-weight="normal" fill="#000000">INCLUDES</text></g></g></g></g><g class="relationship"><g transform="translate(-228.76035789167747 331.6869729876643) rotate(149.99999999999997)" stroke-width="2" stroke="#000000"><path d="M 12 0 L 113.85719726869237 0"/><polygon points="-14.155129855222071,0 -15.727922061357857,5.242640687119286 0,0 -15.727922061357857,-5.242640687119286" fill="#000000" transform="translate(128.01232712391445 0) rotate(0)" stroke="none"/></g><g transform="translate(-283.258122933576 363.15127230483745) rotate(329.99999999999994) translate(0 -10)"><g transform="translate(0 0)"><g transform="translate(-16.25 0)" fill="#ffffff" stroke="#000000" stroke-width="0"><rect x="0" y="0" width="32.5" height="20" rx="5" ry="5" stroke="none"/><text xml:space="preserve" x="5" y="13" stroke="none" text-anchor="left" font-family="sans-serif" font-size="10" font-weight="normal" fill="#000000">Q&amp;A</text></g></g></g></g><g class="relationship"><g transform="translate(-350.0145900239644 401.69313654962156) rotate(121.58839666005139)" stroke-width="2" stroke="#000000"><path d="M 12 0 L 89.33879330658168 0"/><polygon points="-14.155129855222071,0 -15.727922061357857,5.242640687119286 0,0 -15.727922061357857,-5.242640687119286" fill="#000000" transform="translate(103.49392316180375 0) rotate(0)" stroke="none"/></g><g transform="translate(-376.55589928921825 444.8550023537625) rotate(301.5883966600514) translate(0 -10)"><g transform="translate(0 0)"><g transform="translate(-30.08333396911621 0)" fill="#ffffff" stroke="#000000" stroke-width="0"><rect x="0" y="0" width="60.16666793823242" height="20" rx="5" ry="5" stroke="none"/><text xml:space="preserve" x="5" y="13" stroke="none" text-anchor="left" font-family="sans-serif" font-size="10" font-weight="normal" fill="#000000">INCLUDES</text></g></g></g></g><g class="relationship"><g transform="translate(-350.0145900239644 401.69313654962156) rotate(72.8792791264819)" stroke-width="2" stroke="#000000"><path d="M 12 0 L 76.78817543186939 0"/><polygon points="-14.155129855222071,0 -15.727922061357857,5.242640687119286 0,0 -15.727922061357857,-5.242640687119286" fill="#000000" transform="translate(90.94330528709146 0) rotate(0)" stroke="none"/></g><g transform="translate(-336.94559362174914 444.11997189199644) rotate(72.8792791264819) translate(0 -10)"><g transform="translate(0 0)"><g transform="translate(-30.08333396911621 0)" fill="#ffffff" stroke="#000000" stroke-width="0"><rect x="0" y="0" width="60.16666793823242" height="20" rx="5" ry="5" stroke="none"/><text xml:space="preserve" x="5" y="13" stroke="none" text-anchor="left" font-family="sans-serif" font-size="10" font-weight="normal" fill="#000000">INCLUDES</text></g></g></g></g><g class="relationship"><g transform="translate(-350.0145900239644 401.69313654962156) rotate(161.4909347753561)" stroke-width="2" stroke="#000000"><path d="M 12 0 L 76.78817543186936 0"/><polygon points="-14.155129855222071,0 -15.727922061357857,5.242640687119286 0,0 -15.727922061357857,-5.242640687119286" fill="#000000" transform="translate(90.94330528709143 0) rotate(0)" stroke="none"/></g><g transform="translate(-392.11232429903987 415.7862480951689) rotate(341.49093477535604) translate(0 -10)"><g transform="translate(0 0)"><g transform="translate(-30.08333396911621 0)" fill="#ffffff" stroke="#000000" stroke-width="0"><rect x="0" y="0" width="60.16666793823242" height="20" rx="5" ry="5" stroke="none"/><text xml:space="preserve" x="5" y="13" stroke="none" text-anchor="left" font-family="sans-serif" font-size="10" font-weight="normal" fill="#000000">INCLUDES</text></g></g></g></g><g class="relationship"><g transform="translate(-41.852919895365474 236.66406938754866) rotate(90)" stroke-width="2" stroke="#000000"><path d="M 22 0 L 138.87393730685082 0"/><polygon points="-14.155129855222071,0 -15.727922061357857,5.242640687119286 0,0 -15.727922061357857,-5.242640687119286" fill="#000000" transform="translate(153.0290671620729 0) rotate(0)" stroke="none"/></g><g transform="translate(-41.85291989536547 317.10103804097406) rotate(270) translate(0 -10)"><g transform="translate(0 0)"><g transform="translate(-42.57500076293945 0)" fill="#ffffff" stroke="#000000" stroke-width="0"><rect x="0" y="0" width="85.1500015258789" height="20" rx="5" ry="5" stroke="none"/><text xml:space="preserve" x="5" y="13" stroke="none" text-anchor="left" font-family="sans-serif" font-size="10" font-weight="normal" fill="#000000">SOURCE_CODE</text></g></g></g></g><g class="relationship"><g transform="translate(-410.5118553431048 283.0746753473561) rotate(0)" stroke-width="2" stroke="#000000"><path d="M 12 0 L 92.72373323198269 0"/><polygon points="-14.155129855222071,0 -15.727922061357857,5.242640687119286 0,0 -15.727922061357857,-5.242640687119286" fill="#000000" transform="translate(106.87886308720476 0) rotate(0)" stroke="none"/></g><g transform="translate(-358.14998872711345 283.0746753473561) rotate(0) translate(0 -10)"><g transform="translate(0 0)"><g transform="translate(-15.566666603088379 0)" fill="#ffffff" stroke="#000000" stroke-width="0"><rect x="0" y="0" width="31.133333206176758" height="20" rx="5" ry="5" stroke="none"/><text xml:space="preserve" x="5" y="13" stroke="none" text-anchor="left" font-family="sans-serif" font-size="10" font-weight="normal" fill="#000000">IS_A</text></g></g></g></g><g class="relationship"><g transform="translate(-194.5292081771908 174.01788829988044) rotate(131.68175750604607)" stroke-width="2" stroke="#000000"><path d="M 12 0 L 119.86722351412698 0"/><polygon points="-14.155129855222071,0 -15.727922061357857,5.242640687119286 0,0 -15.727922061357857,-5.242640687119286" fill="#000000" transform="translate(134.02235336934905 0) rotate(0)" stroke="none"/></g><g transform="translate(-238.37457193045873 223.26040282416932) rotate(311.68175750604604) translate(0 -10)"><g transform="translate(0 0)"><g transform="translate(-15.566666603088379 0)" fill="#ffffff" stroke="#000000" stroke-width="0"><rect x="0" y="0" width="31.133333206176758" height="20" rx="5" ry="5" stroke="none"/><text xml:space="preserve" x="5" y="13" stroke="none" text-anchor="left" font-family="sans-serif" font-size="10" font-weight="normal" fill="#000000">IS_A</text></g></g></g></g><g class="relationship"><g transform="translate(-350.0145900239644 401.69313654962156) rotate(13.497730321929776)" stroke-width="2" stroke="#000000"><path d="M 12 0 L 128.01232712391447 0"/></g><g transform="translate(-281.94205500149974 418.0330543058048) rotate(13.497730321929776) translate(0 -10)"><g transform="translate(0 0)"><g transform="translate(-43.24166488647461 0)" fill="#ffffff" stroke="#000000" stroke-width="0"><rect x="0" y="0" width="86.48332977294922" height="20" rx="5" ry="5" stroke="none"/><text xml:space="preserve" x="5" y="13" stroke="none" text-anchor="left" font-family="sans-serif" font-size="10" font-weight="normal" fill="#000000">FUNCTIONS_AS</text></g></g></g></g><g class="relationship"><g transform="translate(-667.8382946585956 364.0826053964749) rotate(0)" stroke-width="2" stroke="#000000"><path d="M 12 0 L 134.98209463067985 0"/><polygon points="-14.155129855222071,0 -15.727922061357857,5.242640687119286 0,0 -15.727922061357857,-5.242640687119286" fill="#000000" transform="translate(149.13722448590192 0) rotate(0)" stroke="none"/></g><g transform="translate(-594.3472473432557 364.0826053964749) rotate(0) translate(0 -10)"><g transform="translate(0 0)"><g transform="translate(-15.566666603088379 0)" fill="#ffffff" stroke="#000000" stroke-width="0"><rect x="0" y="0" width="31.133333206176758" height="20" rx="5" ry="5" stroke="none"/><text xml:space="preserve" x="5" y="13" stroke="none" text-anchor="left" font-family="sans-serif" font-size="10" font-weight="normal" fill="#000000">IS_A</text></g></g></g></g><g class="relationship"><g transform="translate(-350.0145900239644 401.69313654962156) rotate(-166.50226967807023)" stroke-width="2" stroke="#000000"><path d="M 12 0 L 134.98209463067985 0"/><polygon points="-14.155129855222071,0 -15.727922061357857,5.242640687119286 0,0 -15.727922061357857,-5.242640687119286" fill="#000000" transform="translate(149.13722448590192 0) rotate(0)" stroke="none"/></g><g transform="translate(-421.4757534082934 384.53982307193536) rotate(13.49773032192977) translate(0 -10)"><g transform="translate(0 0)"><g transform="translate(-15.566666603088379 0)" fill="#ffffff" stroke="#000000" stroke-width="0"><rect x="0" y="0" width="31.133333206176758" height="20" rx="5" ry="5" stroke="none"/><text xml:space="preserve" x="5" y="13" stroke="none" text-anchor="left" font-family="sans-serif" font-size="10" font-weight="normal" fill="#000000">IS_A</text></g></g></g></g><g class="node"><g fill="#ffffff" stroke="#000000" stroke-width="2"><circle cx="-194.5292081771908" cy="174.01788829988044" r="11"/></g><g transform="translate(-194.5292081771908 174.01788829988044)"><g transform="translate(8.572527594031472e-16 -62)"><g transform="translate(0 0)"><g fill="#000000" font-family="sans-serif" font-size="10" font-weight="normal" text-anchor="middle"><text xml:space="preserve" x="0" y="9" stroke="none">KG for RAG</text></g></g><g transform="translate(0 16)"><g transform="translate(-23.675000190734863 0)"><g fill="#ffffff" stroke="#000000" stroke-width="2"><rect x="0" y="0" width="45.35000038146973" height="14" rx="7" ry="7"/><text xml:space="preserve" x="7" y="10" stroke="none" font-family="sans-serif" font-size="10" font-weight="normal" fill="#000000">MOOC</text></g></g></g><g transform="translate(0 36)"><g transform="translate(-258.50000035762787 0)" fill="white"><rect x="0" y="0" width="517.0000007152557" height="12" rx="0" ry="0" stroke="none"/><g font-family="sans-serif" font-size="10" font-weight="normal" fill="#000000" text-anchor="end"><text xml:space="preserve" x="26.383333921432495" y="9" stroke="none">URL:</text><text xml:space="preserve" x="29.566667318344116" y="9" stroke="none" text-anchor="start">https://learn.deeplearning.ai/courses/knowledge-graphs-rag/lesson/j4mw1/preparing-text-for-rag</text></g></g></g></g></g></g><g class="node"><g fill="#ffffff" stroke="#000000" stroke-width="2"><circle cx="-41.852919895365474" cy="236.66406938754866" r="21"/></g><g transform="translate(-41.852919895365474 236.66406938754866)"><g transform="translate(16.970562748477143 -28.97056274847714)"><g transform="translate(0 0)"><g fill="#000000" font-family="sans-serif" font-size="10" font-weight="normal" text-anchor="start"><text xml:space="preserve" x="0" y="9" stroke="none">Code Examples</text></g></g></g></g></g><g class="node"><g fill="#ffffff" stroke="#000000" stroke-width="2"><circle cx="-228.76035789167747" cy="331.6869729876643" r="11"/></g><g transform="translate(-228.76035789167747 331.6869729876643)"><g transform="translate(9.899494936611665 9.899494936611664)"><g transform="translate(0 0)"><g fill="#000000" font-family="sans-serif" font-size="10" font-weight="normal" text-anchor="start"><text xml:space="preserve" x="0" y="9" stroke="none">Contents</text></g></g></g></g></g><g class="node"><g fill="#ffffff" stroke="#000000" stroke-width="2"><circle cx="-350.0145900239644" cy="401.69313654962156" r="11"/></g><g transform="translate(-350.0145900239644 401.69313654962156)"><g transform="translate(8.572527594031472e-16 -46)"><g transform="translate(0 0)"><g fill="#000000" font-family="sans-serif" font-size="10" font-weight="normal" text-anchor="middle"><text xml:space="preserve" x="0" y="9" stroke="none">Chat with your docs</text></g></g><g transform="translate(0 16)"><g transform="translate(-34.47500038146973 0)"><g fill="#ffffff" stroke="#000000" stroke-width="2"><rect x="0" y="0" width="66.95000076293945" height="14" rx="7" ry="7"/><text xml:space="preserve" x="7" y="10" stroke="none" font-family="sans-serif" font-size="10" font-weight="normal" fill="#000000">LangChain</text></g></g></g></g></g></g><g class="node"><g fill="#ffffff" stroke="#000000" stroke-width="2"><circle cx="-319.70952564156823" cy="500.07467534735605" r="11"/></g><g transform="translate(-319.70952564156823 500.07467534735605)"><g transform="translate(8.572527594031472e-16 14)"><g transform="translate(0 0)"><g fill="#000000" font-family="sans-serif" font-size="10" font-weight="normal" text-anchor="middle"><text xml:space="preserve" x="0" y="9" stroke="none">SEC filings</text></g></g></g></g></g><g class="node"><g fill="#ffffff" stroke="#000000" stroke-width="2"><circle cx="-410.5118553431048" cy="500.07467534735616" r="11"/></g><g transform="translate(-410.5118553431048 500.07467534735616)"><g transform="translate(-9.899494936611664 9.899494936611665)"><g transform="translate(0 0)"><g fill="#000000" font-family="sans-serif" font-size="10" font-weight="normal" text-anchor="end"><text xml:space="preserve" x="0" y="9" stroke="none">Movies DB</text></g></g></g></g></g><g class="node"><g fill="#ffffff" stroke="#000000" stroke-width="2"><circle cx="-447.63299225590004" cy="434.37297206198804" r="11"/></g><g transform="translate(-447.63299225590004 434.37297206198804)"><g transform="translate(-14 -5.999999999999998)"><g transform="translate(0 0)"><g fill="#000000" font-family="sans-serif" font-size="10" font-weight="normal" text-anchor="end"><text xml:space="preserve" x="0" y="9" stroke="none">LangChain RAG workflow</text></g></g></g></g></g><g class="node"><g fill="#ffffff" stroke="#000000" stroke-width="2"><circle cx="-410.5118553431048" cy="283.0746753473561" r="11"/></g><g transform="translate(-410.5118553431048 283.0746753473561)"><g transform="translate(-14 -26)"><g transform="translate(0 0)"><g fill="#000000" font-family="sans-serif" font-size="10" font-weight="normal" text-anchor="end"><text xml:space="preserve" x="0" y="9" stroke="none">LLMs + Neo4j</text></g></g><g transform="translate(0 16)"><g transform="translate(-96.31666564941406 0)"><g fill="#ffffff" stroke="#000000" stroke-width="2"><rect x="0" y="0" width="94.31666564941406" height="14" rx="7" ry="7"/><text xml:space="preserve" x="7" y="10" stroke="none" font-family="sans-serif" font-size="10" font-weight="normal" fill="#000000">Graph Academy</text></g></g><g transform="translate(-47.35000038146973 20)"><g fill="#ffffff" stroke="#000000" stroke-width="2"><rect x="0" y="0" width="45.35000038146973" height="14" rx="7" ry="7"/><text xml:space="preserve" x="7" y="10" stroke="none" font-family="sans-serif" font-size="10" font-weight="normal" fill="#000000">MOOC</text></g></g></g></g></g></g><g class="node"><g fill="#ffffff" stroke="#000000" stroke-width="2"><circle cx="-41.852919895365474" cy="401.69313654962156" r="11"/></g><g transform="translate(-41.852919895365474 401.69313654962156)"><g transform="translate(8.572527594031472e-16 14)"><g transform="translate(0 0)"><g fill="#000000" font-family="sans-serif" font-size="10" font-weight="normal" text-anchor="middle"><text xml:space="preserve" x="0" y="9" stroke="none">Neo4j RAG Demo</text></g></g><g transform="translate(0 16)"><g transform="translate(-25.325000762939453 0)"><g fill="#ffffff" stroke="#000000" stroke-width="2"><rect x="0" y="0" width="48.650001525878906" height="14" rx="7" ry="7"/><text xml:space="preserve" x="7" y="10" stroke="none" font-family="sans-serif" font-size="10" font-weight="normal" fill="#000000">GitHub</text></g></g><g transform="translate(-34.47500038146973 20)"><g fill="#ffffff" stroke="#000000" stroke-width="2"><rect x="0" y="0" width="66.95000076293945" height="14" rx="7" ry="7"/><text xml:space="preserve" x="7" y="10" stroke="none" font-family="sans-serif" font-size="10" font-weight="normal" fill="#000000">LangChain</text></g></g><g transform="translate(-30.825000762939453 40)"><g fill="#ffffff" stroke="#000000" stroke-width="2"><rect x="0" y="0" width="59.650001525878906" height="14" rx="7" ry="7"/><text xml:space="preserve" x="7" y="10" stroke="none" font-family="sans-serif" font-size="10" font-weight="normal" fill="#000000">Streamlit</text></g></g></g><g transform="translate(0 76)"><g transform="translate(-130.0583347082138 0)" fill="white"><rect x="0" y="0" width="260.1166694164276" height="12" rx="0" ry="0" stroke="none"/><g font-family="sans-serif" font-size="10" font-weight="normal" fill="#000000" text-anchor="end"><text xml:space="preserve" x="26.383333921432495" y="9" stroke="none">URL:</text><text xml:space="preserve" x="29.566667318344116" y="9" stroke="none" text-anchor="start">https://github.com/neo4j-examples/rag-demo</text></g></g></g></g></g></g><g class="node"><g fill="#ffffff" stroke="#000000" stroke-width="2"><circle cx="-667.8382946585956" cy="364.0826053964749" r="11"/></g><g transform="translate(-667.8382946585956 364.0826053964749)"><g transform="translate(-14 -15.999999999999998)"><g transform="translate(0 0)"><g fill="#000000" font-family="sans-serif" font-size="10" font-weight="normal" text-anchor="end"><text xml:space="preserve" x="0" y="9" stroke="none">LLM Graph Builder</text></g></g><g transform="translate(0 16)"><g transform="translate(-35.433332443237305 0)"><g fill="#ffffff" stroke="#000000" stroke-width="2"><rect x="0" y="0" width="33.433332443237305" height="14" rx="7" ry="7"/><text xml:space="preserve" x="7" y="10" stroke="none" font-family="sans-serif" font-size="10" font-weight="normal" fill="#000000">Tool</text></g></g></g></g></g></g><g class="node"><g fill="#ffffff" stroke="#000000" stroke-width="2"><circle cx="-291.63299225590004" cy="283.0746753473561" r="11"/></g><g transform="translate(-291.63299225590004 283.0746753473561)"><g transform="translate(-9.899494936611664 -21.899494936611667)"><g transform="translate(0 0)"><g fill="#000000" font-family="sans-serif" font-size="10" font-weight="normal" text-anchor="end"><text xml:space="preserve" x="0" y="9" stroke="none">MOOC</text></g></g></g></g></g><g class="node"><g fill="#ffffff" stroke="#000000" stroke-width="2"><circle cx="-291.63299225590004" cy="283.0746753473561" r="11"/></g></g><g class="node"><g fill="#ffffff" stroke="#000000" stroke-width="2"><circle cx="-291.63299225590004" cy="283.0746753473561" r="11"/></g></g><g class="node"><g fill="#ffffff" stroke="#000000" stroke-width="2"><circle cx="-213.8695199790351" cy="434.37297206198804" r="11"/></g><g transform="translate(-213.8695199790351 434.37297206198804)"><g transform="translate(14 -6)"><g transform="translate(0 0)"><g fill="#000000" font-family="sans-serif" font-size="10" font-weight="normal" text-anchor="start"><text xml:space="preserve" x="0" y="9" stroke="none">Streamlit App</text></g></g></g></g></g><g class="node"><g fill="#ffffff" stroke="#000000" stroke-width="2"><circle cx="-506.7010701726937" cy="364.0826053964749" r="11"/></g><g transform="translate(-506.7010701726937 364.0826053964749)"><g transform="translate(8.572527594031472e-16 -26)"><g transform="translate(0 0)"><g fill="#000000" font-family="sans-serif" font-size="10" font-weight="normal" text-anchor="middle"><text xml:space="preserve" x="0" y="9" stroke="none">Tool</text></g></g></g></g></g></g></svg>