<svg xmlns="http://www.w3.org/2000/svg" width="432" height="1216" viewBox="0 0 432 1216"><defs><style type="text/css"/></defs><g transform="translate(72.70791527063218 179.1823642938066) scale(1)"><g class="relationship"><g transform="translate(142.89604236468392 7.527054282477331) rotate(39.39289261531656)" stroke-width="5" stroke="#000000"><path d="M 59 0 L 125.24937202567845 0"/><polygon points="-24.8621506177483,0 -27.62461179749811,9.20820393249937 0,0 -27.62461179749811,-9.20820393249937" fill="#000000" transform="translate(150.11152264342675 0) rotate(0)" stroke="none"/></g></g><g class="relationship"><g transform="translate(304.5 140.23647285876135) rotate(90)" stroke-width="5" stroke="#000000"><path d="M 59 0 L 60.37432224101305 0"/><polygon points="-24.8621506177483,0 -27.62461179749811,9.20820393249937 0,0 -27.62461179749811,-9.20820393249937" fill="#000000" transform="translate(85.23647285876135 0) rotate(0)" stroke="none"/></g></g><g class="relationship"><g transform="translate(304.5 284.4729457175227) rotate(90)" stroke-width="5" stroke="#000000"><path d="M 59 0 L 58.507224919120446 0"/><polygon points="-24.8621506177483,0 -27.62461179749811,9.20820393249937 0,0 -27.62461179749811,-9.20820393249937" fill="#000000" transform="translate(83.36937553686874 0) rotate(0)" stroke="none"/></g></g><g class="relationship"><g transform="translate(304.5 426.84232125439144) rotate(90)" stroke-width="5" stroke="#000000"><path d="M 59 0 L 58.5072249191205 0"/><polygon points="-24.8621506177483,0 -27.62461179749811,9.20820393249937 0,0 -27.62461179749811,-9.20820393249937" fill="#000000" transform="translate(83.3693755368688 0) rotate(0)" stroke="none"/></g></g><g class="relationship"><g transform="translate(304.5 569.2116967912602) rotate(90)" stroke-width="5" stroke="#000000"><path d="M 59 0 L 58.5072249191205 0"/><polygon points="-24.8621506177483,0 -27.62461179749811,9.20820393249937 0,0 -27.62461179749811,-9.20820393249937" fill="#000000" transform="translate(83.3693755368688 0) rotate(0)" stroke="none"/></g></g><g class="relationship"><g transform="translate(304.5 711.581072328129) rotate(90)" stroke-width="5" stroke="#000000"><path d="M 59 0 L 58.5072249191205 0"/><polygon points="-24.8621506177483,0 -27.62461179749811,9.20820393249937 0,0 -27.62461179749811,-9.20820393249937" fill="#000000" transform="translate(83.3693755368688 0) rotate(0)" stroke="none"/></g></g><g class="relationship"><g transform="translate(304.5 853.9504478649978) rotate(158.2953015039963)" stroke-width="5" stroke="#000000"><path d="M 59 0 L 90.07345017363967 0"/><polygon points="-24.8621506177483,0 -27.62461179749811,9.20820393249937 0,0 -27.62461179749811,-9.20820393249937" fill="#000000" transform="translate(114.93560079138797 0) rotate(0)" stroke="none"/></g></g><g class="relationship"><g transform="translate(-18.70791527063218 19.05410856495473) rotate(90)" stroke-width="5" stroke="#000000"><path d="M 59 0 L 48.84726795853568 0"/><polygon points="-24.8621506177483,0 -27.62461179749811,9.20820393249937 0,0 -27.62461179749811,-9.20820393249937" fill="#000000" transform="translate(73.70941857628398 0) rotate(0)" stroke="none"/></g></g><g class="relationship"><g transform="translate(-18.70791527063218 549.8917828700908) rotate(90)" stroke-width="5" stroke="#000000"><path d="M 59 0 L 60.37432224101302 0"/><polygon points="-24.8621506177483,0 -27.62461179749811,9.20820393249937 0,0 -27.62461179749811,-9.20820393249937" fill="#000000" transform="translate(85.23647285876132 0) rotate(0)" stroke="none"/></g></g><g class="relationship"><g transform="translate(-18.70791527063218 694.1282557288521) rotate(90)" stroke-width="5" stroke="#000000"><path d="M 59 0 L 60.37432224101302 0"/><polygon points="-24.8621506177483,0 -27.62461179749811,9.20820393249937 0,0 -27.62461179749811,-9.20820393249937" fill="#000000" transform="translate(85.23647285876132 0) rotate(0)" stroke="none"/></g></g><g class="relationship"><g transform="translate(-18.70791527063218 838.3647285876134) rotate(90)" stroke-width="5" stroke="#000000"><path d="M 59 0 L 60.37432224101302 0"/><polygon points="-24.8621506177483,0 -27.62461179749811,9.20820393249937 0,0 -27.62461179749811,-9.20820393249937" fill="#000000" transform="translate(85.23647285876132 0) rotate(0)" stroke="none"/></g></g><g class="relationship"><g transform="translate(304.5 426.84232125439144) rotate(-139.59924978330545)" stroke-width="5" stroke="#000000"><path d="M 59 0 L 340.5570990214904 0"/><polygon points="-24.8621506177483,0 -27.62461179749811,9.20820393249937 0,0 -27.62461179749811,-9.20820393249937" fill="#000000" transform="translate(365.41924963923867 0) rotate(0)" stroke="none"/></g><g transform="translate(152.36267692136025 297.35987545156127) rotate(40.40075021669454) translate(0 -13)"><g transform="translate(0 0)"><g transform="translate(-73.97272491455078 0)" fill="#ffffff" stroke="#000000" stroke-width="0"><rect x="0" y="0" width="147.94544982910156" height="26" rx="5" ry="5" stroke="none"/><text xml:space="preserve" x="5" y="17.5" stroke="none" text-anchor="left" font-family="sans-serif" font-size="16" font-weight="normal" fill="#000000">Informs structure</text></g></g></g></g><g class="relationship"><g transform="translate(304.5 711.581072328129) rotate(-137.6707134786718)" stroke-width="5" stroke="#000000"><path d="M 59 0 L 353.3265452400773 0"/><polygon points="-24.8621506177483,0 -27.62461179749811,9.20820393249937 0,0 -27.62461179749811,-9.20820393249937" fill="#000000" transform="translate(378.18869585782556 0) rotate(0)" stroke="none"/></g><g transform="translate(152.0861746192929 572.7526861449579) rotate(42.32928652132822) translate(0 -13)"><g transform="translate(0 0)"><g transform="translate(-75.08181762695312 0)" fill="#ffffff" stroke="#000000" stroke-width="0"><rect x="0" y="0" width="150.16363525390625" height="26" rx="5" ry="5" stroke="none"/><text xml:space="preserve" x="5" y="17.5" stroke="none" text-anchor="left" font-family="sans-serif" font-size="16" font-weight="normal" fill="#000000">Ensures accuracy</text></g></g></g></g><g class="relationship"><g transform="translate(304.5 853.9504478649978) rotate(-136.74858761037265)" stroke-width="5" stroke="#000000"><path d="M 59 0 L 359.8889375522677 0"/><polygon points="-24.8621506177483,0 -27.62461179749811,9.20820393249937 0,0 -27.62461179749811,-9.20820393249937" fill="#000000" transform="translate(384.751088170016 0) rotate(0)" stroke="none"/></g><g transform="translate(151.95026677621726 710.4388999175604) rotate(43.25141238962733) translate(0 -13)"><g transform="translate(0 0)"><g transform="translate(-68.49090957641602 0)" fill="#ffffff" stroke="#000000" stroke-width="0"><rect x="0" y="0" width="136.98181915283203" height="26" rx="5" ry="5" stroke="none"/><text xml:space="preserve" x="5" y="17.5" stroke="none" text-anchor="left" font-family="sans-serif" font-size="16" font-weight="normal" fill="#000000">Assesses clarity</text></g></g></g></g><g class="relationship"><g transform="translate(304.5 569.2116967912602) rotate(-138.6206893617864)" stroke-width="5" stroke="#000000"><path d="M 59 0 L 346.88082710402495 0"/><polygon points="-24.8621506177483,0 -27.62461179749811,9.20820393249937 0,0 -27.62461179749811,-9.20820393249937" fill="#000000" transform="translate(371.74297772177323 0) rotate(0)" stroke="none"/></g><g transform="translate(152.22369746983262 435.05977119791373) rotate(41.3793106382136) translate(0 -13)"><g transform="translate(0 0)"><g transform="translate(-82.58181762695312 0)" fill="#ffffff" stroke="#000000" stroke-width="0"><rect x="0" y="0" width="165.16363525390625" height="26" rx="5" ry="5" stroke="none"/><text xml:space="preserve" x="5" y="17.5" stroke="none" text-anchor="left" font-family="sans-serif" font-size="16" font-weight="normal" fill="#000000">Supports validation</text></g></g></g></g><g class="relationship"><g transform="translate(142.89604236468392 7.527054282477331) rotate(-140.60710738468347)" stroke-width="5" stroke="#000000"><path d="M 59 0 L 125.24937202567843 0"/><polygon points="-24.8621506177483,0 -27.62461179749811,9.20820393249937 0,0 -27.62461179749811,-9.20820393249937" fill="#000000" transform="translate(150.11152264342672 0) rotate(0)" stroke="none"/></g></g><g class="relationship"><g transform="translate(-18.70791527063218 -125.18236429380659) rotate(90)" stroke-width="5" stroke="#000000"><path d="M 59 0 L 60.37432224101302 0"/><polygon points="-24.8621506177483,0 -27.62461179749811,9.20820393249937 0,0 -27.62461179749811,-9.20820393249937" fill="#000000" transform="translate(85.23647285876132 0) rotate(0)" stroke="none"/></g></g><g class="relationship"><g transform="translate(-18.70791527063218 151.7635271412387) rotate(90)" stroke-width="5" stroke="#000000"><path d="M 59 0 L 48.84726795853568 0"/><polygon points="-24.8621506177483,0 -27.62461179749811,9.20820393249937 0,0 -27.62461179749811,-9.20820393249937" fill="#000000" transform="translate(73.70941857628398 0) rotate(0)" stroke="none"/></g></g><g class="relationship"><g transform="translate(-18.70791527063218 284.4729457175227) rotate(90)" stroke-width="5" stroke="#000000"><path d="M 59 0 L 48.84726795853571 0"/><polygon points="-24.8621506177483,0 -27.62461179749811,9.20820393249937 0,0 -27.62461179749811,-9.20820393249937" fill="#000000" transform="translate(73.70941857628401 0) rotate(0)" stroke="none"/></g></g><g class="relationship"><g transform="translate(-18.70791527063218 417.1823642938067) rotate(90)" stroke-width="5" stroke="#000000"><path d="M 59 0 L 48.84726795853577 0"/><polygon points="-24.8621506177483,0 -27.62461179749811,9.20820393249937 0,0 -27.62461179749811,-9.20820393249937" fill="#000000" transform="translate(73.70941857628407 0) rotate(0)" stroke="none"/></g></g><g class="relationship"><g transform="translate(-18.70791527063218 982.6012014463747) rotate(-21.704698496003704)" stroke-width="5" stroke="#000000"><path d="M 59 0 L 90.07345017363964 0"/><polygon points="-24.8621506177483,0 -27.62461179749811,9.20820393249937 0,0 -27.62461179749811,-9.20820393249937" fill="#000000" transform="translate(114.93560079138794 0) rotate(0)" stroke="none"/></g></g><g class="node"><g fill="#ffffff" stroke="#000000" stroke-width="4"><circle cx="142.89604236468392" cy="7.527054282477331" r="52"/></g><g transform="translate(142.89604236468392 7.527054282477331)"><g transform="scale(0.65625034375) translate(0 0)"><g transform="translate(0 0)"><g font-family="sans-serif" font-size="50" font-weight="normal" fill="#000000" text-anchor="middle"><text xml:space="preserve" x="0" y="14.5" stroke="none">Start</text></g></g></g></g></g><g class="node"><g fill="#ffffff" stroke="#000000" stroke-width="4"><circle cx="304.5" cy="140.23647285876135" r="52"/></g><g transform="translate(304.5 140.23647285876135)"><g transform="scale(0.375000625) translate(0 0)"><g transform="translate(0 0)"><g font-family="sans-serif" font-size="50" font-weight="normal" fill="#000000" text-anchor="middle"><text xml:space="preserve" x="0" y="-45.5" stroke="none">Data</text><text xml:space="preserve" x="0" y="14.5" stroke="none" text-anchor="middle">Ingestion</text></g></g></g></g></g><g class="node"><g fill="#ffffff" stroke="#000000" stroke-width="4"><circle cx="304.5" cy="284.4729457175227" r="52"/></g><g transform="translate(304.5 284.4729457175227)"><g transform="scale(0.25390699609375) translate(0 0)"><g transform="translate(0 0)"><g font-family="sans-serif" font-size="50" font-weight="normal" fill="#000000" text-anchor="middle"><text xml:space="preserve" x="0" y="-45.5" stroke="none">Data</text><text xml:space="preserve" x="0" y="14.5" stroke="none" text-anchor="middle">Normalization</text></g></g></g></g></g><g class="node"><g fill="#ffffff" stroke="#000000" stroke-width="4"><circle cx="304.5" cy="426.84232125439144" r="52"/></g><g transform="translate(304.5 426.84232125439144)"><g transform="scale(0.3125006875) translate(0 0)"><g transform="translate(0 0)"><g font-family="sans-serif" font-size="50" font-weight="normal" fill="#000000" text-anchor="middle"><text xml:space="preserve" x="0" y="-45.5" stroke="none">Data</text><text xml:space="preserve" x="0" y="14.5" stroke="none" text-anchor="middle">Structuring</text></g></g></g></g></g><g class="node"><g fill="#ffffff" stroke="#000000" stroke-width="4"><circle cx="304.5" cy="569.2116967912602" r="52"/></g><g transform="translate(304.5 569.2116967912602)"><g transform="scale(0.35156314843750003) translate(0 0)"><g transform="translate(0 0)"><g font-family="sans-serif" font-size="50" font-weight="normal" fill="#000000" text-anchor="middle"><text xml:space="preserve" x="0" y="-45.5" stroke="none">Data</text><text xml:space="preserve" x="0" y="14.5" stroke="none" text-anchor="middle">Validation</text></g></g></g></g></g><g class="node"><g fill="#ffffff" stroke="#000000" stroke-width="4"><circle cx="304.5" cy="711.581072328129" r="52"/></g><g transform="translate(304.5 711.581072328129)"><g transform="scale(0.3945318554687499) translate(0 0)"><g transform="translate(0 0)"><g font-family="sans-serif" font-size="50" font-weight="normal" fill="#000000" text-anchor="middle"><text xml:space="preserve" x="0" y="-45.5" stroke="none">Data</text><text xml:space="preserve" x="0" y="14.5" stroke="none" text-anchor="middle">Cleaning</text></g></g></g></g></g><g class="node"><g fill="#ffffff" stroke="#000000" stroke-width="4"><circle cx="304.5" cy="853.9504478649978" r="52"/></g><g transform="translate(304.5 853.9504478649978)"><g transform="scale(0.330078794921875) translate(0 0)"><g transform="translate(0 0)"><g font-family="sans-serif" font-size="50" font-weight="normal" fill="#000000" text-anchor="middle"><text xml:space="preserve" x="0" y="-45.5" stroke="none">Data</text><text xml:space="preserve" x="0" y="14.5" stroke="none" text-anchor="middle">Evaluation</text></g></g></g></g></g><g class="node"><g fill="#ffffff" stroke="#000000" stroke-width="4"><circle cx="142.8960423646839" cy="918.2758246556863" r="52"/></g><g transform="translate(142.8960423646839 918.2758246556863)"><g transform="scale(0.7968752031249999) translate(0 0)"><g transform="translate(0 0)"><g font-family="sans-serif" font-size="50" font-weight="normal" fill="#000000" text-anchor="middle"><text xml:space="preserve" x="0" y="14.5" stroke="none">End</text></g></g></g></g></g><g class="node"><g fill="#ffffff" stroke="#000000" stroke-width="4"><circle cx="-18.70791527063218" cy="19.05410856495473" r="52"/></g><g transform="translate(-18.70791527063218 19.05410856495473)"><g transform="scale(0.2578132421875) translate(0 0)"><g transform="translate(0 0)"><g font-family="sans-serif" font-size="50" font-weight="normal" fill="#000000" text-anchor="middle"><text xml:space="preserve" x="0" y="-45.5" stroke="none">Initial</text><text xml:space="preserve" x="0" y="14.5" stroke="none" text-anchor="middle">Read-through</text></g></g></g></g></g><g class="node"><g fill="#ffffff" stroke="#000000" stroke-width="4"><circle cx="-18.70791527063218" cy="151.7635271412387" r="52"/></g><g transform="translate(-18.70791527063218 151.7635271412387)"><g transform="scale(0.384766240234375) translate(0 0)"><g transform="translate(0 0)"><g font-family="sans-serif" font-size="50" font-weight="normal" fill="#000000" text-anchor="middle"><text xml:space="preserve" x="0" y="-15.5" stroke="none">Content</text><text xml:space="preserve" x="0" y="44.5" stroke="none" text-anchor="middle">Review</text></g></g></g></g></g><g class="node"><g fill="#ffffff" stroke="#000000" stroke-width="4"><circle cx="-18.70791527063218" cy="417.1823642938067" r="52"/></g><g transform="translate(-18.70791527063218 417.1823642938067)"><g transform="scale(0.298828826171875) translate(0 0)"><g transform="translate(0 0)"><g font-family="sans-serif" font-size="50" font-weight="normal" fill="#000000" text-anchor="middle"><text xml:space="preserve" x="0" y="-15.5" stroke="none">Language</text><text xml:space="preserve" x="0" y="44.5" stroke="none" text-anchor="middle">Accuracy</text><text xml:space="preserve" x="0" y="104.5" stroke="none" text-anchor="middle">Checks</text></g></g></g></g></g><g class="node"><g fill="#ffffff" stroke="#000000" stroke-width="4"><circle cx="-18.70791527063218" cy="284.4729457175227" r="52"/></g><g transform="translate(-18.70791527063218 284.4729457175227)"><g transform="scale(0.2890632109375) translate(0 0)"><g transform="translate(0 0)"><g font-family="sans-serif" font-size="50" font-weight="normal" fill="#000000" text-anchor="middle"><text xml:space="preserve" x="0" y="14.5" stroke="none">Consistency</text><text xml:space="preserve" x="0" y="74.5" stroke="none" text-anchor="middle">Check</text></g></g></g></g></g><g class="node"><g fill="#ffffff" stroke="#000000" stroke-width="4"><circle cx="-18.70791527063218" cy="549.8917828700908" r="52"/></g><g transform="translate(-18.70791527063218 549.8917828700908)"><g transform="scale(0.29296945703125) translate(0 0)"><g transform="translate(0 0)"><g font-family="sans-serif" font-size="50" font-weight="normal" fill="#000000" text-anchor="middle"><text xml:space="preserve" x="0" y="-45.5" stroke="none">Clarity</text><text xml:space="preserve" x="0" y="14.5" stroke="none" text-anchor="middle">Assessment</text></g></g></g></g></g><g class="node"><g fill="#ffffff" stroke="#000000" stroke-width="4"><circle cx="-18.70791527063218" cy="694.1282557288521" r="52"/></g><g transform="translate(-18.70791527063218 694.1282557288521)"><g transform="scale(0.3046881953125) translate(0 0)"><g transform="translate(0 0)"><g font-family="sans-serif" font-size="50" font-weight="normal" fill="#000000" text-anchor="middle"><text xml:space="preserve" x="0" y="-75.5" stroke="none">Style</text><text xml:space="preserve" x="0" y="-15.5" stroke="none" text-anchor="middle">Guide</text><text xml:space="preserve" x="0" y="44.5" stroke="none" text-anchor="middle">Adherence</text></g></g></g></g></g><g class="node"><g fill="#ffffff" stroke="#000000" stroke-width="4"><circle cx="-18.70791527063218" cy="838.3647285876134" r="52"/></g><g transform="translate(-18.70791527063218 838.3647285876134)"><g transform="scale(0.32031317968749995) translate(0 0)"><g transform="translate(0 0)"><g font-family="sans-serif" font-size="50" font-weight="normal" fill="#000000" text-anchor="middle"><text xml:space="preserve" x="0" y="14.5" stroke="none">Formatting</text><text xml:space="preserve" x="0" y="74.5" stroke="none" text-anchor="middle">Review</text></g></g></g></g></g><g class="node"><g fill="#ffffff" stroke="#000000" stroke-width="4"><circle cx="-18.70791527063218" cy="982.6012014463747" r="52"/></g><g transform="translate(-18.70791527063218 982.6012014463747)"><g transform="scale(0.3125006875) translate(0 0)"><g transform="translate(0 0)"><g font-family="sans-serif" font-size="50" font-weight="normal" fill="#000000" text-anchor="middle"><text xml:space="preserve" x="0" y="-75.5" stroke="none">Final</text><text xml:space="preserve" x="0" y="-15.5" stroke="none" text-anchor="middle">Quality</text><text xml:space="preserve" x="0" y="44.5" stroke="none" text-anchor="middle">Assurance</text></g></g></g></g></g><g class="node"><g fill="#ffffff" stroke="#000000" stroke-width="4"><circle cx="-18.70791527063218" cy="-125.18236429380659" r="52"/></g><g transform="translate(-18.70791527063218 -125.18236429380659)"><g transform="scale(0.44531305468749993) translate(0 0)"><g transform="translate(0 0)"><g font-family="sans-serif" font-size="50" font-weight="normal" fill="#000000" text-anchor="middle"><text xml:space="preserve" x="0" y="-45.5" stroke="none">File</text><text xml:space="preserve" x="0" y="14.5" stroke="none" text-anchor="middle">Sharing</text></g></g></g></g></g></g></svg>