<svg xmlns="http://www.w3.org/2000/svg" width="1997" height="1327" viewBox="0 0 1997 1327"><defs><style type="text/css"/></defs><g transform="translate(360.59583014532416 464.3811261215486) scale(1)"><g class="relationship"><g transform="translate(335 50.000000000000036) rotate(0)" stroke-width="5" stroke="#000000"><path d="M 59 0 L 176.13784938225172 0"/><polygon points="-24.8621506177483,0 -27.62461179749811,9.20820393249937 0,0 -27.62461179749811,-9.20820393249937" fill="#000000" transform="translate(201 0) rotate(0)" stroke="none"/></g><g transform="translate(452.56892469112586 50.000000000000036) rotate(0) translate(0 -13)"><g transform="translate(0 0)"><g transform="translate(-31.950000762939453 0)" fill="#ffffff" stroke="#000000" stroke-width="0"><rect x="0" y="0" width="63.900001525878906" height="26" rx="5" ry="5" stroke="none"/><text xml:space="preserve" x="5" y="17.5" stroke="none" text-anchor="left" font-family="sans-serif" font-size="16" font-weight="normal" fill="#000000">Begins</text></g></g></g></g><g class="relationship"><g transform="translate(595 50.000000000000036) rotate(-7.039202587738035e-15)" stroke-width="5" stroke="#000000"><path d="M 59 0 L 205.3119384591158 0"/><polygon points="-24.8621506177483,0 -27.62461179749811,9.20820393249937 0,0 -27.62461179749811,-9.20820393249937" fill="#000000" transform="translate(230.1740890768641 0) rotate(0)" stroke="none"/></g><g transform="translate(727.155969229558 50.00000000000002) rotate(-7.039202587738035e-15) translate(0 -13)"><g transform="translate(0 0)"><g transform="translate(-41.32500076293945 0)" fill="#ffffff" stroke="#000000" stroke-width="0"><rect x="0" y="0" width="82.6500015258789" height="26" rx="5" ry="5" stroke="none"/><text xml:space="preserve" x="5" y="17.5" stroke="none" text-anchor="left" font-family="sans-serif" font-size="16" font-weight="normal" fill="#000000">Produces</text></g></g></g></g><g class="relationship"><g transform="translate(884.1740890768641 50) rotate(0)" stroke-width="5" stroke="#000000"><path d="M 59 0 L 205.3119384591158 0"/><polygon points="-24.8621506177483,0 -27.62461179749811,9.20820393249937 0,0 -27.62461179749811,-9.20820393249937" fill="#000000" transform="translate(230.1740890768641 0) rotate(0)" stroke="none"/></g><g transform="translate(1016.330058306422 50) rotate(0) translate(0 -13)"><g transform="translate(0 0)"><g transform="translate(-57.78333282470703 0)" fill="#ffffff" stroke="#000000" stroke-width="0"><rect x="0" y="0" width="115.56666564941406" height="26" rx="5" ry="5" stroke="none"/><text xml:space="preserve" x="5" y="17.5" stroke="none" text-anchor="left" font-family="sans-serif" font-size="16" font-weight="normal" fill="#000000">Evaluated By</text></g></g></g></g><g class="relationship"><g transform="translate(1173.3481781537282 50) rotate(119.99999999999999)" stroke-width="5" stroke="#000000"><path d="M 59 0 L 161.6110925037293 0"/><polygon points="-24.8621506177483,0 -27.62461179749811,9.20820393249937 0,0 -27.62461179749811,-9.20820393249937" fill="#000000" transform="translate(186.4732431214776 0) rotate(0)" stroke="none"/></g><g transform="translate(1118.195405027796 145.52740523243415) rotate(299.99999999999994) translate(0 -13)"><g transform="translate(0 0)"><g transform="translate(-34.941667556762695 0)" fill="#ffffff" stroke="#000000" stroke-width="0"><rect x="0" y="0" width="69.88333511352539" height="26" rx="5" ry="5" stroke="none"/><text xml:space="preserve" x="5" y="17.5" stroke="none" text-anchor="left" font-family="sans-serif" font-size="16" font-weight="normal" fill="#000000">Polarity</text></g></g></g></g><g class="relationship"><g transform="translate(1173.3481781537282 50) rotate(60.00000000000001)" stroke-width="5" stroke="#000000"><path d="M 59 0 L 161.61109250372925 0"/><polygon points="-24.8621506177483,0 -27.62461179749811,9.20820393249937 0,0 -27.62461179749811,-9.20820393249937" fill="#000000" transform="translate(186.47324312147757 0) rotate(0)" stroke="none"/></g><g transform="translate(1228.5009512796605 145.52740523243415) rotate(60.00000000000001) translate(0 -13)"><g transform="translate(0 0)"><g transform="translate(-34.941667556762695 0)" fill="#ffffff" stroke="#000000" stroke-width="0"><rect x="0" y="0" width="69.88333511352539" height="26" rx="5" ry="5" stroke="none"/><text xml:space="preserve" x="5" y="17.5" stroke="none" text-anchor="left" font-family="sans-serif" font-size="16" font-weight="normal" fill="#000000">Polarity</text></g></g></g></g><g class="relationship"><g transform="translate(-29 50.000000000000036) rotate(0)" stroke-width="5" stroke="#000000"><path d="M 59 0 L 280.1378493822517 0"/><polygon points="-24.8621506177483,0 -27.62461179749811,9.20820393249937 0,0 -27.62461179749811,-9.20820393249937" fill="#000000" transform="translate(305 0) rotate(0)" stroke="none"/></g><g transform="translate(140.56892469112586 50.000000000000036) rotate(0) translate(0 -13)"><g transform="translate(0 0)"><g transform="translate(-88.32499694824219 0)" fill="#ffffff" stroke="#000000" stroke-width="0"><rect x="0" y="0" width="176.64999389648438" height="26" rx="5" ry="5" stroke="none"/><text xml:space="preserve" x="5" y="17.5" stroke="none" text-anchor="left" font-family="sans-serif" font-size="16" font-weight="normal" fill="#000000">Provides Instructions</text></g></g></g></g><g class="relationship"><g transform="translate(335 50.000000000000036) rotate(-90)" stroke-width="5" stroke="#000000"><path d="M 58.695178092152055 -5.989663490593891 L 95.96898050729243 -9.793341079425122 A 40 40 0 0 1 100.02976931447472 -10 L 141.59722352314552 -10 L 183.16467773181634 -10 A 40 40 0 0 1 187.22546653899863 -9.79334107942512 L 199.76556796663652 -8.51366206436971 L 199.76556796663652 -8.51366206436971"/><polygon points="-24.8621506177483,0 -27.62461179749811,9.20820393249937 0,0 -27.62461179749811,-9.20820393249937" fill="#000000" transform="translate(283.19444704629103 0) rotate(5.826689442008371) translate(-59 0)" stroke="none"/></g><g transform="translate(325 -91.59722352314549) rotate(90) translate(0 -13)"><g transform="translate(0 0)"><g transform="translate(-44.44166564941406 0)" fill="#ffffff" stroke="#000000" stroke-width="0"><rect x="0" y="0" width="88.88333129882812" height="26" rx="5" ry="5" stroke="none"/><text xml:space="preserve" x="5" y="17.5" stroke="none" text-anchor="left" font-family="sans-serif" font-size="16" font-weight="normal" fill="#000000">Processes</text></g></g></g></g><g class="relationship"><g transform="translate(335 50.000000000000036) rotate(-90)" stroke-width="5" stroke="#000000"><path d="M 58.695178092152055 5.989663490593891 L 95.96898050729243 9.793341079425122 A 40 40 0 0 0 100.02976931447472 10 L 141.59722352314552 10 L 183.16467773181634 10 A 40 40 0 0 0 187.22546653899863 9.79334107942512 L 199.76556796663652 8.51366206436971 L 199.76556796663652 8.51366206436971"/><polygon points="-24.8621506177483,0 -27.62461179749811,9.20820393249937 0,0 -27.62461179749811,-9.20820393249937" fill="#000000" transform="translate(283.19444704629103 0) rotate(-5.826689442008371) translate(-59 0)" stroke="none"/></g><g transform="translate(345 -91.59722352314549) rotate(90) translate(0 -13)"><g transform="translate(0 0)"><g transform="translate(-51.34166717529297 0)" fill="#ffffff" stroke="#000000" stroke-width="0"><rect x="0" y="0" width="102.68333435058594" height="26" rx="5" ry="5" stroke="none"/><text xml:space="preserve" x="5" y="17.5" stroke="none" text-anchor="left" font-family="sans-serif" font-size="16" font-weight="normal" fill="#000000">Internalizes</text></g></g></g></g><g class="relationship"><g transform="translate(335 -233.194447046291) rotate(156.9159803971893)" stroke-width="5" stroke="#000000"><path d="M 59 0 L 103.5516330175023 0"/><polygon points="-24.8621506177483,0 -27.62461179749811,9.20820393249937 0,0 -27.62461179749811,-9.20820393249937" fill="#000000" transform="translate(128.41378363525058 0) rotate(0)" stroke="none"/></g></g><g class="relationship"><g transform="translate(335 -233.194447046291) rotate(-156.91598039718892)" stroke-width="5" stroke="#000000"><path d="M 59 0 L 103.55163301750281 0"/><polygon points="-24.8621506177483,0 -27.62461179749811,9.20820393249937 0,0 -27.62461179749811,-9.20820393249937" fill="#000000" transform="translate(128.4137836352511 0) rotate(0)" stroke="none"/></g></g><g class="relationship"><g transform="translate(335 -233.194447046291) rotate(-111.4329196841955)" stroke-width="5" stroke="#000000"><path d="M 59 0 L 106.48799894474516 0"/><polygon points="-24.8621506177483,0 -27.62461179749811,9.20820393249937 0,0 -27.62461179749811,-9.20820393249937" fill="#000000" transform="translate(131.35014956249344 0) rotate(0)" stroke="none"/></g></g><g class="relationship"><g transform="translate(335 -233.194447046291) rotate(-69.2520588084333)" stroke-width="5" stroke="#000000"><path d="M 59 0 L 103.5516330175023 0"/><polygon points="-24.8621506177483,0 -27.62461179749811,9.20820393249937 0,0 -27.62461179749811,-9.20820393249937" fill="#000000" transform="translate(128.41378363525058 0) rotate(0)" stroke="none"/></g></g><g class="relationship"><g transform="translate(335 -233.194447046291) rotate(-23.08401960281111)" stroke-width="5" stroke="#000000"><path d="M 59 0 L 103.55163301750252 0"/><polygon points="-24.8621506177483,0 -27.62461179749811,9.20820393249937 0,0 -27.62461179749811,-9.20820393249937" fill="#000000" transform="translate(128.4137836352508 0) rotate(0)" stroke="none"/></g></g><g class="relationship"><g transform="translate(335 -233.194447046291) rotate(23.084019602811043)" stroke-width="5" stroke="#000000"><path d="M 59 0 L 103.55163301750281 0"/><polygon points="-24.8621506177483,0 -27.62461179749811,9.20820393249937 0,0 -27.62461179749811,-9.20820393249937" fill="#000000" transform="translate(128.4137836352511 0) rotate(0)" stroke="none"/></g></g><g class="relationship"><g transform="translate(595 50.000000000000036) rotate(-38.708850548235)" stroke-width="5" stroke="#000000"><path d="M 59 0 L 176.13784938225177 0"/><polygon points="-24.8621506177483,0 -27.62461179749811,9.20820393249937 0,0 -27.62461179749811,-9.20820393249937" fill="#000000" transform="translate(201.00000000000006 0) rotate(0)" stroke="none"/></g><g transform="translate(686.7430076519064 -23.52327930669211) rotate(-38.708850548235) translate(0 -13)"><g transform="translate(0 0)"><g transform="translate(-38.36666488647461 0)" fill="#ffffff" stroke="#000000" stroke-width="0"><rect x="0" y="0" width="76.73332977294922" height="26" rx="5" ry="5" stroke="none"/><text xml:space="preserve" x="5" y="17.5" stroke="none" text-anchor="left" font-family="sans-serif" font-size="16" font-weight="normal" fill="#000000">Corrects</text></g></g></g></g><g class="relationship"><g transform="translate(595 50.000000000000036) rotate(47.31981436319456)" stroke-width="5" stroke="#000000"><path d="M 59 0 L 205.31193845911574 0"/><polygon points="-24.8621506177483,0 -27.62461179749811,9.20820393249937 0,0 -27.62461179749811,-9.20820393249937" fill="#000000" transform="translate(230.17408907686405 0) rotate(0)" stroke="none"/></g><g transform="translate(684.5892553373353 147.15433871477677) rotate(47.31981436319456) translate(0 -13)"><g transform="translate(0 0)"><g transform="translate(-37.358333587646484 0)" fill="#ffffff" stroke="#000000" stroke-width="0"><rect x="0" y="0" width="74.71666717529297" height="26" rx="5" ry="5" stroke="none"/><text xml:space="preserve" x="5" y="17.5" stroke="none" text-anchor="left" font-family="sans-serif" font-size="16" font-weight="normal" fill="#000000">Clarifies</text></g></g></g></g><g class="relationship"><g transform="translate(595 50.000000000000036) rotate(90)" stroke-width="5" stroke="#000000"><path d="M 59 0 L 176.13784938225172 0"/><polygon points="-24.8621506177483,0 -27.62461179749811,9.20820393249937 0,0 -27.62461179749811,-9.20820393249937" fill="#000000" transform="translate(201 0) rotate(0)" stroke="none"/></g><g transform="translate(595 167.5689246911259) rotate(270) translate(0 -13)"><g transform="translate(0 0)"><g transform="translate(-34.61666679382324 0)" fill="#ffffff" stroke="#000000" stroke-width="0"><rect x="0" y="0" width="69.23333358764648" height="26" rx="5" ry="5" stroke="none"/><text xml:space="preserve" x="5" y="17.5" stroke="none" text-anchor="left" font-family="sans-serif" font-size="16" font-weight="normal" fill="#000000">Retains</text></g></g></g></g><g class="relationship"><g transform="translate(1173.3481781537282 50) rotate(-52.057776546340754)" stroke-width="5" stroke="#000000"><path d="M 59 0 L 161.61109250372942 0"/><polygon points="-24.8621506177483,0 -27.62461179749811,9.20820393249937 0,0 -27.62461179749811,-9.20820393249937" fill="#000000" transform="translate(186.47324312147774 0) rotate(0)" stroke="none"/></g></g><g class="relationship"><g transform="translate(1173.3481781537282 50) rotate(-90)" stroke-width="5" stroke="#000000"><path d="M 59 0 L 125.8509964204216 0"/><polygon points="-24.8621506177483,0 -27.62461179749811,9.20820393249937 0,0 -27.62461179749811,-9.20820393249937" fill="#000000" transform="translate(150.7131470381699 0) rotate(0)" stroke="none"/></g></g><g class="relationship"><g transform="translate(1173.3481781537282 50) rotate(-127.94222345365924)" stroke-width="5" stroke="#000000"><path d="M 59 0 L 161.61109250372942 0"/><polygon points="-24.8621506177483,0 -27.62461179749811,9.20820393249937 0,0 -27.62461179749811,-9.20820393249937" fill="#000000" transform="translate(186.47324312147774 0) rotate(0)" stroke="none"/></g></g><g class="relationship"><g transform="translate(1050.6115565929895 262.58606449255336) rotate(67.44279200555803)" stroke-width="5" stroke="#000000"><path d="M 59 0 L 239.5921705360265 0"/><polygon points="-24.8621506177483,0 -27.62461179749811,9.20820393249937 0,0 -27.62461179749811,-9.20820393249937" fill="#000000" transform="translate(264.4543211537748 0) rotate(0)" stroke="none"/></g><g transform="translate(1107.8823867071917 400.46054760811785) rotate(67.44279200555803) translate(0 -13)"><g transform="translate(0 0)"><g transform="translate(-48.74166488647461 0)" fill="#ffffff" stroke="#000000" stroke-width="0"><rect x="0" y="0" width="97.48332977294922" height="26" rx="5" ry="5" stroke="none"/><text xml:space="preserve" x="5" y="17.5" stroke="none" text-anchor="left" font-family="sans-serif" font-size="16" font-weight="normal" fill="#000000">Aligns with</text></g></g></g></g><g class="relationship"><g transform="translate(1050.6115565929895 262.58606449255336) rotate(104.10884176969023)" stroke-width="5" stroke="#000000"><path d="M 59 0 L 274.34535109274475 0"/><polygon points="-24.8621506177483,0 -27.62461179749811,9.20820393249937 0,0 -27.62461179749811,-9.20820393249937" fill="#000000" transform="translate(299.20750171049303 0) rotate(0)" stroke="none"/></g><g transform="translate(1009.9826455758039 424.23096037035066) rotate(284.10884176969023) translate(0 -13)"><g transform="translate(0 0)"><g transform="translate(-97.86666870117188 0)" fill="#ffffff" stroke="#000000" stroke-width="0"><rect x="0" y="0" width="195.73333740234375" height="26" rx="5" ry="5" stroke="none"/><text xml:space="preserve" x="5" y="17.5" stroke="none" text-anchor="left" font-family="sans-serif" font-size="16" font-weight="normal" fill="#000000">Successfully enhances </text></g></g></g></g><g class="relationship"><g transform="translate(1296.084799714467 262.5860644925533) rotate(112.11665151227447)" stroke-width="5" stroke="#000000"><path d="M 59 0 L 238.5718731306284 0"/><polygon points="-24.8621506177483,0 -27.62461179749811,9.20820393249937 0,0 -27.62461179749811,-9.20820393249937" fill="#000000" transform="translate(263.4340237483767 0) rotate(0)" stroke="none"/></g><g transform="translate(1240.067858962656 400.42422056127685) rotate(292.1166515122744) translate(0 -13)"><g transform="translate(0 0)"><g transform="translate(-61.32500076293945 0)" fill="#ffffff" stroke="#000000" stroke-width="0"><rect x="0" y="0" width="122.6500015258789" height="26" rx="5" ry="5" stroke="none"/><text xml:space="preserve" x="5" y="17.5" stroke="none" text-anchor="left" font-family="sans-serif" font-size="16" font-weight="normal" fill="#000000">Deviates from</text></g></g></g></g><g class="relationship"><g transform="translate(1296.084799714467 262.5860644925533) rotate(49.54403328883928)" stroke-width="5" stroke="#000000"><path d="M 59 0 L 213.17956250030917 0"/><polygon points="-24.8621506177483,0 -27.62461179749811,9.20820393249937 0,0 -27.62461179749811,-9.20820393249937" fill="#000000" transform="translate(238.0417131180575 0) rotate(0)" stroke="none"/></g><g transform="translate(1384.3884867191643 366.1374402540147) rotate(49.54403328883928) translate(0 -13)"><g transform="translate(0 0)"><g transform="translate(-22.383333206176758 0)" fill="#ffffff" stroke="#000000" stroke-width="0"><rect x="0" y="0" width="44.766666412353516" height="26" rx="5" ry="5" stroke="none"/><text xml:space="preserve" x="5" y="17.5" stroke="none" text-anchor="left" font-family="sans-serif" font-size="16" font-weight="normal" fill="#000000">Fails</text></g></g></g></g><g class="relationship"><g transform="translate(1488.8243149195166 488.6065472162056) rotate(166.97141506540413)" stroke-width="5" stroke="#000000"><path d="M 59 0 L 238.57187313062846 0"/><polygon points="-24.8621506177483,0 -27.62461179749811,9.20820393249937 0,0 -27.62461179749811,-9.20820393249937" fill="#000000" transform="translate(263.4340237483768 0) rotate(0)" stroke="none"/></g><g transform="translate(1343.8684683117062 522.1484233389072) rotate(346.9714150654042) translate(0 -13)"><g transform="translate(0 0)"><g transform="translate(-61.32500076293945 0)" fill="#ffffff" stroke="#000000" stroke-width="0"><rect x="0" y="0" width="122.6500015258789" height="26" rx="5" ry="5" stroke="none"/><text xml:space="preserve" x="5" y="17.5" stroke="none" text-anchor="left" font-family="sans-serif" font-size="16" font-weight="normal" fill="#000000">Deviates from</text></g></g></g></g><g class="relationship"><g transform="translate(1488.8243149195166 488.6065472162056) rotate(-104.58884277388023)" stroke-width="5" stroke="#000000"><path d="M 59 0 L 569.3943922462132 0"/><polygon points="-24.8621506177483,0 -27.62461179749811,9.20820393249937 0,0 -27.62461179749811,-9.20820393249937" fill="#000000" transform="translate(594.2565428639615 0) rotate(0)" stroke="none"/></g><g transform="translate(1409.6840388830774 184.53962241099413) rotate(75.41115722611977) translate(0 -13)"><g transform="translate(0 0)"><g transform="translate(-22.383333206176758 0)" fill="#ffffff" stroke="#000000" stroke-width="0"><rect x="0" y="0" width="44.766666412353516" height="26" rx="5" ry="5" stroke="none"/><text xml:space="preserve" x="5" y="17.5" stroke="none" text-anchor="left" font-family="sans-serif" font-size="16" font-weight="normal" fill="#000000">Fails</text></g></g></g></g><g class="relationship"><g transform="translate(1296.084799714467 262.5860644925533) rotate(15.975365325304065)" stroke-width="5" stroke="#000000"><path d="M 59 0 L 213.17956250030917 0"/><polygon points="-24.8621506177483,0 -27.62461179749811,9.20820393249937 0,0 -27.62461179749811,-9.20820393249937" fill="#000000" transform="translate(238.0417131180575 0) rotate(0)" stroke="none"/></g><g transform="translate(1426.9188098169102 300.04124252214945) rotate(15.975365325304065) translate(0 -13)"><g transform="translate(0 0)"><g transform="translate(-47.20000076293945 0)" fill="#ffffff" stroke="#000000" stroke-width="0"><rect x="0" y="0" width="94.4000015258789" height="26" rx="5" ry="5" stroke="none"/><text xml:space="preserve" x="5" y="17.5" stroke="none" text-anchor="left" font-family="sans-serif" font-size="16" font-weight="normal" fill="#000000">Introduces</text></g></g></g></g><g class="relationship"><g transform="translate(1296.084799714467 262.5860644925533) rotate(-15.975365325304528)" stroke-width="5" stroke="#000000"><path d="M 59 0 L 213.17956250030986 0"/><polygon points="-24.8621506177483,0 -27.62461179749811,9.20820393249937 0,0 -27.62461179749811,-9.20820393249937" fill="#000000" transform="translate(238.04171311805817 0) rotate(0)" stroke="none"/></g><g transform="translate(1426.9188098169102 225.130886462956) rotate(-15.975365325304528) translate(0 -13)"><g transform="translate(0 0)"><g transform="translate(-22.383333206176758 0)" fill="#ffffff" stroke="#000000" stroke-width="0"><rect x="0" y="0" width="44.766666412353516" height="26" rx="5" ry="5" stroke="none"/><text xml:space="preserve" x="5" y="17.5" stroke="none" text-anchor="left" font-family="sans-serif" font-size="16" font-weight="normal" fill="#000000">Fails</text></g></g></g></g><g class="relationship"><g transform="translate(-306.59583014532416 50.000000000000036) rotate(0)" stroke-width="5" stroke="#000000"><path d="M 59 0 L 193.73367952757584 0"/><polygon points="-24.8621506177483,0 -27.62461179749811,9.20820393249937 0,0 -27.62461179749811,-9.20820393249937" fill="#000000" transform="translate(218.59583014532416 0) rotate(0)" stroke="none"/></g><g transform="translate(-180.22899038153622 50.000000000000036) rotate(0) translate(0 -13)"><g transform="translate(0 0)"><g transform="translate(-29.308332443237305 0)" fill="#ffffff" stroke="#000000" stroke-width="0"><rect x="0" y="0" width="58.61666488647461" height="26" rx="5" ry="5" stroke="none"/><text xml:space="preserve" x="5" y="17.5" stroke="none" text-anchor="left" font-family="sans-serif" font-size="16" font-weight="normal" fill="#000000">Sends</text></g></g></g></g><g class="relationship"><g transform="translate(162.5922715027049 757.6999386185826) rotate(-48.72274462160587)" stroke-width="5" stroke="#000000"><path d="M 59 0 L 177.4791304795939 0"/><polygon points="-24.8621506177483,0 -27.62461179749811,9.20820393249937 0,0 -27.62461179749811,-9.20820393249937" fill="#000000" transform="translate(202.34128109734218 0) rotate(0)" stroke="none"/></g><g transform="translate(240.59531325678637 668.8398223390772) rotate(-48.72274462160587) translate(0 -13)"><g transform="translate(0 0)"><g transform="translate(-50.724998474121094 0)" fill="#ffffff" stroke="#000000" stroke-width="0"><rect x="0" y="0" width="101.44999694824219" height="26" rx="5" ry="5" stroke="none"/><text xml:space="preserve" x="5" y="17.5" stroke="none" text-anchor="left" font-family="sans-serif" font-size="16" font-weight="normal" fill="#000000">Instance_of</text></g></g></g></g><g class="relationship"><g transform="translate(335 808.1859040597956) rotate(-90)" stroke-width="5" stroke="#000000"><path d="M 59 0 L 163.02860183234338 0"/><polygon points="-24.8621506177483,0 -27.62461179749811,9.20820393249937 0,0 -27.62461179749811,-9.20820393249937" fill="#000000" transform="translate(187.89075245009167 0) rotate(0)" stroke="none"/></g><g transform="translate(335 697.1716031436239) rotate(90) translate(0 -13)"><g transform="translate(0 0)"><g transform="translate(-50.724998474121094 0)" fill="#ffffff" stroke="#000000" stroke-width="0"><rect x="0" y="0" width="101.44999694824219" height="26" rx="5" ry="5" stroke="none"/><text xml:space="preserve" x="5" y="17.5" stroke="none" text-anchor="left" font-family="sans-serif" font-size="16" font-weight="normal" fill="#000000">Instance_of</text></g></g></g></g><g class="relationship"><g transform="translate(507.40772849729524 757.6999386185826) rotate(-131.27725537839416)" stroke-width="5" stroke="#000000"><path d="M 59 0 L 177.479130479594 0"/><polygon points="-24.8621506177483,0 -27.62461179749811,9.20820393249937 0,0 -27.62461179749811,-9.20820393249937" fill="#000000" transform="translate(202.3412810973423 0) rotate(0)" stroke="none"/></g><g transform="translate(429.4046867432137 668.8398223390772) rotate(48.722744621605834) translate(0 -13)"><g transform="translate(0 0)"><g transform="translate(-50.724998474121094 0)" fill="#ffffff" stroke="#000000" stroke-width="0"><rect x="0" y="0" width="101.44999694824219" height="26" rx="5" ry="5" stroke="none"/><text xml:space="preserve" x="5" y="17.5" stroke="none" text-anchor="left" font-family="sans-serif" font-size="16" font-weight="normal" fill="#000000">Instance_of</text></g></g></g></g><g class="relationship"><g transform="translate(335 292.3369340626792) rotate(-90)" stroke-width="5" stroke="#000000"><path d="M 59 0 L 158.47478344493084 0"/><polygon points="-24.8621506177483,0 -27.62461179749811,9.20820393249937 0,0 -27.62461179749811,-9.20820393249937" fill="#000000" transform="translate(183.33693406267915 0) rotate(0)" stroke="none"/></g><g transform="translate(335 183.59954234021376) rotate(90) translate(0 -13)"><g transform="translate(0 0)"><g transform="translate(-35.24166679382324 0)" fill="#ffffff" stroke="#000000" stroke-width="0"><rect x="0" y="0" width="70.48333358764648" height="26" rx="5" ry="5" stroke="none"/><text xml:space="preserve" x="5" y="17.5" stroke="none" text-anchor="left" font-family="sans-serif" font-size="16" font-weight="normal" fill="#000000">Informs</text></g></g></g></g><g class="relationship"><g transform="translate(335 561.2951516097039) rotate(-90)" stroke-width="5" stroke="#000000"><path d="M 59 0 L 185.09606692927645 0"/><polygon points="-24.8621506177483,0 -27.62461179749811,9.20820393249937 0,0 -27.62461179749811,-9.20820393249937" fill="#000000" transform="translate(209.95821754702473 0) rotate(0)" stroke="none"/></g><g transform="translate(335 439.24711814506566) rotate(90) translate(0 -13)"><g transform="translate(0 0)"><g transform="translate(-38.81666564941406 0)" fill="#ffffff" stroke="#000000" stroke-width="0"><rect x="0" y="0" width="77.63333129882812" height="26" rx="5" ry="5" stroke="none"/><text xml:space="preserve" x="5" y="17.5" stroke="none" text-anchor="left" font-family="sans-serif" font-size="16" font-weight="normal" fill="#000000">Provides</text></g></g></g></g><g class="relationship"><g transform="translate(-306.59583014532416 50.000000000000036) rotate(38.55174741612555)" stroke-width="5" stroke="#000000"><path d="M 59 0 L 736.5450295796569 0"/><polygon points="-24.8621506177483,0 -27.62461179749811,9.20820393249937 0,0 -27.62461179749811,-9.20820393249937" fill="#000000" transform="translate(761.4071801974052 0) rotate(0)" stroke="none"/></g><g transform="translate(4.4804171081008235 297.9002660687364) rotate(38.55174741612555) translate(0 -13)"><g transform="translate(0 0)"><g transform="translate(-37.13333511352539 0)" fill="#ffffff" stroke="#000000" stroke-width="0"><rect x="0" y="0" width="74.26667022705078" height="26" rx="5" ry="5" stroke="none"/><text xml:space="preserve" x="5" y="17.5" stroke="none" text-anchor="left" font-family="sans-serif" font-size="16" font-weight="normal" fill="#000000">Initiates</text></g></g></g></g><g class="relationship"><g transform="translate(335 561.2951516097039) rotate(-17.265458371444065)" stroke-width="5" stroke="#000000"><path d="M 59 0 L 922.5727012075243 0"/><polygon points="-24.8621506177483,0 -27.62461179749811,9.20820393249937 0,0 -27.62461179749811,-9.20820393249937" fill="#000000" transform="translate(947.4348518252726 0) rotate(0)" stroke="none"/></g><g transform="translate(803.6714700083743 415.6301416067919) rotate(-17.265458371444065) translate(0 -13)"><g transform="translate(0 0)"><g transform="translate(-31.71666717529297 0)" fill="#ffffff" stroke="#000000" stroke-width="0"><rect x="0" y="0" width="63.43333435058594" height="26" rx="5" ry="5" stroke="none"/><text xml:space="preserve" x="5" y="17.5" stroke="none" text-anchor="left" font-family="sans-serif" font-size="16" font-weight="normal" fill="#000000">Due to</text></g></g></g></g><g class="node"><g fill="#ffffff" stroke="#000000" stroke-width="4"><circle cx="335" cy="50.000000000000036" r="52"/></g><g transform="translate(335 50.000000000000036)"><g transform="scale(1) translate(0 0)"><g transform="translate(0 0)"><g font-family="sans-serif" font-size="50" font-weight="normal" fill="#000000" text-anchor="middle"><text xml:space="preserve" x="0" y="14.5" stroke="none">AI</text></g></g></g></g></g><g class="node"><g fill="#ffffff" stroke="#000000" stroke-width="4"><circle cx="595" cy="50.000000000000036" r="52"/></g><g transform="translate(595 50.000000000000036)"><g transform="scale(0.27734447265624995) translate(0 0)"><g transform="translate(0 0)"><g font-family="sans-serif" font-size="50" font-weight="normal" fill="#000000" text-anchor="middle"><text xml:space="preserve" x="0" y="-45.5" stroke="none">AI</text><text xml:space="preserve" x="0" y="14.5" stroke="none" text-anchor="middle">Proofreading</text><text xml:space="preserve" x="0" y="74.5" stroke="none" text-anchor="middle">Task</text></g></g></g></g></g><g class="node"><g fill="#cccccc" stroke="#000000" stroke-width="4"><circle cx="884.1740890768641" cy="50" r="52"/></g><g transform="translate(884.1740890768641 50)"><g transform="scale(0.48046926953125) translate(0 0)"><g transform="translate(0 0)"><g font-family="sans-serif" font-size="50" font-weight="normal" fill="#000000" text-anchor="middle"><text xml:space="preserve" x="0" y="-45.5" stroke="none">AI</text><text xml:space="preserve" x="0" y="14.5" stroke="none" text-anchor="middle">Output</text></g></g></g></g></g><g class="node"><g fill="#ffffff" stroke="#000000" stroke-width="4"><circle cx="1173.3481781537282" cy="50" r="52"/></g><g transform="translate(1173.3481781537282 50)"><g transform="scale(0.29296945703125) translate(0 0)"><g transform="translate(0 0)"><g font-family="sans-serif" font-size="50" font-weight="normal" fill="#000000" text-anchor="middle"><text xml:space="preserve" x="0" y="-45.5" stroke="none">Outcome</text><text xml:space="preserve" x="0" y="14.5" stroke="none" text-anchor="middle">Assessment</text></g></g></g></g></g><g class="node"><g fill="#ffffff" stroke="#000000" stroke-width="4"><circle cx="1050.6115565929895" cy="262.58606449255336" r="52"/></g><g transform="translate(1050.6115565929895 262.58606449255336)"><g transform="scale(0.15145422146341816) translate(0 -149)"><g transform="translate(0 0)"><g fill="#000000" font-family="sans-serif" font-size="100" font-weight="normal" text-anchor="middle"><text xml:space="preserve" x="0" y="89" stroke="none">Good</text><text xml:space="preserve" x="0" y="209" stroke="none" text-anchor="middle">Outcome</text></g></g><g transform="translate(0 244)"><g transform="translate(-257.05833435058594 0)"><g fill="#ffffff" stroke="#000000" stroke-width="4"><rect x="0" y="0" width="514.1166687011719" height="54" rx="27" ry="27"/><text xml:space="preserve" x="27" y="39" stroke="none" font-family="sans-serif" font-size="40" font-weight="normal" fill="#000000">Meets all requirements</text></g></g></g></g></g></g><g class="node"><g fill="#ffffff" stroke="#000000" stroke-width="4"><circle cx="1296.084799714467" cy="262.5860644925533" r="52"/></g><g transform="translate(1296.084799714467 262.5860644925533)"><g transform="scale(0.12146056456036612) translate(0 -149)"><g transform="translate(0 0)"><g fill="#000000" font-family="sans-serif" font-size="100" font-weight="normal" text-anchor="middle"><text xml:space="preserve" x="0" y="89" stroke="none">Bad</text><text xml:space="preserve" x="0" y="209" stroke="none" text-anchor="middle">Outcome</text></g></g><g transform="translate(0 244)"><g transform="translate(-339.2083435058594 0)"><g fill="#ffffff" stroke="#000000" stroke-width="4"><rect x="0" y="0" width="678.4166870117188" height="54" rx="27" ry="27"/><text xml:space="preserve" x="27" y="39" stroke="none" font-family="sans-serif" font-size="40" font-weight="normal" fill="#000000">Fails one or more requirements</text></g></g></g></g></g></g><g class="node"><g fill="#ffffff" stroke="#000000" stroke-width="4"><circle cx="335" cy="561.2951516097039" r="52"/></g><g transform="translate(335 561.2951516097039)"><g transform="scale(0.14829693829955576) translate(0 -89)"><g transform="translate(0 0)"><g fill="#000000" font-family="sans-serif" font-size="50" font-weight="normal" text-anchor="middle"><text xml:space="preserve" x="0" y="44.5" stroke="none">Feedback</text><text xml:space="preserve" x="0" y="104.5" stroke="none" text-anchor="middle">Loop</text></g></g><g transform="translate(0 124)"><g transform="translate(-290.1000061035156 0)"><g fill="#ffffff" stroke="#000000" stroke-width="4"><rect x="0" y="0" width="580.2000122070312" height="54" rx="27" ry="27"/><text xml:space="preserve" x="27" y="39" stroke="none" font-family="sans-serif" font-size="40" font-weight="normal" fill="#000000">Improvement Suggestions</text></g></g></g></g></g></g><g class="node"><g fill="#cccccc" stroke="#000000" stroke-width="4"><circle cx="-29" cy="50.000000000000036" r="52"/></g><g transform="translate(-29 50.000000000000036)"><g transform="scale(0.47265677734375) translate(0 0)"><g transform="translate(0 0)"><g font-family="sans-serif" font-size="50" font-weight="normal" fill="#000000" text-anchor="middle"><text xml:space="preserve" x="0" y="14.5" stroke="none">Prompt</text></g></g></g></g></g><g class="node"><g fill="#ffffff" stroke="#000000" stroke-width="4"><circle cx="335" cy="-233.194447046291" r="52"/></g><g transform="translate(335 -233.194447046291)"><g transform="scale(0.298828826171875) translate(0 0)"><g transform="translate(0 0)"><g font-family="sans-serif" font-size="50" font-weight="normal" fill="#000000" text-anchor="middle"><text xml:space="preserve" x="0" y="14.5" stroke="none">Instructions</text></g></g></g></g></g><g class="node"><g fill="#ffffff" stroke="#000000" stroke-width="4"><circle cx="162.5922715027049" cy="-159.7131470381699" r="52"/></g><g transform="translate(162.5922715027049 -159.7131470381699)"><g transform="scale(0.232422642578125) translate(0 0)"><g transform="translate(0 0)"><g font-family="sans-serif" font-size="50" font-weight="normal" fill="#000000" text-anchor="middle"><text xml:space="preserve" x="0" y="-105.5" stroke="none">Retention</text><text xml:space="preserve" x="0" y="-45.5" stroke="none" text-anchor="middle">of original</text><text xml:space="preserve" x="0" y="14.5" stroke="none" text-anchor="middle">content's</text><text xml:space="preserve" x="0" y="74.5" stroke="none" text-anchor="middle">depth and</text><text xml:space="preserve" x="0" y="134.5" stroke="none" text-anchor="middle">detail.</text></g></g></g></g></g><g class="node"><g fill="#ffffff" stroke="#000000" stroke-width="4"><circle cx="162.5922715027049" cy="-306.6757470544134" r="52"/></g><g transform="translate(162.5922715027049 -306.6757470544134)"><g transform="scale(0.24414138085937498) translate(0 0)"><g transform="translate(0 0)"><g font-family="sans-serif" font-size="50" font-weight="normal" fill="#000000" text-anchor="middle"><text xml:space="preserve" x="0" y="-15.5" stroke="none">Enhancement</text><text xml:space="preserve" x="0" y="44.5" stroke="none" text-anchor="middle">of readability</text><text xml:space="preserve" x="0" y="104.5" stroke="none" text-anchor="middle">and flow.</text></g></g></g></g></g><g class="node"><g fill="#ffffff" stroke="#000000" stroke-width="4"><circle cx="265.4438342291261" cy="-410.3811261215486" r="52"/></g><g transform="translate(265.4438342291261 -410.3811261215486)"><g transform="scale(0.28125071874999996) translate(0 0)"><g transform="translate(0 0)"><g font-family="sans-serif" font-size="50" font-weight="normal" fill="#000000" text-anchor="middle"><text xml:space="preserve" x="0" y="-15.5" stroke="none">Compliance</text><text xml:space="preserve" x="0" y="44.5" stroke="none" text-anchor="middle">with token</text><text xml:space="preserve" x="0" y="104.5" stroke="none" text-anchor="middle">limits.</text></g></g></g></g></g><g class="node"><g fill="#ffffff" stroke="#000000" stroke-width="4"><circle cx="401.3927263808621" cy="-408.4540607061314" r="52"/></g><g transform="translate(401.3927263808621 -408.4540607061314)"><g transform="scale(0.20703204296875) translate(0 0)"><g transform="translate(0 0)"><g font-family="sans-serif" font-size="50" font-weight="normal" fill="#000000" text-anchor="middle"><text xml:space="preserve" x="0" y="-105.5" stroke="none">Preservation</text><text xml:space="preserve" x="0" y="-45.5" stroke="none" text-anchor="middle">of document's</text><text xml:space="preserve" x="0" y="14.5" stroke="none" text-anchor="middle">original</text><text xml:space="preserve" x="0" y="74.5" stroke="none" text-anchor="middle">formatting and</text><text xml:space="preserve" x="0" y="134.5" stroke="none" text-anchor="middle">structure.</text></g></g></g></g></g><g class="node"><g fill="#ffffff" stroke="#000000" stroke-width="4"><circle cx="507.4077284972948" cy="-306.6757470544134" r="52"/></g><g transform="translate(507.4077284972948 -306.6757470544134)"><g transform="scale(0.24414138085937498) translate(0 0)"><g transform="translate(0 0)"><g font-family="sans-serif" font-size="50" font-weight="normal" fill="#000000" text-anchor="middle"><text xml:space="preserve" x="0" y="-45.5" stroke="none">Avoidance of</text><text xml:space="preserve" x="0" y="14.5" stroke="none" text-anchor="middle">unwarranted</text><text xml:space="preserve" x="0" y="74.5" stroke="none" text-anchor="middle">alterations.</text></g></g></g></g></g><g class="node"><g fill="#ffffff" stroke="#000000" stroke-width="4"><circle cx="507.4077284972951" cy="-159.7131470381687" r="52"/></g><g transform="translate(507.4077284972951 -159.7131470381687)"><g transform="scale(0.22265702734374998) translate(0 0)"><g transform="translate(0 0)"><g font-family="sans-serif" font-size="50" font-weight="normal" fill="#000000" text-anchor="middle"><text xml:space="preserve" x="0" y="-105.5" stroke="none">Abstaining</text><text xml:space="preserve" x="0" y="-45.5" stroke="none" text-anchor="middle">from</text><text xml:space="preserve" x="0" y="14.5" stroke="none" text-anchor="middle">summarization</text><text xml:space="preserve" x="0" y="74.5" stroke="none" text-anchor="middle">unless</text><text xml:space="preserve" x="0" y="134.5" stroke="none" text-anchor="middle">requested.</text></g></g></g></g></g><g class="node"><g fill="#ffffff" stroke="#000000" stroke-width="4"><circle cx="797.8867921703134" cy="-112.5944327547536" r="52"/></g><g transform="translate(797.8867921703134 -112.5944327547536)"><g transform="scale(0.27343822656249994) translate(0 0)"><g transform="translate(0 0)"><g font-family="sans-serif" font-size="50" font-weight="normal" fill="#000000" text-anchor="middle"><text xml:space="preserve" x="0" y="14.5" stroke="none">Grammatical</text><text xml:space="preserve" x="0" y="74.5" stroke="none" text-anchor="middle">errors</text></g></g></g></g></g><g class="node"><g fill="#ffffff" stroke="#000000" stroke-width="4"><circle cx="791.032698744373" cy="262.5860644925533" r="52"/></g><g transform="translate(791.032698744373 262.5860644925533)"><g transform="scale(0.294922580078125) translate(0 0)"><g transform="translate(0 0)"><g font-family="sans-serif" font-size="50" font-weight="normal" fill="#000000" text-anchor="middle"><text xml:space="preserve" x="0" y="-15.5" stroke="none">Ambiguous</text><text xml:space="preserve" x="0" y="44.5" stroke="none" text-anchor="middle">sentences</text></g></g></g></g></g><g class="node"><g fill="#ffffff" stroke="#000000" stroke-width="4"><circle cx="595" cy="310.00000000000006" r="52"/></g><g transform="translate(595 310.00000000000006)"><g transform="scale(0.33203191796875) translate(0 0)"><g transform="translate(0 0)"><g font-family="sans-serif" font-size="50" font-weight="normal" fill="#000000" text-anchor="middle"><text xml:space="preserve" x="0" y="-45.5" stroke="none">Original</text><text xml:space="preserve" x="0" y="14.5" stroke="none" text-anchor="middle">formatting</text></g></g></g></g></g><g class="node"><g fill="#ffffff" stroke="#000000" stroke-width="4"><circle cx="1324.2814616961941" cy="-143.58785346107257" r="52"/></g><g transform="translate(1324.2814616961941 -143.58785346107257)"><g transform="scale(0.25000075) translate(0 0)"><g transform="translate(0 0)"><g font-family="sans-serif" font-size="50" font-weight="normal" fill="#000000" text-anchor="middle"><text xml:space="preserve" x="0" y="-75.5" stroke="none">Adherence</text><text xml:space="preserve" x="0" y="-15.5" stroke="none" text-anchor="middle">to original</text><text xml:space="preserve" x="0" y="44.5" stroke="none" text-anchor="middle">content's</text><text xml:space="preserve" x="0" y="104.5" stroke="none" text-anchor="middle">integrity</text></g></g></g></g></g><g class="node"><g fill="#ffffff" stroke="#000000" stroke-width="4"><circle cx="1173.3481781537282" cy="-159.7131470381699" r="52"/></g><g transform="translate(1173.3481781537282 -159.7131470381699)"><g transform="scale(0.27929759570312496) translate(0 0)"><g transform="translate(0 0)"><g font-family="sans-serif" font-size="50" font-weight="normal" fill="#000000" text-anchor="middle"><text xml:space="preserve" x="0" y="-45.5" stroke="none">Quality of</text><text xml:space="preserve" x="0" y="14.5" stroke="none" text-anchor="middle">readability</text><text xml:space="preserve" x="0" y="74.5" stroke="none" text-anchor="middle">and clarity</text></g></g></g></g></g><g class="node"><g fill="#ffffff" stroke="#000000" stroke-width="4"><circle cx="1022.4148946112623" cy="-143.58785346107257" r="52"/></g><g transform="translate(1022.4148946112623 -143.58785346107257)"><g transform="scale(0.234375765625) translate(0 0)"><g transform="translate(0 0)"><g font-family="sans-serif" font-size="50" font-weight="normal" fill="#000000" text-anchor="middle"><text xml:space="preserve" x="0" y="-75.5" stroke="none">Observance</text><text xml:space="preserve" x="0" y="-15.5" stroke="none" text-anchor="middle">of token limit</text><text xml:space="preserve" x="0" y="44.5" stroke="none" text-anchor="middle">and format</text><text xml:space="preserve" x="0" y="104.5" stroke="none" text-anchor="middle">consistency</text></g></g></g></g></g><g class="node"><g fill="#ffffff" stroke="#000000" stroke-width="4"><circle cx="1174.6904796487927" cy="561.2951516097038" r="52"/></g><g transform="translate(1174.6904796487927 561.2951516097038)"><g transform="scale(0.30078194921875) translate(0 0)"><g transform="translate(0 0)"><g font-family="sans-serif" font-size="50" font-weight="normal" fill="#000000" text-anchor="middle"><text xml:space="preserve" x="0" y="-45.5" stroke="none">User's</text><text xml:space="preserve" x="0" y="14.5" stroke="none" text-anchor="middle">instructions</text></g></g></g></g></g><g class="node"><g fill="#ffffff" stroke="#000000" stroke-width="4"><circle cx="963.2932204291544" cy="609.9880254128285" r="52"/></g><g transform="translate(963.2932204291544 609.9880254128285)"><g transform="scale(0.25000075) translate(0 0)"><g transform="translate(0 0)"><g font-family="sans-serif" font-size="50" font-weight="normal" fill="#000000" text-anchor="middle"><text xml:space="preserve" x="0" y="-105.5" stroke="none">Original</text><text xml:space="preserve" x="0" y="-45.5" stroke="none" text-anchor="middle">content</text><text xml:space="preserve" x="0" y="14.5" stroke="none" text-anchor="middle">without loss</text><text xml:space="preserve" x="0" y="74.5" stroke="none" text-anchor="middle">or distortion</text></g></g></g></g></g><g class="node"><g fill="#ffffff" stroke="#000000" stroke-width="4"><circle cx="1488.8243149195166" cy="488.6065472162056" r="52"/></g><g transform="translate(1488.8243149195166 488.6065472162056)"><g transform="scale(0.1865242509765625) translate(0 0)"><g transform="translate(0 0)"><g font-family="sans-serif" font-size="50" font-weight="normal" fill="#000000" text-anchor="middle"><text xml:space="preserve" x="0" y="-135.5" stroke="none">Adds, omits</text><text xml:space="preserve" x="0" y="-75.5" stroke="none" text-anchor="middle">or fabricates</text><text xml:space="preserve" x="0" y="-15.5" stroke="none" text-anchor="middle">content resulting</text><text xml:space="preserve" x="0" y="44.5" stroke="none" text-anchor="middle">in a divergence</text><text xml:space="preserve" x="0" y="104.5" stroke="none" text-anchor="middle">from the original</text><text xml:space="preserve" x="0" y="164.5" stroke="none" text-anchor="middle">intent.</text></g></g></g></g></g><g class="node"><g fill="#ffffff" stroke="#000000" stroke-width="4"><circle cx="1581.6547972405729" cy="344.3390818377879" r="52"/></g><g transform="translate(1581.6547972405729 344.3390818377879)"><g transform="scale(0.47265677734375) translate(0 0)"><g transform="translate(0 0)"><g font-family="sans-serif" font-size="50" font-weight="normal" fill="#000000" text-anchor="middle"><text xml:space="preserve" x="0" y="-15.5" stroke="none">New</text><text xml:space="preserve" x="0" y="44.5" stroke="none" text-anchor="middle">errors</text></g></g></g></g></g><g class="node"><g fill="#ffffff" stroke="#000000" stroke-width="4"><circle cx="1581.6547972405729" cy="180.83304714731622" r="52"/></g><g transform="translate(1581.6547972405729 180.83304714731622)"><g transform="scale(0.34765690234375) translate(0 0)"><g transform="translate(0 0)"><g font-family="sans-serif" font-size="50" font-weight="normal" fill="#000000" text-anchor="middle"><text xml:space="preserve" x="0" y="-45.5" stroke="none">Error</text><text xml:space="preserve" x="0" y="14.5" stroke="none" text-anchor="middle">correction</text></g></g></g></g></g><g class="node"><g fill="#ffffff" stroke="#000000" stroke-width="4"><circle cx="-306.59583014532416" cy="50.000000000000036" r="52"/></g><g transform="translate(-306.59583014532416 50.000000000000036)"><g transform="scale(0.6953128046874999) translate(0 0)"><g transform="translate(0 0)"><g font-family="sans-serif" font-size="50" font-weight="normal" fill="#000000" text-anchor="middle"><text xml:space="preserve" x="0" y="14.5" stroke="none">User</text></g></g></g></g></g><g class="node"><g fill="#ffffff" stroke="#000000" stroke-width="4"><circle cx="335" cy="292.3369340626792" r="52"/></g><g transform="translate(335 292.3369340626792)"><g transform="scale(0.36523500976562495) translate(0 0)"><g transform="translate(0 0)"><g font-family="sans-serif" font-size="50" font-weight="normal" fill="#000000" text-anchor="middle"><text xml:space="preserve" x="0" y="14.5" stroke="none">Feedback</text></g></g></g></g></g><g class="node"><g fill="#ffffff" stroke="#000000" stroke-width="4"><circle cx="162.5922715027049" cy="757.6999386185826" r="52"/></g><g transform="translate(162.5922715027049 757.6999386185826)"><g transform="scale(0.19921955078124998) translate(0 0)"><g transform="translate(0 0)"><g font-family="sans-serif" font-size="50" font-weight="normal" fill="#000000" text-anchor="middle"><text xml:space="preserve" x="0" y="-135.5" stroke="none">Specific</text><text xml:space="preserve" x="0" y="-75.5" stroke="none" text-anchor="middle">examples of</text><text xml:space="preserve" x="0" y="-15.5" stroke="none" text-anchor="middle">where the output</text><text xml:space="preserve" x="0" y="44.5" stroke="none" text-anchor="middle">did not meet the</text><text xml:space="preserve" x="0" y="104.5" stroke="none" text-anchor="middle">requirements. </text></g></g></g></g></g><g class="node"><g fill="#ffffff" stroke="#000000" stroke-width="4"><circle cx="335" cy="808.1859040597956" r="52"/></g><g transform="translate(335 808.1859040597956)"><g transform="scale(0.2265632734375) translate(0 0)"><g transform="translate(0 0)"><g font-family="sans-serif" font-size="50" font-weight="normal" fill="#000000" text-anchor="middle"><text xml:space="preserve" x="0" y="-135.5" stroke="none">Clear</text><text xml:space="preserve" x="0" y="-75.5" stroke="none" text-anchor="middle">directions</text><text xml:space="preserve" x="0" y="-15.5" stroke="none" text-anchor="middle">for future</text><text xml:space="preserve" x="0" y="44.5" stroke="none" text-anchor="middle">improvements.</text></g></g></g></g></g><g class="node"><g fill="#ffffff" stroke="#000000" stroke-width="4"><circle cx="507.40772849729524" cy="757.6999386185826" r="52"/></g><g transform="translate(507.40772849729524 757.6999386185826)"><g transform="scale(0.26953198046874993) translate(0 0)"><g transform="translate(0 0)"><g font-family="sans-serif" font-size="50" font-weight="normal" fill="#000000" text-anchor="middle"><text xml:space="preserve" x="0" y="-75.5" stroke="none">Refined</text><text xml:space="preserve" x="0" y="-15.5" stroke="none" text-anchor="middle">instructions</text><text xml:space="preserve" x="0" y="44.5" stroke="none" text-anchor="middle">if necessary.</text></g></g></g></g></g></g></svg>