<svg xmlns="http://www.w3.org/2000/svg" width="696" height="998" viewBox="0 0 696 998"><defs><style type="text/css"/></defs><g transform="translate(68.68909010200775 216.80853695937594) scale(1)"><g class="relationship"><g transform="translate(279 423.12041646091535) rotate(-90)" stroke-width="3" stroke="#000000"><path d="M 59 0 L 179.90083954692287 0"/><polygon points="-18.079611541307905,0 -20.088457268119896,6.696152422706632 0,0 -20.088457268119896,-6.696152422706632" fill="#000000" transform="translate(197.98045108823078 0) rotate(0)" stroke="none"/></g><g transform="translate(279 303.66999668745393) rotate(90) translate(0 -13)"><g transform="translate(0 0)"><g transform="translate(-49.08333206176758 0)" fill="#ffffff" stroke="#000000" stroke-width="0"><rect x="0" y="0" width="98.16666412353516" height="26" rx="5" ry="5" stroke="none"/><text xml:space="preserve" x="5" y="17.5" stroke="none" text-anchor="left" font-family="sans-serif" font-size="16" font-weight="normal" fill="#000000">RETRIEVES</text></g></g></g></g><g class="relationship"><g transform="translate(279 423.12041646091535) rotate(-130.3159142341591)" stroke-width="3" stroke="#000000"><path d="M 59 0 L 226.04080491960698 0"/><polygon points="-18.079611541307905,0 -20.088457268119896,6.696152422706632 0,0 -20.088457268119896,-6.696152422706632" fill="#000000" transform="translate(244.1204164609149 0) rotate(0)" stroke="none"/></g><g transform="translate(186.78907298706721 314.4502270954783) rotate(49.68408576584091) translate(0 -13)"><g transform="translate(0 0)"><g transform="translate(-52.00833511352539 0)" fill="#ffffff" stroke="#000000" stroke-width="0"><rect x="0" y="0" width="104.01667022705078" height="26" rx="5" ry="5" stroke="none"/><text xml:space="preserve" x="5" y="17.5" stroke="none" text-anchor="left" font-family="sans-serif" font-size="16" font-weight="normal" fill="#000000">USES_TOOL</text></g></g></g></g><g class="relationship"><g transform="translate(279 423.12041646091535) rotate(-165.66990864321875)" stroke-width="3" stroke="#000000"><path d="M 59 0 L 226.04080491960738 0"/><polygon points="-18.079611541307905,0 -20.088457268119896,6.696152422706632 0,0 -20.088457268119896,-6.696152422706632" fill="#000000" transform="translate(244.1204164609153 0) rotate(0)" stroke="none"/></g><g transform="translate(140.91399507796356 387.8454910609129) rotate(14.330091356781244) translate(0 -13)"><g transform="translate(0 0)"><g transform="translate(-52.00833511352539 0)" fill="#ffffff" stroke="#000000" stroke-width="0"><rect x="0" y="0" width="104.01667022705078" height="26" rx="5" ry="5" stroke="none"/><text xml:space="preserve" x="5" y="17.5" stroke="none" text-anchor="left" font-family="sans-serif" font-size="16" font-weight="normal" fill="#000000">USES_TOOL</text></g></g></g></g><g class="relationship"><g transform="translate(279 423.12041646091535) rotate(-14.330091356781253)" stroke-width="3" stroke="#000000"><path d="M 59 0 L 226.04080491960738 0"/><polygon points="-18.079611541307905,0 -20.088457268119896,6.696152422706632 0,0 -20.088457268119896,-6.696152422706632" fill="#000000" transform="translate(244.1204164609153 0) rotate(0)" stroke="none"/></g><g transform="translate(417.0860049220364 387.8454910609129) rotate(-14.330091356781253) translate(0 -13)"><g transform="translate(0 0)"><g transform="translate(-41.15833282470703 0)" fill="#ffffff" stroke="#000000" stroke-width="0"><rect x="0" y="0" width="82.31666564941406" height="26" rx="5" ry="5" stroke="none"/><text xml:space="preserve" x="5" y="17.5" stroke="none" text-anchor="left" font-family="sans-serif" font-size="16" font-weight="normal" fill="#000000">REVEALS</text></g></g></g></g><g class="relationship"><g transform="translate(279 423.12041646091535) rotate(54.29207820433183)" stroke-width="3" stroke="#000000"><path d="M 59 0 L 226.0408049196071 0"/><polygon points="-18.079611541307905,0 -20.088457268119896,6.696152422706632 0,0 -20.088457268119896,-6.696152422706632" fill="#000000" transform="translate(244.120416460915 0) rotate(0)" stroke="none"/></g><g transform="translate(362.182529664412 538.8473877162523) rotate(54.29207820433183) translate(0 -13)"><g transform="translate(0 0)"><g transform="translate(-41.15833282470703 0)" fill="#ffffff" stroke="#000000" stroke-width="0"><rect x="0" y="0" width="82.31666564941406" height="26" rx="5" ry="5" stroke="none"/><text xml:space="preserve" x="5" y="17.5" stroke="none" text-anchor="left" font-family="sans-serif" font-size="16" font-weight="normal" fill="#000000">REVEALS</text></g></g></g></g><g class="relationship"><g transform="translate(279 -162.80853695937594) rotate(90)" stroke-width="3" stroke="#000000"><path d="M 59 0 L 201.8688907907526 0"/><polygon points="-18.079611541307905,0 -20.088457268119896,6.696152422706632 0,0 -20.088457268119896,-6.696152422706632" fill="#000000" transform="translate(219.9485023320605 0) rotate(0)" stroke="none"/></g><g transform="translate(279 -32.37409156399963) rotate(270) translate(0 -13)"><g transform="translate(0 0)"><g transform="translate(-59.641666412353516 0)" fill="#ffffff" stroke="#000000" stroke-width="0"><rect x="0" y="0" width="119.28333282470703" height="26" rx="5" ry="5" stroke="none"/><text xml:space="preserve" x="5" y="17.5" stroke="none" text-anchor="left" font-family="sans-serif" font-size="16" font-weight="normal" fill="#000000">MODELED_AS</text></g></g></g></g><g class="relationship"><g transform="translate(279 423.12041646091535) rotate(158.9760969477216)" stroke-width="3" stroke="#000000"><path d="M 59 0 L 226.04080491960738 0"/><polygon points="-18.079611541307905,0 -20.088457268119896,6.696152422706632 0,0 -20.088457268119896,-6.696152422706632" fill="#000000" transform="translate(244.1204164609153 0) rotate(0)" stroke="none"/></g><g transform="translate(145.96706118264572 474.25066491447257) rotate(338.9760969477216) translate(0 -13)"><g transform="translate(0 0)"><g transform="translate(-85.08333587646484 0)" fill="#ffffff" stroke="#000000" stroke-width="0"><rect x="0" y="0" width="170.1666717529297" height="26" rx="5" ry="5" stroke="none"/><text xml:space="preserve" x="5" y="17.5" stroke="none" text-anchor="left" font-family="sans-serif" font-size="16" font-weight="normal" fill="#000000">ADDS_CONTEXT_TO</text></g></g></g></g><g class="relationship"><g transform="translate(279 423.12041646091535) rotate(90)" stroke-width="3" stroke="#000000"><path d="M 59 0 L 226.04080491960733 0"/><polygon points="-18.079611541307905,0 -20.088457268119896,6.696152422706632 0,0 -20.088457268119896,-6.696152422706632" fill="#000000" transform="translate(244.12041646091524 0) rotate(0)" stroke="none"/></g><g transform="translate(279 565.6408189207191) rotate(270) translate(0 -13)"><g transform="translate(0 0)"><g transform="translate(-41.599998474121094 0)" fill="#ffffff" stroke="#000000" stroke-width="0"><rect x="0" y="0" width="83.19999694824219" height="26" rx="5" ry="5" stroke="none"/><text xml:space="preserve" x="5" y="17.5" stroke="none" text-anchor="left" font-family="sans-serif" font-size="16" font-weight="normal" fill="#000000">ENABLES</text></g></g></g></g><g class="relationship"><g transform="translate(279 423.12041646091535) rotate(-49.68408576584092)" stroke-width="3" stroke="#000000"><path d="M 59 0 L 226.04080491960698 0"/><polygon points="-18.079611541307905,0 -20.088457268119896,6.696152422706632 0,0 -20.088457268119896,-6.696152422706632" fill="#000000" transform="translate(244.1204164609149 0) rotate(0)" stroke="none"/></g><g transform="translate(371.21092701293276 314.4502270954783) rotate(-49.68408576584092) translate(0 -13)"><g transform="translate(0 0)"><g transform="translate(-41.15833282470703 0)" fill="#ffffff" stroke="#000000" stroke-width="0"><rect x="0" y="0" width="82.31666564941406" height="26" rx="5" ry="5" stroke="none"/><text xml:space="preserve" x="5" y="17.5" stroke="none" text-anchor="left" font-family="sans-serif" font-size="16" font-weight="normal" fill="#000000">REVEALS</text></g></g></g></g><g class="relationship"><g transform="translate(279 423.12041646091535) rotate(21.02390305227842)" stroke-width="3" stroke="#000000"><path d="M 59 0 L 226.04080491960715 0"/><polygon points="-18.079611541307905,0 -20.088457268119896,6.696152422706632 0,0 -20.088457268119896,-6.696152422706632" fill="#000000" transform="translate(244.12041646091507 0) rotate(0)" stroke="none"/></g><g transform="translate(412.03293881735414 474.25066491447257) rotate(21.02390305227842) translate(0 -13)"><g transform="translate(0 0)"><g transform="translate(-65.6500015258789 0)" fill="#ffffff" stroke="#000000" stroke-width="0"><rect x="0" y="0" width="131.3000030517578" height="26" rx="5" ry="5" stroke="none"/><text xml:space="preserve" x="5" y="17.5" stroke="none" text-anchor="left" font-family="sans-serif" font-size="16" font-weight="normal" fill="#000000">UNDERSTANDS</text></g></g></g></g><g class="relationship"><g transform="translate(279 423.12041646091535) rotate(126.32907108607823)" stroke-width="3" stroke="#000000"><path d="M 59 0 L 226.04080491960727 0"/><polygon points="-18.079611541307905,0 -20.088457268119896,6.696152422706632 0,0 -20.088457268119896,-6.696152422706632" fill="#000000" transform="translate(244.12041646091518 0) rotate(0)" stroke="none"/></g><g transform="translate(194.5677753631761 537.9388146390005) rotate(306.3290710860782) translate(0 -13)"><g transform="translate(0 0)"><g transform="translate(-41.599998474121094 0)" fill="#ffffff" stroke="#000000" stroke-width="0"><rect x="0" y="0" width="83.19999694824219" height="26" rx="5" ry="5" stroke="none"/><text xml:space="preserve" x="5" y="17.5" stroke="none" text-anchor="left" font-family="sans-serif" font-size="16" font-weight="normal" fill="#000000">ENABLES</text></g></g></g></g><g class="node"><g fill="#ffffff" stroke="#000000" stroke-width="4"><circle cx="279" cy="-162.80853695937594" r="52"/></g><g transform="translate(279 -162.80853695937594)"><g transform="scale(0.2418021015120127) translate(0 -89)"><g transform="translate(0 0)"><g fill="#000000" font-family="sans-serif" font-size="50" font-weight="normal" text-anchor="middle"><text xml:space="preserve" x="0" y="44.5" stroke="none">Unstructured</text><text xml:space="preserve" x="0" y="104.5" stroke="none" text-anchor="middle">Data</text></g></g><g transform="translate(0 124)"><g transform="translate(-149.80833435058594 0)"><g fill="#ffffff" stroke="#000000" stroke-width="4"><rect x="0" y="0" width="299.6166687011719" height="54" rx="27" ry="27"/><text xml:space="preserve" x="27" y="39" stroke="none" font-family="sans-serif" font-size="40" font-weight="normal" fill="#000000">Data Source</text></g></g></g></g></g></g><g class="node"><g fill="#ffffff" stroke="#0062b1" stroke-width="4"><circle cx="279" cy="141.13996537268457" r="77"/></g><g transform="translate(279 141.13996537268457)"><g transform="scale(0.38070841675162853) translate(0 -118)"><g transform="translate(0 0)"><g fill="#000000" font-family="sans-serif" font-size="50" font-weight="normal" text-anchor="middle"><text xml:space="preserve" x="0" y="44.5" stroke="none">Knowledge</text><text xml:space="preserve" x="0" y="104.5" stroke="none" text-anchor="middle">Graph</text></g></g><g transform="translate(0 124)"><g transform="translate(-108.46666717529297 0)"><g fill="#ffffff" stroke="#000000" stroke-width="4"><rect x="0" y="0" width="216.93333435058594" height="54" rx="27" ry="27"/><text xml:space="preserve" x="27" y="39" stroke="none" font-family="sans-serif" font-size="40" font-weight="normal" fill="#000000">Solution</text></g></g><g transform="translate(-141.00833129882812 62)"><g fill="#ffffff" stroke="#000000" stroke-width="4"><rect x="0" y="0" width="282.01666259765625" height="54" rx="27" ry="27"/><text xml:space="preserve" x="27" y="39" stroke="none" font-family="sans-serif" font-size="40" font-weight="normal" fill="#000000">Deliverable</text></g></g></g></g></g></g><g class="node"><g fill="#ffffff" stroke="#000000" stroke-width="4"><circle cx="279" cy="423.12041646091535" r="52"/></g><g transform="translate(279 423.12041646091535)"><g transform="scale(0.18436612816146192) translate(0 -82.4)"><g transform="translate(0 0)"><g fill="#000000" font-family="sans-serif" font-size="89" font-weight="normal" text-anchor="middle"><text xml:space="preserve" x="0" y="78.9" stroke="none">GraphRAG</text></g></g><g transform="translate(0 110.8)"><g transform="translate(-218.09165954589844 0)"><g fill="#ffffff" stroke="#000000" stroke-width="4"><rect x="0" y="0" width="436.1833190917969" height="54" rx="27" ry="27"/><text xml:space="preserve" x="27" y="39" stroke="none" font-family="sans-serif" font-size="40" font-weight="normal" fill="#000000">GraphRAG Solution</text></g></g></g></g></g></g><g class="node"><g fill="#ffffff" stroke="#000000" stroke-width="4"><circle cx="82.88060855854991" cy="191.9945391211554" r="52"/></g><g transform="translate(82.88060855854991 191.9945391211554)"><g transform="scale(0.48252134897376037) translate(0 -59)"><g transform="translate(0 0)"><g fill="#000000" font-family="sans-serif" font-size="50" font-weight="normal" text-anchor="middle"><text xml:space="preserve" x="0" y="44.5" stroke="none">Neo4j</text></g></g><g transform="translate(0 64)"><g transform="translate(-65.84166717529297 0)"><g fill="#ffffff" stroke="#000000" stroke-width="4"><rect x="0" y="0" width="131.68333435058594" height="54" rx="27" ry="27"/><text xml:space="preserve" x="27" y="39" stroke="none" font-family="sans-serif" font-size="40" font-weight="normal" fill="#000000">Tool</text></g></g></g></g></g></g><g class="node"><g fill="#ffffff" stroke="#000000" stroke-width="4"><circle cx="-14.689090102007754" cy="348.0957189907256" r="52"/></g><g transform="translate(-14.689090102007754 348.0957189907256)"><g transform="scale(0.3105478089216621) translate(0 -59)"><g transform="translate(0 0)"><g fill="#000000" font-family="sans-serif" font-size="50" font-weight="normal" text-anchor="middle"><text xml:space="preserve" x="0" y="44.5" stroke="none">LangChain</text></g></g><g transform="translate(0 64)"><g transform="translate(-65.84166717529297 0)"><g fill="#ffffff" stroke="#000000" stroke-width="4"><rect x="0" y="0" width="131.68333435058594" height="54" rx="27" ry="27"/><text xml:space="preserve" x="27" y="39" stroke="none" font-family="sans-serif" font-size="40" font-weight="normal" fill="#000000">Tool</text></g></g></g></g></g></g><g class="node"><g fill="#cec7fb" stroke="#000000" stroke-width="4"><circle cx="572.6890901020078" cy="348.0957189907256" r="52"/></g><g transform="translate(572.6890901020078 348.0957189907256)"><g transform="scale(0.2525913932080962) translate(0 -59)"><g transform="translate(0 0)"><g fill="#000000" font-family="sans-serif" font-size="50" font-weight="normal" text-anchor="middle"><text xml:space="preserve" x="0" y="44.5" stroke="none">Explainability</text></g></g><g transform="translate(0 64)"><g transform="translate(-98.44999694824219 0)"><g fill="#ffffff" stroke="#000000" stroke-width="4"><rect x="0" y="0" width="196.89999389648438" height="54" rx="27" ry="27"/><text xml:space="preserve" x="27" y="39" stroke="none" font-family="sans-serif" font-size="40" font-weight="normal" fill="#000000">Benefit</text></g></g></g></g></g></g><g class="node"><g fill="#cec7fb" stroke="#000000" stroke-width="4"><circle cx="455.91728762315586" cy="669.2550548511755" r="52"/></g><g transform="translate(455.91728762315586 669.2550548511755)"><g transform="scale(0.28585172573291345) translate(0 -59)"><g transform="translate(0 0)"><g fill="#000000" font-family="sans-serif" font-size="50" font-weight="normal" text-anchor="middle"><text xml:space="preserve" x="0" y="44.5" stroke="none">Provenance</text></g></g><g transform="translate(0 64)"><g transform="translate(-98.44999694824219 0)"><g fill="#ffffff" stroke="#000000" stroke-width="4"><rect x="0" y="0" width="196.89999389648438" height="54" rx="27" ry="27"/><text xml:space="preserve" x="27" y="39" stroke="none" font-family="sans-serif" font-size="40" font-weight="normal" fill="#000000">Benefit</text></g></g></g></g></g></g><g class="node"><g fill="#ffffff" stroke="#000000" stroke-width="4"><circle cx="-3.941944601293926" cy="531.8671077240385" r="52"/></g><g transform="translate(-3.941944601293926 531.8671077240385)"><g transform="scale(0.421875578125) translate(0 0)"><g transform="translate(0 0)"><g font-family="sans-serif" font-size="50" font-weight="normal" fill="#000000" text-anchor="middle"><text xml:space="preserve" x="0" y="14.5" stroke="none">(Vanilla)</text><text xml:space="preserve" x="0" y="74.5" stroke="none" text-anchor="middle">RAG</text></g></g></g></g></g><g class="node"><g fill="#0062b1" stroke="#000000" stroke-width="4"><circle cx="279" cy="726.2408329218306" r="52"/></g><g transform="translate(279 726.2408329218306)"><g transform="scale(0.25632245327120246) translate(0 -119)"><g transform="translate(0 0)"><g fill="#ffffff" font-family="sans-serif" font-size="50" font-weight="normal" text-anchor="middle"><text xml:space="preserve" x="0" y="44.5" stroke="none">GraphRAG</text><text xml:space="preserve" x="0" y="104.5" stroke="none" text-anchor="middle">Use</text><text xml:space="preserve" x="0" y="164.5" stroke="none" text-anchor="middle">Case</text></g></g><g transform="translate(0 184)"><g transform="translate(-119.67500305175781 0)"><g fill="#ffffff" stroke="#000000" stroke-width="4"><rect x="0" y="0" width="239.35000610351562" height="54" rx="27" ry="27"/><text xml:space="preserve" x="27" y="39" stroke="none" font-family="sans-serif" font-size="40" font-weight="normal" fill="#000000">Use Case</text></g></g></g></g></g></g><g class="node"><g fill="#cec7fb" stroke="#000000" stroke-width="4"><circle cx="475.1193914414501" cy="191.9945391211554" r="52"/></g><g transform="translate(475.1193914414501 191.9945391211554)"><g transform="scale(0.28597281463282365) translate(0 -119)"><g transform="translate(0 0)"><g fill="#000000" font-family="sans-serif" font-size="50" font-weight="normal" text-anchor="middle"><text xml:space="preserve" x="0" y="44.5" stroke="none">Patterns</text><text xml:space="preserve" x="0" y="104.5" stroke="none" text-anchor="middle">and</text><text xml:space="preserve" x="0" y="164.5" stroke="none" text-anchor="middle">Insights</text></g></g><g transform="translate(0 184)"><g transform="translate(-98.44999694824219 0)"><g fill="#ffffff" stroke="#000000" stroke-width="4"><rect x="0" y="0" width="196.89999389648438" height="54" rx="27" ry="27"/><text xml:space="preserve" x="27" y="39" stroke="none" font-family="sans-serif" font-size="40" font-weight="normal" fill="#000000">Benefit</text></g></g></g></g></g></g><g class="node"><g fill="#cec7fb" stroke="#000000" stroke-width="4"><circle cx="561.9419446012937" cy="531.8671077240385" r="52"/></g><g transform="translate(561.9419446012937 531.8671077240385)"><g transform="scale(0.20968057905434226) translate(0 -149)"><g transform="translate(0 0)"><g fill="#000000" font-family="sans-serif" font-size="50" font-weight="normal" text-anchor="middle"><text xml:space="preserve" x="0" y="44.5" stroke="none">Connections</text><text xml:space="preserve" x="0" y="104.5" stroke="none" text-anchor="middle">between</text><text xml:space="preserve" x="0" y="164.5" stroke="none" text-anchor="middle">data</text><text xml:space="preserve" x="0" y="224.5" stroke="none" text-anchor="middle">points</text></g></g><g transform="translate(0 244)"><g transform="translate(-98.44999694824219 0)"><g fill="#ffffff" stroke="#000000" stroke-width="4"><rect x="0" y="0" width="196.89999389648438" height="54" rx="27" ry="27"/><text xml:space="preserve" x="27" y="39" stroke="none" font-family="sans-serif" font-size="40" font-weight="normal" fill="#000000">Benefit</text></g></g></g></g></g></g><g class="node"><g fill="#cec7fb" stroke="#000000" stroke-width="4"><circle cx="99.42479074633636" cy="667.3226504739185" r="52"/></g><g transform="translate(99.42479074633636 667.3226504739185)"><g transform="scale(0.24358410666244565) translate(0 -149)"><g transform="translate(0 0)"><g fill="#000000" font-family="sans-serif" font-size="50" font-weight="normal" text-anchor="middle"><text xml:space="preserve" x="0" y="44.5" stroke="none">Smarter,</text><text xml:space="preserve" x="0" y="104.5" stroke="none" text-anchor="middle">more</text><text xml:space="preserve" x="0" y="164.5" stroke="none" text-anchor="middle">targeted</text><text xml:space="preserve" x="0" y="224.5" stroke="none" text-anchor="middle">results</text></g></g><g transform="translate(0 244)"><g transform="translate(-98.44999694824219 0)"><g fill="#ffffff" stroke="#000000" stroke-width="4"><rect x="0" y="0" width="196.89999389648438" height="54" rx="27" ry="27"/><text xml:space="preserve" x="27" y="39" stroke="none" font-family="sans-serif" font-size="40" font-weight="normal" fill="#000000">Benefit</text></g></g></g></g></g></g></g></svg>