<svg xmlns="http://www.w3.org/2000/svg" width="2498" height="1286" viewBox="0 0 2498 1286"><defs><style type="text/css"/></defs><g transform="translate(1942.6115216768603 303.35152251105603) scale(1)"><g class="relationship"><g transform="translate(323.78337170573053 -54.920056661372655) rotate(-150.00000000000003)" stroke-width="5" stroke="#000000"><path d="M 59 0 L 305.0007810816186 0"/><polygon points="-24.8621506177483,0 -27.62461179749811,9.20820393249937 0,0 -27.62461179749811,-9.20820393249937" fill="#000000" transform="translate(329.86293169936687 0) rotate(0)" stroke="none"/></g><g transform="translate(166.16640999870063 -145.92025193177727) rotate(29.999999999999993) translate(0 -13)"><g transform="translate(0 0)"><g transform="translate(-37.358333587646484 0)" fill="#ffffff" stroke="#000000" stroke-width="0"><rect x="0" y="0" width="74.71666717529297" height="26" rx="5" ry="5" stroke="none"/><text xml:space="preserve" x="5" y="17.5" stroke="none" text-anchor="left" font-family="sans-serif" font-size="16" font-weight="normal" fill="#000000">PREREQ</text></g></g></g></g><g class="relationship"><g transform="translate(323.78337170573053 -54.920056661372655) rotate(120.00000000000001)" stroke-width="5" stroke="#000000"><path d="M 59 0 L 224.96515924362924 0"/><polygon points="-24.8621506177483,0 -27.62461179749811,9.20820393249937 0,0 -27.62461179749811,-9.20820393249937" fill="#000000" transform="translate(249.82730986137756 0) rotate(0)" stroke="none"/></g><g transform="translate(252.79208189482318 68.04046418596558) rotate(300.00000000000006) translate(0 -13)"><g transform="translate(0 0)"><g transform="translate(-34.39999961853027 0)" fill="#ffffff" stroke="#000000" stroke-width="0"><rect x="0" y="0" width="68.79999923706055" height="26" rx="5" ry="5" stroke="none"/><text xml:space="preserve" x="5" y="17.5" stroke="none" text-anchor="left" font-family="sans-serif" font-size="16" font-weight="normal" fill="#000000">BUILDS</text></g></g></g></g><g class="relationship"><g transform="translate(169.36971677504178 212.53223906098876) rotate(-111.54408667145417)" stroke-width="5" stroke="#000000"><path d="M 59 0 L 412.7148192127521 0"/><polygon points="-24.8621506177483,0 -27.62461179749811,9.20820393249937 0,0 -27.62461179749811,-9.20820393249937" fill="#000000" transform="translate(437.5769698305004 0) rotate(0)" stroke="none"/></g><g transform="translate(82.7588581363156 -6.847059944392413) rotate(68.45591332854583) translate(0 -13)"><g transform="translate(0 0)"><g transform="translate(-37.358333587646484 0)" fill="#ffffff" stroke="#000000" stroke-width="0"><rect x="0" y="0" width="74.71666717529297" height="26" rx="5" ry="5" stroke="none"/><text xml:space="preserve" x="5" y="17.5" stroke="none" text-anchor="left" font-family="sans-serif" font-size="16" font-weight="normal" fill="#000000">PREREQ</text></g></g></g></g><g class="relationship"><g transform="translate(-290.1301681930784 357.53537559093485) rotate(-60.00000000000002)" stroke-width="5" stroke="#000000"><path d="M 59 0 L 198.30818001864438 0"/><polygon points="-24.8621506177483,0 -27.62461179749811,9.20820393249937 0,0 -27.62461179749811,-9.20820393249937" fill="#000000" transform="translate(223.1703306363927 0) rotate(0)" stroke="none"/></g><g transform="translate(-225.80312318841737 246.11766534209204) rotate(-60.00000000000002) translate(0 -13)"><g transform="translate(0 0)"><g transform="translate(-24.649999618530273 0)" fill="#ffffff" stroke="#000000" stroke-width="0"><rect x="0" y="0" width="49.29999923706055" height="26" rx="5" ry="5" stroke="none"/><text xml:space="preserve" x="5" y="17.5" stroke="none" text-anchor="left" font-family="sans-serif" font-size="16" font-weight="normal" fill="#000000">TYPE</text></g></g></g></g><g class="relationship"><g transform="translate(-290.1301681930784 357.53537559093485) rotate(131.35194018839306)" stroke-width="5" stroke="#000000"><path d="M 59 0 L 358.1731951717604 0"/><polygon points="-24.8621506177483,0 -27.62461179749811,9.20820393249937 0,0 -27.62461179749811,-9.20820393249937" fill="#000000" transform="translate(383.0353457895087 0) rotate(0)" stroke="none"/></g><g transform="translate(-427.93967004598676 514.1141413655672) rotate(311.35194018839303) translate(0 -13)"><g transform="translate(0 0)"><g transform="translate(-28.950000762939453 0)" fill="#ffffff" stroke="#000000" stroke-width="0"><rect x="0" y="0" width="57.900001525878906" height="26" rx="5" ry="5" stroke="none"/><text xml:space="preserve" x="5" y="17.5" stroke="none" text-anchor="left" font-family="sans-serif" font-size="16" font-weight="normal" fill="#000000">TOPIC</text></g></g></g></g><g class="relationship"><g transform="translate(-290.1301681930784 357.53537559093485) rotate(57.81297302789604)" stroke-width="5" stroke="#000000"><path d="M 59 0 L 164.0891011670936 0"/><polygon points="-24.8621506177483,0 -27.62461179749811,9.20820393249937 0,0 -27.62461179749811,-9.20820393249937" fill="#000000" transform="translate(188.9512517848419 0) rotate(0)" stroke="none"/></g><g transform="translate(-230.712096563648 451.93706799486006) rotate(57.81297302789604) translate(0 -13)"><g transform="translate(0 0)"><g transform="translate(-28.950000762939453 0)" fill="#ffffff" stroke="#000000" stroke-width="0"><rect x="0" y="0" width="57.900001525878906" height="26" rx="5" ry="5" stroke="none"/><text xml:space="preserve" x="5" y="17.5" stroke="none" text-anchor="left" font-family="sans-serif" font-size="16" font-weight="normal" fill="#000000">TOPIC</text></g></g></g></g><g class="relationship"><g transform="translate(46.776324418395774 521.6582473366807) rotate(-115.6120827914928)" stroke-width="5" stroke="#000000"><path d="M 59 0 L 369.1386238139116 0"/><polygon points="-24.8621506177483,0 -27.62461179749811,9.20820393249937 0,0 -27.62461179749811,-9.20820393249937" fill="#000000" transform="translate(394.00077443165986 0) rotate(0)" stroke="none"/></g><g transform="translate(-45.760684691514285 328.6230892817037) rotate(64.38791720850719) translate(0 -13)"><g transform="translate(0 0)"><g transform="translate(-24.649999618530273 0)" fill="#ffffff" stroke="#000000" stroke-width="0"><rect x="0" y="0" width="49.29999923706055" height="26" rx="5" ry="5" stroke="none"/><text xml:space="preserve" x="5" y="17.5" stroke="none" text-anchor="left" font-family="sans-serif" font-size="16" font-weight="normal" fill="#000000">TYPE</text></g></g></g></g><g class="relationship"><g transform="translate(-488.4782296187397 113.16870106556428) rotate(0)" stroke-width="5" stroke="#000000"><path d="M 59 0 L 255.57107612610926 0"/><polygon points="-24.8621506177483,0 -27.62461179749811,9.20820393249937 0,0 -27.62461179749811,-9.20820393249937" fill="#000000" transform="translate(280.4332267438576 0) rotate(0)" stroke="none"/></g><g transform="translate(-331.1926915556851 113.16870106556428) rotate(0) translate(0 -13)"><g transform="translate(0 0)"><g transform="translate(-24.649999618530273 0)" fill="#ffffff" stroke="#000000" stroke-width="0"><rect x="0" y="0" width="49.29999923706055" height="26" rx="5" ry="5" stroke="none"/><text xml:space="preserve" x="5" y="17.5" stroke="none" text-anchor="left" font-family="sans-serif" font-size="16" font-weight="normal" fill="#000000">TYPE</text></g></g></g></g><g class="relationship"><g transform="translate(-582.1751581860208 689.3560662467056) rotate(-72.82783743268126)" stroke-width="5" stroke="#000000"><path d="M 59 0 L 233.49218661783559 0"/><polygon points="-24.8621506177483,0 -27.62461179749811,9.20820393249937 0,0 -27.62461179749811,-9.20820393249937" fill="#000000" transform="translate(258.3543372355839 0) rotate(0)" stroke="none"/></g><g transform="translate(-538.996892915181 549.6293429031673) rotate(-72.82783743268126) translate(0 -13)"><g transform="translate(0 0)"><g transform="translate(-86.11666870117188 0)" fill="#ffffff" stroke="#000000" stroke-width="0"><rect x="0" y="0" width="172.23333740234375" height="26" rx="5" ry="5" stroke="none"/><text xml:space="preserve" x="5" y="17.5" stroke="none" text-anchor="left" font-family="sans-serif" font-size="16" font-weight="normal" fill="#000000">SUBJECT_CATEGORY</text></g></g></g></g><g class="relationship"><g transform="translate(-582.1751581860208 689.3560662467056) rotate(-103.91391871634063)" stroke-width="5" stroke="#000000"><path d="M 59 0 L 205.93160404546532 0"/><polygon points="-24.8621506177483,0 -27.62461179749811,9.20820393249937 0,0 -27.62461179749811,-9.20820393249937" fill="#000000" transform="translate(230.79375466321363 0) rotate(0)" stroke="none"/></g><g transform="translate(-614.0283948071811 560.777063208565) rotate(76.08608128365937) translate(0 -13)"><g transform="translate(0 0)"><g transform="translate(-64.9000015258789 0)" fill="#ffffff" stroke="#000000" stroke-width="0"><rect x="0" y="0" width="129.8000030517578" height="26" rx="5" ry="5" stroke="none"/><text xml:space="preserve" x="5" y="17.5" stroke="none" text-anchor="left" font-family="sans-serif" font-size="16" font-weight="normal" fill="#000000">ENCOMPASSES</text></g></g></g></g><g class="relationship"><g transform="translate(-582.1751581860208 689.3560662467056) rotate(135.00000000000003)" stroke-width="5" stroke="#000000"><path d="M 59 0 L 156.21464798300315 0"/><polygon points="-24.8621506177483,0 -27.62461179749811,9.20820393249937 0,0 -27.62461179749811,-9.20820393249937" fill="#000000" transform="translate(181.07679860075146 0) rotate(0)" stroke="none"/></g><g transform="translate(-658.2650266857495 765.4459347464342) rotate(315.00000000000006) translate(0 -13)"><g transform="translate(0 0)"><g transform="translate(-64.9000015258789 0)" fill="#ffffff" stroke="#000000" stroke-width="0"><rect x="0" y="0" width="129.8000030517578" height="26" rx="5" ry="5" stroke="none"/><text xml:space="preserve" x="5" y="17.5" stroke="none" text-anchor="left" font-family="sans-serif" font-size="16" font-weight="normal" fill="#000000">ENCOMPASSES</text></g></g></g></g><g class="relationship"><g transform="translate(-582.1751581860208 689.3560662467056) rotate(95.28978555065622)" stroke-width="5" stroke="#000000"><path d="M 59 0 L 156.21464798300298 0"/><polygon points="-24.8621506177483,0 -27.62461179749811,9.20820393249937 0,0 -27.62461179749811,-9.20820393249937" fill="#000000" transform="translate(181.0767986007513 0) rotate(0)" stroke="none"/></g><g transform="translate(-592.0958079964672 796.5051067648104) rotate(275.28978555065623) translate(0 -13)"><g transform="translate(0 0)"><g transform="translate(-64.9000015258789 0)" fill="#ffffff" stroke="#000000" stroke-width="0"><rect x="0" y="0" width="129.8000030517578" height="26" rx="5" ry="5" stroke="none"/><text xml:space="preserve" x="5" y="17.5" stroke="none" text-anchor="left" font-family="sans-serif" font-size="16" font-weight="normal" fill="#000000">ENCOMPASSES</text></g></g></g></g><g class="relationship"><g transform="translate(-582.1751581860208 689.3560662467056) rotate(55.57957110131244)" stroke-width="5" stroke="#000000"><path d="M 59 0 L 205.9316040454659 0"/><polygon points="-24.8621506177483,0 -27.62461179749811,9.20820393249937 0,0 -27.62461179749811,-9.20820393249937" fill="#000000" transform="translate(230.7937546632142 0) rotate(0)" stroke="none"/></g><g transform="translate(-507.297384877031 798.6286967166152) rotate(55.57957110131244) translate(0 -13)"><g transform="translate(0 0)"><g transform="translate(-64.9000015258789 0)" fill="#ffffff" stroke="#000000" stroke-width="0"><rect x="0" y="0" width="129.8000030517578" height="26" rx="5" ry="5" stroke="none"/><text xml:space="preserve" x="5" y="17.5" stroke="none" text-anchor="left" font-family="sans-serif" font-size="16" font-weight="normal" fill="#000000">ENCOMPASSES</text></g></g></g></g><g class="relationship"><g transform="translate(-582.1751581860208 689.3560662467056) rotate(16.103752175399674)" stroke-width="5" stroke="#000000"><path d="M 59 0 L 207.69144586742667 0"/><polygon points="-24.8621506177483,0 -27.62461179749811,9.20820393249937 0,0 -27.62461179749811,-9.20820393249937" fill="#000000" transform="translate(232.55359648517498 0) rotate(0)" stroke="none"/></g><g transform="translate(-454.06178922571496 726.3431791153142) rotate(16.103752175399674) translate(0 -13)"><g transform="translate(0 0)"><g transform="translate(-64.9000015258789 0)" fill="#ffffff" stroke="#000000" stroke-width="0"><rect x="0" y="0" width="129.8000030517578" height="26" rx="5" ry="5" stroke="none"/><text xml:space="preserve" x="5" y="17.5" stroke="none" text-anchor="left" font-family="sans-serif" font-size="16" font-weight="normal" fill="#000000">ENCOMPASSES</text></g></g></g></g><g class="relationship"><g transform="translate(-582.1751581860208 689.3560662467056) rotate(-11.548340277526853)" stroke-width="5" stroke="#000000"><path d="M 59 0 L 214.21711131808175 0"/><polygon points="-24.8621506177483,0 -27.62461179749811,9.20820393249937 0,0 -27.62461179749811,-9.20820393249937" fill="#000000" transform="translate(239.07926193583006 0) rotate(0)" stroke="none"/></g><g transform="translate(-448.33208567135654 662.0077679617375) rotate(-11.548340277526853) translate(0 -13)"><g transform="translate(0 0)"><g transform="translate(-64.9000015258789 0)" fill="#ffffff" stroke="#000000" stroke-width="0"><rect x="0" y="0" width="129.8000030517578" height="26" rx="5" ry="5" stroke="none"/><text xml:space="preserve" x="5" y="17.5" stroke="none" text-anchor="left" font-family="sans-serif" font-size="16" font-weight="normal" fill="#000000">ENCOMPASSES</text></g></g></g></g><g class="relationship"><g transform="translate(-582.1751581860208 689.3560662467056) rotate(-135)" stroke-width="5" stroke="#000000"><path d="M 59 0 L 205.93160404546532 0"/><polygon points="-24.8621506177483,0 -27.62461179749811,9.20820393249937 0,0 -27.62461179749811,-9.20820393249937" fill="#000000" transform="translate(230.79375466321363 0) rotate(0)" stroke="none"/></g><g transform="translate(-675.8426250716097 595.6885993611166) rotate(45) translate(0 -13)"><g transform="translate(0 0)"><g transform="translate(-75.18333435058594 0)" fill="#ffffff" stroke="#000000" stroke-width="0"><rect x="0" y="0" width="150.36666870117188" height="26" rx="5" ry="5" stroke="none"/><text xml:space="preserve" x="5" y="17.5" stroke="none" text-anchor="left" font-family="sans-serif" font-size="16" font-weight="normal" fill="#000000">IMPLEMENTATION</text></g></g></g></g><g class="relationship"><g transform="translate(-582.1751581860208 689.3560662467056) rotate(180)" stroke-width="5" stroke="#000000"><path d="M 59 0 L 157.37662348465278 0"/><polygon points="-24.8621506177483,0 -27.62461179749811,9.20820393249937 0,0 -27.62461179749811,-9.20820393249937" fill="#000000" transform="translate(182.23877410240107 0) rotate(0)" stroke="none"/></g><g transform="translate(-690.3634699283472 689.3560662467056) rotate(360) translate(0 -13)"><g transform="translate(0 0)"><g transform="translate(-75.18333435058594 0)" fill="#ffffff" stroke="#000000" stroke-width="0"><rect x="0" y="0" width="150.36666870117188" height="26" rx="5" ry="5" stroke="none"/><text xml:space="preserve" x="5" y="17.5" stroke="none" text-anchor="left" font-family="sans-serif" font-size="16" font-weight="normal" fill="#000000">IMPLEMENTATION</text></g></g></g></g><g class="relationship"><g transform="translate(169.36971677504178 212.53223906098876) rotate(23.625304651582542)" stroke-width="5" stroke="#000000"><path d="M 59 0 L 277.9639157556635 0"/><polygon points="-24.8621506177483,0 -27.62461179749811,9.20820393249937 0,0 -27.62461179749811,-9.20820393249937" fill="#000000" transform="translate(302.8260663734118 0) rotate(0)" stroke="none"/></g><g transform="translate(323.7304985621057 280.05200784342685) rotate(23.625304651582542) translate(0 -13)"><g transform="translate(0 0)"><g transform="translate(-32.183332443237305 0)" fill="#ffffff" stroke="#000000" stroke-width="0"><rect x="0" y="0" width="64.36666488647461" height="26" rx="5" ry="5" stroke="none"/><text xml:space="preserve" x="5" y="17.5" stroke="none" text-anchor="left" font-family="sans-serif" font-size="16" font-weight="normal" fill="#000000">SHARE</text></g></g></g></g><g class="relationship"><g transform="translate(-823.4139322884218 20.907174200091106) rotate(66.10136856348241)" stroke-width="5" stroke="#000000"><path d="M 59 0 L 339.60240008331806 0"/><polygon points="-24.8621506177483,0 -27.62461179749811,9.20820393249937 0,0 -27.62461179749811,-9.20820393249937" fill="#000000" transform="translate(364.46455070106634 0) rotate(0)" stroke="none"/></g><g transform="translate(-742.6730801819863 203.12101324414417) rotate(66.10136856348241) translate(0 -13)"><g transform="translate(0 0)"><g transform="translate(-47.608333587646484 0)" fill="#ffffff" stroke="#000000" stroke-width="0"><rect x="0" y="0" width="95.21666717529297" height="26" rx="5" ry="5" stroke="none"/><text xml:space="preserve" x="5" y="17.5" stroke="none" text-anchor="left" font-family="sans-serif" font-size="16" font-weight="normal" fill="#000000">USED_FOR</text></g></g></g></g><g class="relationship"><g transform="translate(-488.4782296187397 113.16870106556428) rotate(-164.5992266410492)" stroke-width="5" stroke="#000000"><path d="M 59 0 L 263.54843393946135 0"/><polygon points="-24.8621506177483,0 -27.62461179749811,9.20820393249937 0,0 -27.62461179749811,-9.20820393249937" fill="#000000" transform="translate(288.4105845572097 0) rotate(0)" stroke="none"/></g><g transform="translate(-643.9613829374733 70.33924749371809) rotate(15.400773358950799) translate(0 -13)"><g transform="translate(0 0)"><g transform="translate(-39.30833435058594 0)" fill="#ffffff" stroke="#000000" stroke-width="0"><rect x="0" y="0" width="78.61666870117188" height="26" rx="5" ry="5" stroke="none"/><text xml:space="preserve" x="5" y="17.5" stroke="none" text-anchor="left" font-family="sans-serif" font-size="16" font-weight="normal" fill="#000000">SUBJECT</text></g></g></g></g><g class="relationship"><g transform="translate(-488.4782296187397 113.16870106556428) rotate(-120.00000000000001)" stroke-width="5" stroke="#000000"><path d="M 59 0 L 215.52131787017854 0"/><polygon points="-24.8621506177483,0 -27.62461179749811,9.20820393249937 0,0 -27.62461179749811,-9.20820393249937" fill="#000000" transform="translate(240.38346848792685 0) rotate(0)" stroke="none"/></g><g transform="translate(-557.1085590862843 -5.702516512414533) rotate(59.999999999999986) translate(0 -13)"><g transform="translate(0 0)"><g transform="translate(-39.30833435058594 0)" fill="#ffffff" stroke="#000000" stroke-width="0"><rect x="0" y="0" width="78.61666870117188" height="26" rx="5" ry="5" stroke="none"/><text xml:space="preserve" x="5" y="17.5" stroke="none" text-anchor="left" font-family="sans-serif" font-size="16" font-weight="normal" fill="#000000">SUBJECT</text></g></g></g></g><g class="relationship"><g transform="translate(-488.4782296187397 113.16870106556428) rotate(-67.23848663136052)" stroke-width="5" stroke="#000000"><path d="M 59 0 L 215.52131787017836 0"/><polygon points="-24.8621506177483,0 -27.62461179749811,9.20820393249937 0,0 -27.62461179749811,-9.20820393249937" fill="#000000" transform="translate(240.38346848792668 0) rotate(0)" stroke="none"/></g><g transform="translate(-435.3725931256472 -13.402543156646004) rotate(-67.23848663136052) translate(0 -13)"><g transform="translate(0 0)"><g transform="translate(-39.30833435058594 0)" fill="#ffffff" stroke="#000000" stroke-width="0"><rect x="0" y="0" width="78.61666870117188" height="26" rx="5" ry="5" stroke="none"/><text xml:space="preserve" x="5" y="17.5" stroke="none" text-anchor="left" font-family="sans-serif" font-size="16" font-weight="normal" fill="#000000">SUBJECT</text></g></g></g></g><g class="node"><g fill="#ffffff" stroke="#000000" stroke-width="4"><circle cx="323.78337170573053" cy="-54.920056661372655" r="52"/></g><g transform="translate(323.78337170573053 -54.920056661372655)"><g transform="scale(0.2871904754816479) translate(0 -118)"><g transform="translate(0 0)"><g fill="#000000" font-family="sans-serif" font-size="50" font-weight="normal" text-anchor="middle"><text xml:space="preserve" x="0" y="44.5" stroke="none">Neo4j</text><text xml:space="preserve" x="0" y="104.5" stroke="none" text-anchor="middle">Desktop</text></g></g><g transform="translate(0 124)"><g transform="translate(-77.67499923706055 0)"><g fill="#ffffff" stroke="#000000" stroke-width="4"><rect x="0" y="0" width="155.3499984741211" height="54" rx="27" ry="27"/><text xml:space="preserve" x="27" y="39" stroke="none" font-family="sans-serif" font-size="40" font-weight="normal" fill="#000000">learn</text></g></g><g transform="translate(-99.16666412353516 62)"><g fill="#ffffff" stroke="#000000" stroke-width="4"><rect x="0" y="0" width="198.3333282470703" height="54" rx="27" ry="27"/><text xml:space="preserve" x="27" y="39" stroke="none" font-family="sans-serif" font-size="40" font-weight="normal" fill="#000000">priority</text></g></g></g></g></g></g><g class="node"><g fill="#ffffff" stroke="#000000" stroke-width="4"><circle cx="-12.981805736014252" cy="-249.35152251105606" r="52"/></g><g transform="translate(-12.981805736014252 -249.35152251105606)"><g transform="scale(0.2898539315535455) translate(0 -119)"><g transform="translate(0 0)"><g fill="#000000" font-family="sans-serif" font-size="50" font-weight="normal" text-anchor="middle"><text xml:space="preserve" x="0" y="44.5" stroke="none">DOCS</text><text xml:space="preserve" x="0" y="104.5" stroke="none" text-anchor="middle">desktop</text><text xml:space="preserve" x="0" y="164.5" stroke="none" text-anchor="middle">manual</text></g></g><g transform="translate(0 184)"><g transform="translate(-99.16666412353516 0)"><g fill="#ffffff" stroke="#000000" stroke-width="4"><rect x="0" y="0" width="198.3333282470703" height="54" rx="27" ry="27"/><text xml:space="preserve" x="27" y="39" stroke="none" font-family="sans-serif" font-size="40" font-weight="normal" fill="#000000">priority</text></g></g></g></g></g></g><g class="node"><g fill="#ffffff" stroke="#000000" stroke-width="4"><circle cx="169.36971677504178" cy="212.53223906098876" r="52"/></g><g transform="translate(169.36971677504178 212.53223906098876)"><g transform="scale(0.2515097558332183) translate(0 -119)"><g transform="translate(0 0)"><g fill="#000000" font-family="sans-serif" font-size="50" font-weight="normal" text-anchor="middle"><text xml:space="preserve" x="0" y="44.5" stroke="none">Build</text><text xml:space="preserve" x="0" y="104.5" stroke="none" text-anchor="middle">Graph</text><text xml:space="preserve" x="0" y="164.5" stroke="none" text-anchor="middle">Prototypes</text></g></g><g transform="translate(0 184)"><g transform="translate(-99.16666412353516 0)"><g fill="#ffffff" stroke="#000000" stroke-width="4"><rect x="0" y="0" width="198.3333282470703" height="54" rx="27" ry="27"/><text xml:space="preserve" x="27" y="39" stroke="none" font-family="sans-serif" font-size="40" font-weight="normal" fill="#000000">priority</text></g></g></g></g></g></g><g class="node"><g fill="#ffffff" stroke="#000000" stroke-width="4"><circle cx="-290.1301681930784" cy="357.53537559093485" r="52"/></g><g transform="translate(-290.1301681930784 357.53537559093485)"><g transform="scale(0.1910872838680359) translate(0 -179)"><g transform="translate(0 0)"><g fill="#000000" font-family="sans-serif" font-size="50" font-weight="normal" text-anchor="middle"><text xml:space="preserve" x="0" y="44.5" stroke="none">TokyoTechX:</text><text xml:space="preserve" x="0" y="104.5" stroke="none" text-anchor="middle">Introduction</text><text xml:space="preserve" x="0" y="164.5" stroke="none" text-anchor="middle">to</text><text xml:space="preserve" x="0" y="224.5" stroke="none" text-anchor="middle">Business</text><text xml:space="preserve" x="0" y="284.5" stroke="none" text-anchor="middle">Architecture</text></g></g><g transform="translate(0 304)"><g transform="translate(-93.85832977294922 0)"><g fill="#ffffff" stroke="#000000" stroke-width="4"><rect x="0" y="0" width="187.71665954589844" height="54" rx="27" ry="27"/><text xml:space="preserve" x="27" y="39" stroke="none" font-family="sans-serif" font-size="40" font-weight="normal" fill="#000000">course</text></g></g></g></g><g transform="translate(-39.597979746446654 -58.79797974644666)"><g transform="translate(0 0)"><g transform="translate(-1612.8833737373352 0)" fill="white"><rect x="0" y="0" width="1612.8833737373352" height="19.2" rx="0" ry="0" stroke="none"/><g font-family="sans-serif" font-size="16" font-weight="normal" fill="#000000" text-anchor="end"><text xml:space="preserve" x="31.6333327293396" y="14.1" stroke="none">url:</text><text xml:space="preserve" x="36.71666622161865" y="14.1" stroke="none" text-anchor="start">https://www.edx.org/learn/business-administration/tokyo-institute-of-technology-introduction-to-business-architecture?index=product&amp;queryId=78267f1d5e2473800c8396040bf8a664&amp;position=1</text></g></g></g></g></g></g><g class="node"><g fill="#ffffff" stroke="#000000" stroke-width="4"><circle cx="-149.04500287488213" cy="113.16870106556428" r="52"/></g><g transform="translate(-149.04500287488213 113.16870106556428)"><g transform="scale(0.4271610088876527) translate(0 -59)"><g transform="translate(0 0)"><g fill="#000000" font-family="sans-serif" font-size="50" font-weight="normal" text-anchor="middle"><text xml:space="preserve" x="0" y="44.5" stroke="none">Course</text></g></g><g transform="translate(0 64)"><g transform="translate(-81.95000076293945 0)"><g fill="#ffffff" stroke="#000000" stroke-width="4"><rect x="0" y="0" width="163.9000015258789" height="54" rx="27" ry="27"/><text xml:space="preserve" x="27" y="39" stroke="none" font-family="sans-serif" font-size="40" font-weight="normal" fill="#000000">mooc</text></g></g></g></g></g></g><g class="node"><g fill="#ffffff" stroke="#000000" stroke-width="4"><circle cx="-582.1751581860208" cy="689.3560662467056" r="52"/></g><g transform="translate(-582.1751581860208 689.3560662467056)"><g transform="scale(0.35178533503258824) translate(0 -59)"><g transform="translate(0 0)"><g fill="#000000" font-family="sans-serif" font-size="50" font-weight="normal" text-anchor="middle"><text xml:space="preserve" x="0" y="44.5" stroke="none">Ontology</text></g></g><g transform="translate(0 64)"><g transform="translate(-76.32500076293945 0)"><g fill="#ffffff" stroke="#000000" stroke-width="4"><rect x="0" y="0" width="152.6500015258789" height="54" rx="27" ry="27"/><text xml:space="preserve" x="27" y="39" stroke="none" font-family="sans-serif" font-size="40" font-weight="normal" fill="#000000">topic</text></g></g></g></g></g></g><g class="node"><g fill="#ffffff" stroke="#000000" stroke-width="4"><circle cx="-158.05033854578585" cy="567.3799415487224" r="52"/></g><g transform="translate(-158.05033854578585 567.3799415487224)"><g transform="scale(0.2564319358419818) translate(0 -89)"><g transform="translate(0 0)"><g fill="#000000" font-family="sans-serif" font-size="50" font-weight="normal" text-anchor="middle"><text xml:space="preserve" x="0" y="44.5" stroke="none">business</text><text xml:space="preserve" x="0" y="104.5" stroke="none" text-anchor="middle">architecture</text></g></g><g transform="translate(0 124)"><g transform="translate(-76.32500076293945 0)"><g fill="#ffffff" stroke="#000000" stroke-width="4"><rect x="0" y="0" width="152.6500015258789" height="54" rx="27" ry="27"/><text xml:space="preserve" x="27" y="39" stroke="none" font-family="sans-serif" font-size="40" font-weight="normal" fill="#000000">topic</text></g></g></g></g></g></g><g class="node"><g fill="#ffffff" stroke="#000000" stroke-width="4"><circle cx="46.776324418395774" cy="521.6582473366807" r="52"/></g><g transform="translate(46.776324418395774 521.6582473366807)"><g transform="scale(0.23287431166897926) translate(0 -118)"><g transform="translate(0 0)"><g fill="#000000" font-family="sans-serif" font-size="50" font-weight="normal" text-anchor="middle"><text xml:space="preserve" x="0" y="44.5" stroke="none">Software</text><text xml:space="preserve" x="0" y="104.5" stroke="none" text-anchor="middle">Architecture</text></g></g><g transform="translate(0 124)"><g transform="translate(-76.32500076293945 0)"><g fill="#ffffff" stroke="#000000" stroke-width="4"><rect x="0" y="0" width="152.6500015258789" height="54" rx="27" ry="27"/><text xml:space="preserve" x="27" y="39" stroke="none" font-family="sans-serif" font-size="40" font-weight="normal" fill="#000000">topic</text></g></g><g transform="translate(-93.85832977294922 62)"><g fill="#ffffff" stroke="#000000" stroke-width="4"><rect x="0" y="0" width="187.71665954589844" height="54" rx="27" ry="27"/><text xml:space="preserve" x="27" y="39" stroke="none" font-family="sans-serif" font-size="40" font-weight="normal" fill="#000000">course</text></g></g></g></g><g transform="translate(39.59797974644666 39.597979746446654)"><g transform="translate(0 0)"><g transform="translate(0 0)" fill="white"><rect x="0" y="0" width="465.7333188056946" height="19.2" rx="0" ry="0" stroke="none"/><g font-family="sans-serif" font-size="16" font-weight="normal" fill="#000000" text-anchor="end"><text xml:space="preserve" x="31.6333327293396" y="14.1" stroke="none">url:</text><text xml:space="preserve" x="36.71666622161865" y="14.1" stroke="none" text-anchor="start">https://www.coursera.org/learn/software-architecture</text></g></g></g></g></g></g><g class="node"><g fill="#ffffff" stroke="#000000" stroke-width="4"><circle cx="-488.4782296187397" cy="113.16870106556428" r="52"/></g><g transform="translate(-488.4782296187397 113.16870106556428)"><g transform="scale(0.19941131714544616) translate(0 -179)"><g transform="translate(0 0)"><g fill="#000000" font-family="sans-serif" font-size="50" font-weight="normal" text-anchor="middle"><text xml:space="preserve" x="0" y="44.5" stroke="none">Knowledge</text><text xml:space="preserve" x="0" y="104.5" stroke="none" text-anchor="middle">Graphs</text><text xml:space="preserve" x="0" y="164.5" stroke="none" text-anchor="middle">for RAG</text><text xml:space="preserve" x="0" y="224.5" stroke="none" text-anchor="middle">Andreas</text><text xml:space="preserve" x="0" y="284.5" stroke="none" text-anchor="middle">Kollegger</text></g></g><g transform="translate(0 304)"><g transform="translate(-99.16666412353516 0)"><g fill="#ffffff" stroke="#000000" stroke-width="4"><rect x="0" y="0" width="198.3333282470703" height="54" rx="27" ry="27"/><text xml:space="preserve" x="27" y="39" stroke="none" font-family="sans-serif" font-size="40" font-weight="normal" fill="#000000">priority</text></g></g></g></g><g transform="translate(3.429011037612589e-15 56)"><g transform="translate(0 0)"><g transform="translate(-248.85832810401917 0)" fill="white"><rect x="0" y="0" width="497.71665620803833" height="19.2" rx="0" ry="0" stroke="none"/><g font-family="sans-serif" font-size="16" font-weight="normal" fill="#000000" text-anchor="end"><text xml:space="preserve" x="31.6333327293396" y="14.1" stroke="none">url:</text><text xml:space="preserve" x="36.71666622161865" y="14.1" stroke="none" text-anchor="start">https://www.coursera.org/projects/knowledge-graphs-rag</text></g></g></g></g></g></g><g class="node"><g fill="#ffffff" stroke="#000000" stroke-width="4"><circle cx="-488.4782296187397" cy="386.14877586717904" r="52"/></g><g transform="translate(-488.4782296187397 386.14877586717904)"><g transform="scale(0.302735072265625) translate(0 0)"><g transform="translate(0 0)"><g font-family="sans-serif" font-size="50" font-weight="normal" fill="#000000" text-anchor="middle"><text xml:space="preserve" x="0" y="14.5" stroke="none">Information</text><text xml:space="preserve" x="0" y="74.5" stroke="none" text-anchor="middle">Science</text></g></g></g></g></g><g class="node"><g fill="#ffffff" stroke="#000000" stroke-width="4"><circle cx="-651.8600798614107" cy="408.0654124153036" r="52"/></g><g transform="translate(-651.8600798614107 408.0654124153036)"><g transform="scale(0.2421882578125) translate(0 0)"><g transform="translate(0 0)"><g font-family="sans-serif" font-size="50" font-weight="normal" fill="#000000" text-anchor="middle"><text xml:space="preserve" x="0" y="14.5" stroke="none">representation</text></g></g></g></g></g><g class="node"><g fill="#ffffff" stroke="#000000" stroke-width="4"><circle cx="-751.9350904821692" cy="859.115998542854" r="52"/></g><g transform="translate(-751.9350904821692 859.115998542854)"><g transform="scale(0.45312554687499995) translate(0 0)"><g transform="translate(0 0)"><g font-family="sans-serif" font-size="50" font-weight="normal" fill="#000000" text-anchor="middle"><text xml:space="preserve" x="0" y="14.5" stroke="none">naming</text></g></g></g></g></g><g class="node"><g fill="#ffffff" stroke="#000000" stroke-width="4"><circle cx="-604.3085758585877" cy="928.4104137255109" r="52"/></g><g transform="translate(-604.3085758585877 928.4104137255109)"><g transform="scale(0.333985041015625) translate(0 0)"><g transform="translate(0 0)"><g font-family="sans-serif" font-size="50" font-weight="normal" fill="#000000" text-anchor="middle"><text xml:space="preserve" x="0" y="14.5" stroke="none">definitions</text></g></g></g></g></g><g class="node"><g fill="#ffffff" stroke="#000000" stroke-width="4"><circle cx="-418.36600339519185" cy="928.410413725511" r="52"/></g><g transform="translate(-418.36600339519185 928.410413725511)"><g transform="scale(0.333985041015625) translate(0 0)"><g transform="translate(0 0)"><g font-family="sans-serif" font-size="50" font-weight="normal" fill="#000000" text-anchor="middle"><text xml:space="preserve" x="0" y="14.5" stroke="none">categories</text></g></g></g></g></g><g class="node"><g fill="#ffffff" stroke="#000000" stroke-width="4"><circle cx="-302.0618357903927" cy="770.2264949578431" r="52"/></g><g transform="translate(-302.0618357903927 770.2264949578431)"><g transform="scale(0.341797533203125) translate(0 0)"><g transform="translate(0 0)"><g font-family="sans-serif" font-size="50" font-weight="normal" fill="#000000" text-anchor="middle"><text xml:space="preserve" x="0" y="14.5" stroke="none">properties</text><text xml:space="preserve" x="0" y="74.5" stroke="none" text-anchor="middle"></text></g></g></g></g></g><g class="node"><g fill="#ffffff" stroke="#000000" stroke-width="4"><circle cx="-290.1301681930784" cy="629.6822008093857" r="52"/></g><g transform="translate(-290.1301681930784 629.6822008093857)"><g transform="scale(0.3984381015624999) translate(0 0)"><g transform="translate(0 0)"><g font-family="sans-serif" font-size="50" font-weight="normal" fill="#000000" text-anchor="middle"><text xml:space="preserve" x="0" y="14.5" stroke="none">relations</text></g></g></g></g></g><g class="node"><g fill="#ffffff" stroke="#000000" stroke-width="4"><circle cx="-787.0902872538898" cy="484.4409371788365" r="52"/></g><g transform="translate(-787.0902872538898 484.4409371788365)"><g transform="scale(0.27343822656249994) translate(0 0)"><g transform="translate(0 0)"><g font-family="sans-serif" font-size="50" font-weight="normal" fill="#000000" text-anchor="middle"><text xml:space="preserve" x="0" y="-45.5" stroke="none">Ontology-</text><text xml:space="preserve" x="0" y="14.5" stroke="none" text-anchor="middle">based data</text><text xml:space="preserve" x="0" y="74.5" stroke="none" text-anchor="middle">integration</text></g></g></g></g></g><g class="node"><g fill="#ffffff" stroke="#000000" stroke-width="4"><circle cx="-823.4139322884218" cy="689.3560662467056" r="52"/></g><g transform="translate(-823.4139322884218 689.3560662467056)"><g transform="scale(0.27343822656249994) translate(0 0)"><g transform="translate(0 0)"><g font-family="sans-serif" font-size="50" font-weight="normal" fill="#000000" text-anchor="middle"><text xml:space="preserve" x="0" y="-45.5" stroke="none">Enterprise</text><text xml:space="preserve" x="0" y="14.5" stroke="none" text-anchor="middle">information</text><text xml:space="preserve" x="0" y="74.5" stroke="none" text-anchor="middle">integration</text></g></g></g></g></g><g class="node"><g fill="#ffffff" stroke="#000000" stroke-width="4"><circle cx="500.8696303553237" cy="357.53537559093485" r="52"/></g><g transform="translate(500.8696303553237 357.53537559093485)"><g transform="scale(0.41796933203125) translate(0 0)"><g transform="translate(0 0)"><g font-family="sans-serif" font-size="50" font-weight="normal" fill="#000000" text-anchor="middle"><text xml:space="preserve" x="0" y="14.5" stroke="none">Portfolio</text></g></g></g></g></g><g class="node"><g fill="#ffffff" stroke="#000000" stroke-width="4"><circle cx="-823.4139322884218" cy="20.907174200091106" r="52"/></g><g transform="translate(-823.4139322884218 20.907174200091106)"><g transform="scale(0.47265677734375) translate(0 0)"><g transform="translate(0 0)"><g font-family="sans-serif" font-size="50" font-weight="normal" fill="#000000" text-anchor="middle"><text xml:space="preserve" x="0" y="14.5" stroke="none">Graphs</text></g></g></g></g></g><g class="node"><g fill="#ffffff" stroke="#000000" stroke-width="4"><circle cx="-638.1699638627032" cy="-146.10498811807827" r="52"/></g><g transform="translate(-638.1699638627032 -146.10498811807827)"><g transform="scale(0.7421877578125) translate(0 0)"><g transform="translate(0 0)"><g font-family="sans-serif" font-size="50" font-weight="normal" fill="#000000" text-anchor="middle"><text xml:space="preserve" x="0" y="14.5" stroke="none">RAG</text></g></g></g></g></g><g class="node"><g fill="#ffffff" stroke="#000000" stroke-width="4"><circle cx="-372.64788337889183" cy="-162.89975438311308" r="52"/></g><g transform="translate(-372.64788337889183 -162.89975438311308)"><g transform="scale(0.5546879453125) translate(0 0)"><g transform="translate(0 0)"><g font-family="sans-serif" font-size="50" font-weight="normal" fill="#000000" text-anchor="middle"><text xml:space="preserve" x="0" y="14.5" stroke="none">GenAI</text></g></g></g></g></g></g></svg>