<svg xmlns="http://www.w3.org/2000/svg" width="656" height="777" viewBox="0 0 656 777"><defs><style type="text/css"/></defs><g transform="translate(-21 29) scale(1)"><g class="relationship"><g transform="translate(483.6200099510494 217.86497995456628) rotate(-129.18940862359543)" stroke-width="5" stroke="#cccccc"><path d="M 59 0 L 107.72069003858039 0"/><polygon points="-24.8621506177483,0 -27.62461179749811,9.20820393249937 0,0 -27.62461179749811,-9.20820393249937" fill="#cccccc" transform="translate(132.58284065632867 0) rotate(0)" stroke="none"/></g></g><g class="relationship"><g transform="translate(344.8173258658693 511.3775385115952) rotate(90)" stroke-width="5" stroke="#333333"><path d="M 59 0 L 48.22779615005281 0"/><polygon points="-24.8621506177483,0 -27.62461179749811,9.20820393249937 0,0 -27.62461179749811,-9.20820393249937" fill="#333333" transform="translate(73.08994676780111 0) rotate(0)" stroke="none"/></g></g><g class="relationship"><g transform="translate(344.8173258658693 217.86497995456628) rotate(-89.33547493572185)" stroke-width="5" stroke="#cccccc"><path d="M 59 0 L 59.014120324069054 0"/><polygon points="-24.8621506177483,0 -27.62461179749811,9.20820393249937 0,0 -27.62461179749811,-9.20820393249937" fill="#cccccc" transform="translate(83.87627094181735 0) rotate(0)" stroke="none"/></g></g><g class="relationship"><g transform="translate(622.4226940362295 383.34178788124404) rotate(155.24014129443424)" stroke-width="5" stroke="#808900"><path d="M 59 0 L 221.84668778323524 0"/><polygon points="-24.8621506177483,0 -27.62461179749811,9.20820393249937 0,0 -27.62461179749811,-9.20820393249937" fill="#808900" transform="translate(246.70883840098355 0) rotate(0)" stroke="none"/></g></g><g class="relationship"><g transform="translate(435.83434590076774 383.34178788124404) rotate(-73.89257307670997)" stroke-width="5" stroke="#fb9e00"><path d="M 59 0 L 88.37618324068457 0"/><polygon points="-24.8621506177483,0 -27.62461179749811,9.20820393249937 0,0 -27.62461179749811,-9.20820393249937" fill="#fb9e00" transform="translate(113.23833385843287 0) rotate(0)" stroke="none"/></g></g><g class="relationship"><g transform="translate(75 217.86497995456628) rotate(-31.703037671885934)" stroke-width="5" stroke="#cccccc"><path d="M 59 0 L 210.56625459522454 0"/><polygon points="-24.8621506177483,0 -27.62461179749811,9.20820393249937 0,0 -27.62461179749811,-9.20820393249937" fill="#cccccc" transform="translate(235.42840521297285 0) rotate(0)" stroke="none"/></g></g><g class="relationship"><g transform="translate(622.4226940362295 383.34178788124404) rotate(-163.18080313917935)" stroke-width="5" stroke="#808900"><path d="M 59 0 L 488.02435902160835 0"/><polygon points="-24.8621506177483,0 -27.62461179749811,9.20820393249937 0,0 -27.62461179749811,-9.20820393249937" fill="#808900" transform="translate(512.8865096393566 0) rotate(0)" stroke="none"/></g></g><g class="relationship"><g transform="translate(249.245997765305 383.34178788124404) rotate(-59.99136661667222)" stroke-width="5" stroke="#0062b1"><path d="M 59 0 L 107.23063500355221 0"/><polygon points="-24.8621506177483,0 -27.62461179749811,9.20820393249937 0,0 -27.62461179749811,-9.20820393249937" fill="#0062b1" transform="translate(132.0927856213005 0) rotate(0)" stroke="none"/></g></g><g class="relationship"><g transform="translate(622.4226940362295 217.86497995456628) rotate(-148.66024697658167)" stroke-width="5" stroke="#cccccc"><path d="M 59 0 L 213.8857101136583 0"/><polygon points="-24.8621506177483,0 -27.62461179749811,9.20820393249937 0,0 -27.62461179749811,-9.20820393249937" fill="#cccccc" transform="translate(238.7478607314066 0) rotate(0)" stroke="none"/></g></g><g class="relationship"><g transform="translate(249.245997765305 383.34178788124404) rotate(-23.913814780553622)" stroke-width="5" stroke="#0062b1"><path d="M 59 0 L 324.35766835394793 0"/><polygon points="-24.8621506177483,0 -27.62461179749811,9.20820393249937 0,0 -27.62461179749811,-9.20820393249937" fill="#0062b1" transform="translate(349.2198189716962 0) rotate(0)" stroke="none"/></g></g><g class="relationship"><g transform="translate(209.90866293293465 217.86497995456628) rotate(-50.81059137640457)" stroke-width="5" stroke="#cccccc"><path d="M 59 0 L 107.72069003858033 0"/><polygon points="-24.8621506177483,0 -27.62461179749811,9.20820393249937 0,0 -27.62461179749811,-9.20820393249937" fill="#cccccc" transform="translate(132.5828406563286 0) rotate(0)" stroke="none"/></g></g><g class="relationship"><g transform="translate(75 383.34178788124404) rotate(-50.81059137640456)" stroke-width="5" stroke="#9f0500"><path d="M 59 0 L 129.6394214981375 0"/><polygon points="-24.8621506177483,0 -27.62461179749811,9.20820393249937 0,0 -27.62461179749811,-9.20820393249937" fill="#9f0500" transform="translate(154.50157211588578 0) rotate(0)" stroke="none"/></g></g><g class="relationship"><g transform="translate(435.83434590076774 383.34178788124404) rotate(-143.77949388375325)" stroke-width="5" stroke="#fb9e00"><path d="M 59 0 L 196.18246758814476 0"/><polygon points="-24.8621506177483,0 -27.62461179749811,9.20820393249937 0,0 -27.62461179749811,-9.20820393249937" fill="#fb9e00" transform="translate(221.04461820589307 0) rotate(0)" stroke="none"/></g></g><g class="relationship"><g transform="translate(622.4226940362295 383.34178788124404) rotate(-158.14219353058783)" stroke-width="5" stroke="#808900"><path d="M 59 0 L 360.6042708571396 0"/><polygon points="-24.8621506177483,0 -27.62461179749811,9.20820393249937 0,0 -27.62461179749811,-9.20820393249937" fill="#808900" transform="translate(385.4664214748879 0) rotate(0)" stroke="none"/></g></g><g class="relationship"><g transform="translate(75 383.34178788124404) rotate(-90)" stroke-width="5" stroke="#9f0500"><path d="M 59 0 L 81.61465730892947 0"/><polygon points="-24.8621506177483,0 -27.62461179749811,9.20820393249937 0,0 -27.62461179749811,-9.20820393249937" fill="#9f0500" transform="translate(106.47680792667776 0) rotate(0)" stroke="none"/></g></g><g class="relationship"><g transform="translate(435.83434590076774 383.34178788124404) rotate(-155.3640492270569)" stroke-width="5" stroke="#fb9e00"><path d="M 59 0 L 313.1063609083393 0"/><polygon points="-24.8621506177483,0 -27.62461179749811,9.20820393249937 0,0 -27.62461179749811,-9.20820393249937" fill="#fb9e00" transform="translate(337.9685115260876 0) rotate(0)" stroke="none"/></g></g><g class="relationship"><g transform="translate(75 383.34178788124404) rotate(-16.81919686082066)" stroke-width="5" stroke="#9f0500"><path d="M 59 0 L 488.02435902160835 0"/><polygon points="-24.8621506177483,0 -27.62461179749811,9.20820393249937 0,0 -27.62461179749811,-9.20820393249937" fill="#9f0500" transform="translate(512.8865096393566 0) rotate(0)" stroke="none"/></g></g><g class="relationship"><g transform="translate(435.83434590076774 383.34178788124404) rotate(125.4079523271637)" stroke-width="5" stroke="#fb9e00"><path d="M 59 0 L 73.22779615005278 0"/><polygon points="-24.8621506177483,0 -27.62461179749811,9.20820393249937 0,0 -27.62461179749811,-9.20820393249937" fill="#fb9e00" transform="translate(98.08994676780108 0) rotate(0)" stroke="none"/></g></g><g class="relationship"><g transform="translate(249.245997765305 383.34178788124404) rotate(-103.37221151448523)" stroke-width="5" stroke="#0062b1"><path d="M 59 0 L 86.22606141740899 0"/><polygon points="-24.8621506177483,0 -27.62461179749811,9.20820393249937 0,0 -27.62461179749811,-9.20820393249937" fill="#0062b1" transform="translate(111.08821203515728 0) rotate(0)" stroke="none"/></g></g><g class="node"><g fill="#9f0500" stroke="#000000" stroke-width="4"><circle cx="75" cy="383.34178788124404" r="52"/></g><g transform="translate(75 383.34178788124404)"><g transform="scale(0.35507392594967263) translate(0 -89)"><g transform="translate(0 0)"><g fill="#ffffff" font-family="sans-serif" font-size="50" font-weight="normal" text-anchor="middle"><text xml:space="preserve" x="0" y="44.5" stroke="none">Neo4j</text><text xml:space="preserve" x="0" y="104.5" stroke="none" text-anchor="middle">Bloom</text></g></g><g transform="translate(0 124)"><g transform="translate(-90.2249984741211 0)"><g fill="#ffffff" stroke="#000000" stroke-width="4"><rect x="0" y="0" width="180.4499969482422" height="54" rx="27" ry="27"/><text xml:space="preserve" x="27" y="39" stroke="none" font-family="sans-serif" font-size="40" font-weight="normal" fill="#4d4d4d">Bloom</text></g></g></g></g></g></g><g class="node"><g fill="#0062b1" stroke="#000000" stroke-width="4"><circle cx="249.245997765305" cy="383.34178788124404" r="52"/></g><g transform="translate(249.245997765305 383.34178788124404)"><g transform="scale(0.323748364368754) translate(0 -89)"><g transform="translate(0 0)"><g fill="#ffffff" font-family="sans-serif" font-size="50" font-weight="normal" text-anchor="middle"><text xml:space="preserve" x="0" y="44.5" stroke="none">Neo4j</text><text xml:space="preserve" x="0" y="104.5" stroke="none" text-anchor="middle">Desktop</text></g></g><g transform="translate(0 124)"><g transform="translate(-106.76667022705078 0)"><g fill="#ffffff" stroke="#000000" stroke-width="4"><rect x="0" y="0" width="213.53334045410156" height="54" rx="27" ry="27"/><text xml:space="preserve" x="27" y="39" stroke="none" font-family="sans-serif" font-size="40" font-weight="normal" fill="#4d4d4d">desktop</text></g></g></g></g></g></g><g class="node"><g fill="#fb9e00" stroke="#000000" stroke-width="4"><circle cx="435.83434590076774" cy="383.34178788124404" r="52"/></g><g transform="translate(435.83434590076774 383.34178788124404)"><g transform="scale(0.31595805677498606) translate(0 -89)"><g transform="translate(0 0)"><g fill="#ffffff" font-family="sans-serif" font-size="50" font-weight="normal" text-anchor="middle"><text xml:space="preserve" x="0" y="44.5" stroke="none">Neo4j</text><text xml:space="preserve" x="0" y="104.5" stroke="none" text-anchor="middle">sandbox</text></g></g><g transform="translate(0 124)"><g transform="translate(-111.19166564941406 0)"><g fill="#ffffff" stroke="#000000" stroke-width="4"><rect x="0" y="0" width="222.38333129882812" height="54" rx="27" ry="27"/><text xml:space="preserve" x="27" y="39" stroke="none" font-family="sans-serif" font-size="40" font-weight="normal" fill="#4d4d4d">sandbox</text></g></g></g></g></g></g><g class="node"><g fill="#cccccc" stroke="#000000" stroke-width="4"><circle cx="346.764336441992" cy="50" r="77"/></g><g transform="translate(346.764336441992 50)"><g transform="scale(0.287110087890625) translate(0 0)"><g transform="translate(0 0)"><g font-family="sans-serif" font-size="75" font-weight="normal" fill="#000000" text-anchor="middle"><text xml:space="preserve" x="0" y="21.5" stroke="none">Advantages</text></g></g></g></g></g><g class="node"><g fill="#333333" stroke="#000000" stroke-width="4"><circle cx="344.8173258658693" cy="668.4674852793963" r="77"/></g><g transform="translate(344.8173258658693 668.4674852793963)"><g transform="scale(0.228516396484375) translate(0 0)"><g transform="translate(0 0)"><g font-family="sans-serif" font-size="75" font-weight="normal" fill="#ffffff" text-anchor="middle"><text xml:space="preserve" x="0" y="21.5" stroke="none">Disadvantages</text></g></g></g></g></g><g class="node"><g fill="#cccccc" stroke="#000000" stroke-width="4"><circle cx="483.6200099510494" cy="217.86497995456628" r="52"/></g><g transform="translate(483.6200099510494 217.86497995456628)"><g transform="scale(0.25748566421464997) translate(0 -118)"><g transform="translate(0 0)"><g fill="#000000" font-family="sans-serif" font-size="50" font-weight="normal" text-anchor="middle"><text xml:space="preserve" x="0" y="44.5" stroke="none">Pre-linked</text><text xml:space="preserve" x="0" y="104.5" stroke="none" text-anchor="middle">databases</text></g></g><g transform="translate(0 124)"><g transform="translate(-113.83333587646484 0)"><g fill="#ffffff" stroke="#4d4d4d" stroke-width="4"><rect x="0" y="0" width="227.6666717529297" height="54" rx="27" ry="27"/><text xml:space="preserve" x="27" y="39" stroke="none" font-family="sans-serif" font-size="40" font-weight="normal" fill="#4d4d4d">Learning</text></g></g><g transform="translate(-111.19166564941406 62)"><g fill="#ffffff" stroke="#4d4d4d" stroke-width="4"><rect x="0" y="0" width="222.38333129882812" height="54" rx="27" ry="27"/><text xml:space="preserve" x="27" y="39" stroke="none" font-family="sans-serif" font-size="40" font-weight="normal" fill="#4d4d4d">sandbox</text></g></g></g></g></g></g><g class="node"><g fill="#333333" stroke="#000000" stroke-width="4"><circle cx="344.8173258658693" cy="511.3775385115952" r="52"/></g><g transform="translate(344.8173258658693 511.3775385115952)"><g transform="scale(0.1915108868457057) translate(0 -207)"><g transform="translate(0 0)"><g fill="#ffffff" font-family="sans-serif" font-size="50" font-weight="normal" text-anchor="middle"><text xml:space="preserve" x="0" y="44.5" stroke="none">Data</text><text xml:space="preserve" x="0" y="104.5" stroke="none" text-anchor="middle">deletion</text><text xml:space="preserve" x="0" y="164.5" stroke="none" text-anchor="middle">in 3</text><text xml:space="preserve" x="0" y="224.5" stroke="none" text-anchor="middle">days</text></g></g><g transform="translate(0 244)"><g transform="translate(-111.19166564941406 0)"><g fill="#ffffff" stroke="#000000" stroke-width="4"><rect x="0" y="0" width="222.38333129882812" height="54" rx="27" ry="27"/><text xml:space="preserve" x="27" y="39" stroke="none" font-family="sans-serif" font-size="40" font-weight="normal" fill="#000000">sandbox</text></g></g><g transform="translate(-73.84166717529297 62)"><g fill="#ffffff" stroke="#000000" stroke-width="4"><rect x="0" y="0" width="147.68333435058594" height="54" rx="27" ry="27"/><text xml:space="preserve" x="27" y="39" stroke="none" font-family="sans-serif" font-size="40" font-weight="normal" fill="#000000">Aura</text></g></g><g transform="translate(-90.2249984741211 124)"><g fill="#ffffff" stroke="#000000" stroke-width="4"><rect x="0" y="0" width="180.4499969482422" height="54" rx="27" ry="27"/><text xml:space="preserve" x="27" y="39" stroke="none" font-family="sans-serif" font-size="40" font-weight="normal" fill="#000000">Bloom</text></g></g></g></g></g></g><g class="node"><g fill="#cccccc" stroke="#000000" stroke-width="4"><circle cx="344.8173258658693" cy="217.86497995456628" r="52"/></g><g transform="translate(344.8173258658693 217.86497995456628)"><g transform="scale(0.30572900223923233) translate(0 -89)"><g transform="translate(0 0)"><g fill="#000000" font-family="sans-serif" font-size="50" font-weight="normal" text-anchor="middle"><text xml:space="preserve" x="0" y="44.5" stroke="none">Data</text><text xml:space="preserve" x="0" y="104.5" stroke="none" text-anchor="middle">retension</text></g></g><g transform="translate(0 124)"><g transform="translate(-106.76667022705078 0)"><g fill="#ffffff" stroke="#4d4d4d" stroke-width="4"><rect x="0" y="0" width="213.53334045410156" height="54" rx="27" ry="27"/><text xml:space="preserve" x="27" y="39" stroke="none" font-family="sans-serif" font-size="40" font-weight="normal" fill="#4d4d4d">desktop</text></g></g></g></g></g></g><g class="node"><g fill="#808900" stroke="#000000" stroke-width="4"><circle cx="622.4226940362295" cy="383.34178788124404" r="52"/></g><g transform="translate(622.4226940362295 383.34178788124404)"><g transform="scale(0.38912441609930015) translate(0 -89)"><g transform="translate(0 0)"><g fill="#ffffff" font-family="sans-serif" font-size="50" font-weight="normal" text-anchor="middle"><text xml:space="preserve" x="0" y="44.5" stroke="none">Neo4j</text><text xml:space="preserve" x="0" y="104.5" stroke="none" text-anchor="middle">Aura</text></g></g><g transform="translate(0 124)"><g transform="translate(-73.84166717529297 0)"><g fill="#ffffff" stroke="#000000" stroke-width="4"><rect x="0" y="0" width="147.68333435058594" height="54" rx="27" ry="27"/><text xml:space="preserve" x="27" y="39" stroke="none" font-family="sans-serif" font-size="40" font-weight="normal" fill="#4d4d4d">Aura</text></g></g></g></g></g></g><g class="node"><g fill="#cccccc" stroke="#000000" stroke-width="4"><circle cx="75" cy="217.86497995456628" r="52"/></g><g transform="translate(75 217.86497995456628)"><g transform="scale(0.22318562230967307) translate(0 -147)"><g transform="translate(0 0)"><g fill="#000000" font-family="sans-serif" font-size="50" font-weight="normal" text-anchor="middle"><text xml:space="preserve" x="0" y="44.5" stroke="none">No</text><text xml:space="preserve" x="0" y="104.5" stroke="none" text-anchor="middle">installation</text></g></g><g transform="translate(0 124)"><g transform="translate(-90.2249984741211 0)"><g fill="#ffffff" stroke="#4d4d4d" stroke-width="4"><rect x="0" y="0" width="180.4499969482422" height="54" rx="27" ry="27"/><text xml:space="preserve" x="27" y="39" stroke="none" font-family="sans-serif" font-size="40" font-weight="normal" fill="#4d4d4d">Bloom</text></g></g><g transform="translate(-111.19166564941406 62)"><g fill="#ffffff" stroke="#4d4d4d" stroke-width="4"><rect x="0" y="0" width="222.38333129882812" height="54" rx="27" ry="27"/><text xml:space="preserve" x="27" y="39" stroke="none" font-family="sans-serif" font-size="40" font-weight="normal" fill="#4d4d4d">sandbox</text></g></g><g transform="translate(-73.84166717529297 124)"><g fill="#ffffff" stroke="#4d4d4d" stroke-width="4"><rect x="0" y="0" width="147.68333435058594" height="54" rx="27" ry="27"/><text xml:space="preserve" x="27" y="39" stroke="none" font-family="sans-serif" font-size="40" font-weight="normal" fill="#4d4d4d">Aura</text></g></g></g></g></g></g><g class="node"><g fill="#cccccc" stroke="#000000" stroke-width="4"><circle cx="622.4226940362295" cy="217.86497995456628" r="52"/></g><g transform="translate(622.4226940362295 217.86497995456628)"><g transform="scale(0.22900388049568118) translate(0 -117)"><g transform="translate(0 0)"><g fill="#000000" font-family="sans-serif" font-size="50" font-weight="normal" text-anchor="middle"><text xml:space="preserve" x="0" y="44.5" stroke="none">Visualization</text></g></g><g transform="translate(0 64)"><g transform="translate(-90.2249984741211 0)"><g fill="#ffffff" stroke="#4d4d4d" stroke-width="4"><rect x="0" y="0" width="180.4499969482422" height="54" rx="27" ry="27"/><text xml:space="preserve" x="27" y="39" stroke="none" font-family="sans-serif" font-size="40" font-weight="normal" fill="#4d4d4d">Bloom</text></g></g><g transform="translate(-111.19166564941406 62)"><g fill="#ffffff" stroke="#4d4d4d" stroke-width="4"><rect x="0" y="0" width="222.38333129882812" height="54" rx="27" ry="27"/><text xml:space="preserve" x="27" y="39" stroke="none" font-family="sans-serif" font-size="40" font-weight="normal" fill="#4d4d4d">sandbox</text></g></g><g transform="translate(-106.76667022705078 124)"><g fill="#ffffff" stroke="#4d4d4d" stroke-width="4"><rect x="0" y="0" width="213.53334045410156" height="54" rx="27" ry="27"/><text xml:space="preserve" x="27" y="39" stroke="none" font-family="sans-serif" font-size="40" font-weight="normal" fill="#4d4d4d">desktop</text></g></g></g></g></g></g><g class="node"><g fill="#cccccc" stroke="#000000" stroke-width="4"><circle cx="209.90866293293465" cy="217.86497995456628" r="52"/></g><g transform="translate(209.90866293293465 217.86497995456628)"><g transform="scale(0.19223119822212) translate(0 -206)"><g transform="translate(0 0)"><g fill="#000000" font-family="sans-serif" font-size="50" font-weight="normal" text-anchor="middle"><text xml:space="preserve" x="0" y="44.5" stroke="none">Link to</text><text xml:space="preserve" x="0" y="104.5" stroke="none" text-anchor="middle">remote</text><text xml:space="preserve" x="0" y="164.5" stroke="none" text-anchor="middle">data</text></g></g><g transform="translate(0 184)"><g transform="translate(-90.2249984741211 0)"><g fill="#ffffff" stroke="#4d4d4d" stroke-width="4"><rect x="0" y="0" width="180.4499969482422" height="54" rx="27" ry="27"/><text xml:space="preserve" x="27" y="39" stroke="none" font-family="sans-serif" font-size="40" font-weight="normal" fill="#4d4d4d">Bloom</text></g></g><g transform="translate(-111.19166564941406 62)"><g fill="#ffffff" stroke="#4d4d4d" stroke-width="4"><rect x="0" y="0" width="222.38333129882812" height="54" rx="27" ry="27"/><text xml:space="preserve" x="27" y="39" stroke="none" font-family="sans-serif" font-size="40" font-weight="normal" fill="#4d4d4d">sandbox</text></g></g><g transform="translate(-73.84166717529297 124)"><g fill="#ffffff" stroke="#4d4d4d" stroke-width="4"><rect x="0" y="0" width="147.68333435058594" height="54" rx="27" ry="27"/><text xml:space="preserve" x="27" y="39" stroke="none" font-family="sans-serif" font-size="40" font-weight="normal" fill="#4d4d4d">Aura</text></g></g><g transform="translate(-106.76667022705078 186)"><g fill="#ffffff" stroke="#4d4d4d" stroke-width="4"><rect x="0" y="0" width="213.53334045410156" height="54" rx="27" ry="27"/><text xml:space="preserve" x="27" y="39" stroke="none" font-family="sans-serif" font-size="40" font-weight="normal" fill="#4d4d4d">desktop</text></g></g></g></g></g></g></g></svg>