<svg xmlns="http://www.w3.org/2000/svg" width="258" height="607" viewBox="0 0 258 607"><defs><style type="text/css"/></defs><g transform="translate(135.8020692125985 -168.22682310508876) scale(1)"><g class="relationship"><g transform="translate(-108.80206921259847 515.1323296476738) rotate(-90.00000000000001)" stroke-width="1" stroke="#A5ABB6"><path d="M 26.33607230551508 -5.950739073315302 L 39.90372445553387 -9.016403415577901 A 40 40 0 0 1 48.71963419377876 -10 L 78.90910799272518 -10 L 109.09858179167162 -10 A 40 40 0 0 1 117.91449152991652 -9.016403415577898 L 122.264518373005 -8.033497748975657 L 122.264518373005 -8.033497748975657"/><polygon points="-9.45,0 -10.5,3.5 0,0 -10.5,-3.5" fill="#A5ABB6" transform="translate(157.81821598545037 0) rotate(12.732395447351628) translate(-27 0)" stroke="none"/></g><g transform="translate(-118.80206921259848 436.22322165494865) rotate(89.99999999999999) translate(0 -7)"><g transform="translate(0 0)"><g transform="translate(-34.71666717529297 0)" fill="#ffffff" stroke="#000000" stroke-width="0"><rect x="0" y="0" width="69.43333435058594" height="14" rx="2" ry="2" stroke="none"/><text xml:space="preserve" x="2" y="10" stroke="none" text-anchor="left" font-family="sans-serif" font-size="10" font-weight="normal" fill="#000000">SHARE_WITH</text></g></g></g></g><g class="relationship"><g transform="translate(-108.80206921259848 357.31411366222346) rotate(90)" stroke-width="1" stroke="#A5ABB6"><path d="M 26.33607230551508 -5.950739073315302 L 39.90372445553387 -9.016403415577901 A 40 40 0 0 1 48.71963419377876 -10 L 78.90910799272518 -10 L 109.09858179167162 -10 A 40 40 0 0 1 117.91449152991652 -9.016403415577898 L 122.264518373005 -8.033497748975657 L 122.264518373005 -8.033497748975657"/><polygon points="-9.45,0 -10.5,3.5 0,0 -10.5,-3.5" fill="#A5ABB6" transform="translate(157.81821598545037 0) rotate(12.732395447351628) translate(-27 0)" stroke="none"/></g><g transform="translate(-98.80206921259848 436.22322165494865) rotate(270) translate(0 -7)"><g transform="translate(0 0)"><g transform="translate(-34.71666717529297 0)" fill="#ffffff" stroke="#000000" stroke-width="0"><rect x="0" y="0" width="69.43333435058594" height="14" rx="2" ry="2" stroke="none"/><text xml:space="preserve" x="2" y="10" stroke="none" text-anchor="left" font-family="sans-serif" font-size="10" font-weight="normal" fill="#000000">SHARE_WITH</text></g></g></g></g><g class="relationship"><g transform="translate(-108.80206921259847 515.1323296476738) rotate(66.98531463132282)" stroke-width="1" stroke="#A5ABB6"><path d="M 26.33607230551508 -5.950739073315302 L 39.90372445553387 -9.016403415577901 A 40 40 0 0 1 48.71963419377876 -10 L 126.5865118441538 -10 L 204.45338949452886 -10 A 40 40 0 0 1 213.26929923277373 -9.016403415577903 L 217.61932607586226 -8.033497748975657 L 217.61932607586226 -8.033497748975657"/><polygon points="-9.45,0 -10.5,3.5 0,0 -10.5,-3.5" fill="#A5ABB6" transform="translate(253.1730236883076 0) rotate(12.732395447351628) translate(-27 0)" stroke="none"/></g><g transform="translate(-50.106867547315424 627.7334765438837) rotate(66.98531463132282) translate(0 -7)"><g transform="translate(0 0)"><g transform="translate(-34.71666717529297 0)" fill="#ffffff" stroke="#000000" stroke-width="0"><rect x="0" y="0" width="69.43333435058594" height="14" rx="2" ry="2" stroke="none"/><text xml:space="preserve" x="2" y="10" stroke="none" text-anchor="left" font-family="sans-serif" font-size="10" font-weight="normal" fill="#000000">SHARE_WITH</text></g></g></g></g><g class="relationship"><g transform="translate(-9.819759395831042 748.1539644089505) rotate(-113.0146853686772)" stroke-width="1" stroke="#A5ABB6"><path d="M 26.33607230551508 -5.950739073315302 L 39.90372445553387 -9.016403415577901 A 40 40 0 0 1 48.71963419377876 -10 L 126.5865118441538 -10 L 204.45338949452886 -10 A 40 40 0 0 1 213.26929923277373 -9.016403415577903 L 217.61932607586226 -8.033497748975657 L 217.61932607586226 -8.033497748975657"/><polygon points="-9.45,0 -10.5,3.5 0,0 -10.5,-3.5" fill="#A5ABB6" transform="translate(253.1730236883076 0) rotate(12.732395447351628) translate(-27 0)" stroke="none"/></g><g transform="translate(-68.5149610611141 635.5528175127406) rotate(66.98531463132281) translate(0 -7)"><g transform="translate(0 0)"><g transform="translate(-34.71666717529297 0)" fill="#ffffff" stroke="#000000" stroke-width="0"><rect x="0" y="0" width="69.43333435058594" height="14" rx="2" ry="2" stroke="none"/><text xml:space="preserve" x="2" y="10" stroke="none" text-anchor="left" font-family="sans-serif" font-size="10" font-weight="normal" fill="#000000">SHARE_WITH</text></g></g></g></g><g class="relationship"><g transform="translate(-108.80206921259847 515.1323296476738) rotate(-38.56199781591518)" stroke-width="1" stroke="#A5ABB6"><path d="M 26.33607230551508 -5.950739073315302 L 39.90372445553387 -9.016403415577901 A 40 40 0 0 1 48.71963419377876 -10 L 126.58651184415383 -10 L 204.45338949452892 -10 A 40 40 0 0 1 213.2692992327738 -9.016403415577903 L 217.61932607586232 -8.033497748975657 L 217.61932607586232 -8.033497748975657"/><polygon points="-9.45,0 -10.5,3.5 0,0 -10.5,-3.5" fill="#A5ABB6" transform="translate(253.17302368830767 0) rotate(12.732395447351628) translate(-27 0)" stroke="none"/></g><g transform="translate(-16.053370453055976 428.4038806860918) rotate(-38.56199781591518) translate(0 -7)"><g transform="translate(0 0)"><g transform="translate(-34.71666717529297 0)" fill="#ffffff" stroke="#000000" stroke-width="0"><rect x="0" y="0" width="69.43333435058594" height="14" rx="2" ry="2" stroke="none"/><text xml:space="preserve" x="2" y="10" stroke="none" text-anchor="left" font-family="sans-serif" font-size="10" font-weight="normal" fill="#000000">SHARE_WITH</text></g></g></g></g><g class="relationship"><g transform="translate(89.16255042093638 357.31411366222346) rotate(141.4380021840848)" stroke-width="1" stroke="#A5ABB6"><path d="M 26.33607230551508 -5.950739073315302 L 39.90372445553387 -9.016403415577901 A 40 40 0 0 1 48.71963419377876 -10 L 126.58651184415383 -10 L 204.45338949452892 -10 A 40 40 0 0 1 213.2692992327738 -9.016403415577903 L 217.61932607586232 -8.033497748975657 L 217.61932607586232 -8.033497748975657"/><polygon points="-9.45,0 -10.5,3.5 0,0 -10.5,-3.5" fill="#A5ABB6" transform="translate(253.17302368830767 0) rotate(12.732395447351628) translate(-27 0)" stroke="none"/></g><g transform="translate(-3.586148338606108 444.0425626238055) rotate(321.43800218408484) translate(0 -7)"><g transform="translate(0 0)"><g transform="translate(-34.71666717529297 0)" fill="#ffffff" stroke="#000000" stroke-width="0"><rect x="0" y="0" width="69.43333435058594" height="14" rx="2" ry="2" stroke="none"/><text xml:space="preserve" x="2" y="10" stroke="none" text-anchor="left" font-family="sans-serif" font-size="10" font-weight="normal" fill="#000000">SHARE_WITH</text></g></g></g></g><g class="relationship"><g transform="translate(-108.80206921259848 357.31411366222346) rotate(0)" stroke-width="1" stroke="#A5ABB6"><path d="M 26.33607230551508 -5.950739073315302 L 39.90372445553387 -9.016403415577901 A 40 40 0 0 1 48.71963419377876 -10 L 98.98230981676744 -10 L 149.24498543975614 -10 A 40 40 0 0 1 158.06089517800106 -9.01640341557789 L 162.4109220210895 -8.033497748975657 L 162.4109220210895 -8.033497748975657"/><polygon points="-9.45,0 -10.5,3.5 0,0 -10.5,-3.5" fill="#A5ABB6" transform="translate(197.96461963353488 0) rotate(12.732395447351628) translate(-27 0)" stroke="none"/></g><g transform="translate(-9.819759395831042 347.31411366222346) rotate(0) translate(0 -7)"><g transform="translate(0 0)"><g transform="translate(-34.71666717529297 0)" fill="#ffffff" stroke="#000000" stroke-width="0"><rect x="0" y="0" width="69.43333435058594" height="14" rx="2" ry="2" stroke="none"/><text xml:space="preserve" x="2" y="10" stroke="none" text-anchor="left" font-family="sans-serif" font-size="10" font-weight="normal" fill="#000000">SHARE_WITH</text></g></g></g></g><g class="relationship"><g transform="translate(89.16255042093638 357.31411366222346) rotate(180)" stroke-width="1" stroke="#A5ABB6"><path d="M 26.33607230551508 -5.950739073315302 L 39.90372445553387 -9.016403415577901 A 40 40 0 0 1 48.71963419377876 -10 L 98.98230981676744 -10 L 149.24498543975614 -10 A 40 40 0 0 1 158.06089517800106 -9.01640341557789 L 162.4109220210895 -8.033497748975657 L 162.4109220210895 -8.033497748975657"/><polygon points="-9.45,0 -10.5,3.5 0,0 -10.5,-3.5" fill="#A5ABB6" transform="translate(197.96461963353488 0) rotate(12.732395447351628) translate(-27 0)" stroke="none"/></g><g transform="translate(-9.819759395831056 367.31411366222346) rotate(360) translate(0 -7)"><g transform="translate(0 0)"><g transform="translate(-34.71666717529297 0)" fill="#ffffff" stroke="#000000" stroke-width="0"><rect x="0" y="0" width="69.43333435058594" height="14" rx="2" ry="2" stroke="none"/><text xml:space="preserve" x="2" y="10" stroke="none" text-anchor="left" font-family="sans-serif" font-size="10" font-weight="normal" fill="#000000">SHARE_WITH</text></g></g></g></g><g class="relationship"><g transform="translate(-108.80206921259848 357.31411366222346) rotate(75.78834159229618)" stroke-width="1" stroke="#A5ABB6"><path d="M 26.33607230551508 -5.950739073315302 L 39.90372445553387 -9.016403415577901 A 40 40 0 0 1 48.71963419377876 -10 L 201.58948793797907 -10 L 354.4593416821794 -10 A 40 40 0 0 1 363.27525142042435 -9.01640341557789 L 367.62527826351277 -8.033497748975657 L 367.62527826351277 -8.033497748975657"/><polygon points="-9.45,0 -10.5,3.5 0,0 -10.5,-3.5" fill="#A5ABB6" transform="translate(403.17897587595814 0) rotate(12.732395447351628) translate(-27 0)" stroke="none"/></g><g transform="translate(-49.616960151531636 550.2789926234641) rotate(75.78834159229618) translate(0 -7)"><g transform="translate(0 0)"><g transform="translate(-34.71666717529297 0)" fill="#ffffff" stroke="#000000" stroke-width="0"><rect x="0" y="0" width="69.43333435058594" height="14" rx="2" ry="2" stroke="none"/><text xml:space="preserve" x="2" y="10" stroke="none" text-anchor="left" font-family="sans-serif" font-size="10" font-weight="normal" fill="#000000">SHARE_WITH</text></g></g></g></g><g class="relationship"><g transform="translate(-9.819759395831042 748.1539644089505) rotate(-104.21165840770385)" stroke-width="1" stroke="#A5ABB6"><path d="M 26.33607230551508 -5.950739073315302 L 39.90372445553387 -9.016403415577901 A 40 40 0 0 1 48.71963419377876 -10 L 201.58948793797907 -10 L 354.4593416821794 -10 A 40 40 0 0 1 363.27525142042435 -9.01640341557789 L 367.62527826351277 -8.033497748975657 L 367.62527826351277 -8.033497748975657"/><polygon points="-9.45,0 -10.5,3.5 0,0 -10.5,-3.5" fill="#A5ABB6" transform="translate(403.17897587595814 0) rotate(12.732395447351628) translate(-27 0)" stroke="none"/></g><g transform="translate(-69.00486845689791 555.1890854477099) rotate(75.78834159229616) translate(0 -7)"><g transform="translate(0 0)"><g transform="translate(-34.71666717529297 0)" fill="#ffffff" stroke="#000000" stroke-width="0"><rect x="0" y="0" width="69.43333435058594" height="14" rx="2" ry="2" stroke="none"/><text xml:space="preserve" x="2" y="10" stroke="none" text-anchor="left" font-family="sans-serif" font-size="10" font-weight="normal" fill="#000000">SHARE_WITH</text></g></g></g></g><g class="relationship"><g transform="translate(89.16255042093638 357.31411366222346) rotate(90)" stroke-width="1" stroke="#A5ABB6"><path d="M 26.33607230551508 -5.950739073315302 L 39.90372445553387 -9.016403415577901 A 40 40 0 0 1 48.71963419377876 -10 L 78.90910799272518 -10 L 109.09858179167162 -10 A 40 40 0 0 1 117.91449152991652 -9.016403415577898 L 122.264518373005 -8.033497748975657 L 122.264518373005 -8.033497748975657"/><polygon points="-9.45,0 -10.5,3.5 0,0 -10.5,-3.5" fill="#A5ABB6" transform="translate(157.81821598545037 0) rotate(12.732395447351628) translate(-27 0)" stroke="none"/></g><g transform="translate(99.16255042093638 436.22322165494865) rotate(270) translate(0 -7)"><g transform="translate(0 0)"><g transform="translate(-34.71666717529297 0)" fill="#ffffff" stroke="#000000" stroke-width="0"><rect x="0" y="0" width="69.43333435058594" height="14" rx="2" ry="2" stroke="none"/><text xml:space="preserve" x="2" y="10" stroke="none" text-anchor="left" font-family="sans-serif" font-size="10" font-weight="normal" fill="#000000">SHARE_WITH</text></g></g></g></g><g class="relationship"><g transform="translate(89.16255042093638 515.1323296476738) rotate(-90)" stroke-width="1" stroke="#A5ABB6"><path d="M 26.33607230551508 -5.950739073315302 L 39.90372445553387 -9.016403415577901 A 40 40 0 0 1 48.71963419377876 -10 L 78.90910799272518 -10 L 109.09858179167162 -10 A 40 40 0 0 1 117.91449152991652 -9.016403415577898 L 122.264518373005 -8.033497748975657 L 122.264518373005 -8.033497748975657"/><polygon points="-9.45,0 -10.5,3.5 0,0 -10.5,-3.5" fill="#A5ABB6" transform="translate(157.81821598545037 0) rotate(12.732395447351628) translate(-27 0)" stroke="none"/></g><g transform="translate(79.16255042093638 436.22322165494865) rotate(90) translate(0 -7)"><g transform="translate(0 0)"><g transform="translate(-34.71666717529297 0)" fill="#ffffff" stroke="#000000" stroke-width="0"><rect x="0" y="0" width="69.43333435058594" height="14" rx="2" ry="2" stroke="none"/><text xml:space="preserve" x="2" y="10" stroke="none" text-anchor="left" font-family="sans-serif" font-size="10" font-weight="normal" fill="#000000">SHARE_WITH</text></g></g></g></g><g class="relationship"><g transform="translate(89.16255042093638 515.1323296476738) rotate(180)" stroke-width="1" stroke="#A5ABB6"><path d="M 27 0 L 161.51461963353486 0"/><polygon points="-9.45,0 -10.5,3.5 0,0 -10.5,-3.5" fill="#A5ABB6" transform="translate(170.96461963353485 0) rotate(0)" stroke="none"/></g><g transform="translate(-5.094759395831048 515.1323296476738) rotate(360) translate(0 -7)"><g transform="translate(0 0)"><g transform="translate(-34.71666717529297 0)" fill="#ffffff" stroke="#000000" stroke-width="0"><rect x="0" y="0" width="69.43333435058594" height="14" rx="2" ry="2" stroke="none"/><text xml:space="preserve" x="2" y="10" stroke="none" text-anchor="left" font-family="sans-serif" font-size="10" font-weight="normal" fill="#000000">SHARE_WITH</text></g></g></g></g><g class="relationship"><g transform="translate(89.16255042093638 515.1323296476738) rotate(87.87077105730107)" stroke-width="1" stroke="#A5ABB6"><path d="M 26.33607230551508 -5.950739073315302 L 39.90372445553387 -9.016403415577901 A 40 40 0 0 1 48.71963419377876 -10 L 75.31721741696064 -10 L 101.91480064014254 -10 A 40 40 0 0 1 110.73071037838744 -9.016403415577898 L 115.08073722147593 -8.033497748975657 L 115.08073722147593 -8.033497748975657"/><polygon points="-9.45,0 -10.5,3.5 0,0 -10.5,-3.5" fill="#A5ABB6" transform="translate(150.6344348339213 0) rotate(12.732395447351628) translate(-27 0)" stroke="none"/></g><g transform="translate(101.95394455600956 590.0260107931144) rotate(87.87077105730107) translate(0 -7)"><g transform="translate(0 0)"><g transform="translate(-34.71666717529297 0)" fill="#ffffff" stroke="#000000" stroke-width="0"><rect x="0" y="0" width="69.43333435058594" height="14" rx="2" ry="2" stroke="none"/><text xml:space="preserve" x="2" y="10" stroke="none" text-anchor="left" font-family="sans-serif" font-size="10" font-weight="normal" fill="#000000">SHARE_WITH</text></g></g></g></g><g class="relationship"><g transform="translate(94.75914728556123 665.6627619903392) rotate(-92.12922894269896)" stroke-width="1" stroke="#A5ABB6"><path d="M 26.33607230551508 -5.950739073315302 L 39.90372445553387 -9.016403415577901 A 40 40 0 0 1 48.71963419377876 -10 L 75.31721741696064 -10 L 101.91480064014254 -10 A 40 40 0 0 1 110.73071037838744 -9.016403415577898 L 115.08073722147593 -8.033497748975657 L 115.08073722147593 -8.033497748975657"/><polygon points="-9.45,0 -10.5,3.5 0,0 -10.5,-3.5" fill="#A5ABB6" transform="translate(150.6344348339213 0) rotate(12.732395447351628) translate(-27 0)" stroke="none"/></g><g transform="translate(81.96775315048805 590.7690808448986) rotate(87.87077105730106) translate(0 -7)"><g transform="translate(0 0)"><g transform="translate(-34.71666717529297 0)" fill="#ffffff" stroke="#000000" stroke-width="0"><rect x="0" y="0" width="69.43333435058594" height="14" rx="2" ry="2" stroke="none"/><text xml:space="preserve" x="2" y="10" stroke="none" text-anchor="left" font-family="sans-serif" font-size="10" font-weight="normal" fill="#000000">SHARE_WITH</text></g></g></g></g><g class="relationship"><g transform="translate(-108.80206921259848 665.6627619903392) rotate(-90)" stroke-width="1" stroke="#A5ABB6"><path d="M 27 0 L 114.08043234266533 0"/><polygon points="-9.45,0 -10.5,3.5 0,0 -10.5,-3.5" fill="#A5ABB6" transform="translate(123.53043234266534 0) rotate(0)" stroke="none"/></g><g transform="translate(-108.80206921259848 595.1225458190065) rotate(90) translate(0 -7)"><g transform="translate(0 0)"><g transform="translate(-34.71666717529297 0)" fill="#ffffff" stroke="#000000" stroke-width="0"><rect x="0" y="0" width="69.43333435058594" height="14" rx="2" ry="2" stroke="none"/><text xml:space="preserve" x="2" y="10" stroke="none" text-anchor="left" font-family="sans-serif" font-size="10" font-weight="normal" fill="#000000">SHARE_WITH</text></g></g></g></g><g class="relationship"><g transform="translate(-108.80206921259848 665.6627619903392) rotate(-37.24901659496657)" stroke-width="1" stroke="#A5ABB6"><path d="M 27 0 L 212.24539941044324 0"/><polygon points="-9.45,0 -10.5,3.5 0,0 -10.5,-3.5" fill="#A5ABB6" transform="translate(221.69539941044323 0) rotate(0)" stroke="none"/></g><g transform="translate(-13.580917945550368 593.2574953577) rotate(-37.24901659496657) translate(0 -7)"><g transform="translate(0 0)"><g transform="translate(-34.71666717529297 0)" fill="#ffffff" stroke="#000000" stroke-width="0"><rect x="0" y="0" width="69.43333435058594" height="14" rx="2" ry="2" stroke="none"/><text xml:space="preserve" x="2" y="10" stroke="none" text-anchor="left" font-family="sans-serif" font-size="10" font-weight="normal" fill="#000000">SHARE_WITH</text></g></g></g></g><g class="relationship"><g transform="translate(-108.80206921259848 665.6627619903392) rotate(0)" stroke-width="1" stroke="#A5ABB6"><path d="M 26.33607230551508 -5.950739073315302 L 39.90372445553387 -9.016403415577901 A 40 40 0 0 1 48.71963419377876 -10 L 101.78060824907985 -10 L 154.84158230438095 -10 A 40 40 0 0 1 163.65749204262588 -9.01640341557789 L 168.00751888571432 -8.033497748975657 L 168.00751888571432 -8.033497748975657"/><polygon points="-9.45,0 -10.5,3.5 0,0 -10.5,-3.5" fill="#A5ABB6" transform="translate(203.5612164981597 0) rotate(12.732395447351628) translate(-27 0)" stroke="none"/></g><g transform="translate(-7.021460963518635 655.6627619903392) rotate(0) translate(0 -7)"><g transform="translate(0 0)"><g transform="translate(-34.71666717529297 0)" fill="#ffffff" stroke="#000000" stroke-width="0"><rect x="0" y="0" width="69.43333435058594" height="14" rx="2" ry="2" stroke="none"/><text xml:space="preserve" x="2" y="10" stroke="none" text-anchor="left" font-family="sans-serif" font-size="10" font-weight="normal" fill="#000000">SHARE_WITH</text></g></g></g></g><g class="relationship"><g transform="translate(94.75914728556123 665.6627619903392) rotate(180)" stroke-width="1" stroke="#A5ABB6"><path d="M 26.33607230551508 -5.950739073315302 L 39.90372445553387 -9.016403415577901 A 40 40 0 0 1 48.71963419377876 -10 L 101.78060824907985 -10 L 154.84158230438095 -10 A 40 40 0 0 1 163.65749204262588 -9.01640341557789 L 168.00751888571432 -8.033497748975657 L 168.00751888571432 -8.033497748975657"/><polygon points="-9.45,0 -10.5,3.5 0,0 -10.5,-3.5" fill="#A5ABB6" transform="translate(203.5612164981597 0) rotate(12.732395447351628) translate(-27 0)" stroke="none"/></g><g transform="translate(-7.021460963518621 675.6627619903392) rotate(360) translate(0 -7)"><g transform="translate(0 0)"><g transform="translate(-34.71666717529297 0)" fill="#ffffff" stroke="#000000" stroke-width="0"><rect x="0" y="0" width="69.43333435058594" height="14" rx="2" ry="2" stroke="none"/><text xml:space="preserve" x="2" y="10" stroke="none" text-anchor="left" font-family="sans-serif" font-size="10" font-weight="normal" fill="#000000">SHARE_WITH</text></g></g></g></g><g class="relationship"><g transform="translate(-9.819759395831042 748.1539644089505) rotate(-75.78834159229618)" stroke-width="1" stroke="#A5ABB6"><path d="M 27 0 L 366.72897587595816 0"/><polygon points="-9.45,0 -10.5,3.5 0,0 -10.5,-3.5" fill="#A5ABB6" transform="translate(376.17897587595814 0) rotate(0)" stroke="none"/></g><g transform="translate(38.5113860828246 557.3144323727297) rotate(-75.78834159229618) translate(0 -7)"><g transform="translate(0 0)"><g transform="translate(-34.71666717529297 0)" fill="#ffffff" stroke="#000000" stroke-width="0"><rect x="0" y="0" width="69.43333435058594" height="14" rx="2" ry="2" stroke="none"/><text xml:space="preserve" x="2" y="10" stroke="none" text-anchor="left" font-family="sans-serif" font-size="10" font-weight="normal" fill="#000000">SHARE_WITH</text></g></g></g></g><g class="relationship"><g transform="translate(94.75914728556123 665.6627619903392) rotate(-143.51763623978417)" stroke-width="1" stroke="#A5ABB6"><path d="M 27 0 L 216.72302368830768 0"/><polygon points="-9.45,0 -10.5,3.5 0,0 -10.5,-3.5" fill="#A5ABB6" transform="translate(226.17302368830767 0) rotate(0)" stroke="none"/></g><g transform="translate(-3.2223723641820925 593.2069142203364) rotate(36.482363760215826) translate(0 -7)"><g transform="translate(0 0)"><g transform="translate(-34.71666717529297 0)" fill="#ffffff" stroke="#000000" stroke-width="0"><rect x="0" y="0" width="69.43333435058594" height="14" rx="2" ry="2" stroke="none"/><text xml:space="preserve" x="2" y="10" stroke="none" text-anchor="left" font-family="sans-serif" font-size="10" font-weight="normal" fill="#000000">SHARE_WITH</text></g></g></g></g><g class="node"><g fill="#4C8EDA" stroke="#2870c2" stroke-width="2"><circle cx="-108.80206921259847" cy="515.1323296476738" r="26"/></g><g transform="translate(-108.80206921259847 515.1323296476738)"><g transform="scale(1) translate(0 0)"><g transform="translate(0 0)"><g font-family="sans-serif" font-size="10" font-weight="normal" fill="#ffffff" text-anchor="middle"><text xml:space="preserve" x="0" y="3" stroke="none">Sales</text></g></g></g></g></g><g class="node"><g fill="#4C8EDA" stroke="#2870c2" stroke-width="2"><circle cx="-108.80206921259848" cy="357.31411366222346" r="26"/></g><g transform="translate(-108.80206921259848 357.31411366222346)"><g transform="scale(0.7773439726562501) translate(0 0)"><g transform="translate(0 0)"><g font-family="sans-serif" font-size="10" font-weight="normal" fill="#ffffff" text-anchor="middle"><text xml:space="preserve" x="0" y="3" stroke="none">Marketing</text></g></g></g></g></g><g class="node"><g fill="#4C8EDA" stroke="#2870c2" stroke-width="2"><circle cx="89.16255042093638" cy="357.31411366222346" r="26"/></g><g transform="translate(89.16255042093638 357.31411366222346)"><g transform="scale(0.58203166796875) translate(0 0)"><g transform="translate(0 0)"><g font-family="sans-serif" font-size="10" font-weight="normal" fill="#ffffff" text-anchor="middle"><text xml:space="preserve" x="0" y="-9" stroke="none">Product</text><text xml:space="preserve" x="0" y="3" stroke="none" text-anchor="middle">Development</text></g></g></g></g></g><g class="node"><g fill="#4C8EDA" stroke="#2870c2" stroke-width="2"><circle cx="89.16255042093638" cy="515.1323296476738" r="26"/></g><g transform="translate(89.16255042093638 515.1323296476738)"><g transform="scale(0.54296920703125) translate(0 0)"><g transform="translate(0 0)"><g font-family="sans-serif" font-size="10" font-weight="normal" fill="#ffffff" text-anchor="middle"><text xml:space="preserve" x="0" y="3" stroke="none">Manufacturing</text></g></g></g></g></g><g class="node"><g fill="#4C8EDA" stroke="#2870c2" stroke-width="2"><circle cx="-108.80206921259848" cy="665.6627619903392" r="26"/></g><g transform="translate(-108.80206921259848 665.6627619903392)"><g transform="scale(0.9921875078125) translate(0 0)"><g transform="translate(0 0)"><g font-family="sans-serif" font-size="10" font-weight="normal" fill="#ffffff" text-anchor="middle"><text xml:space="preserve" x="0" y="3" stroke="none">Finance</text></g></g></g></g></g><g class="node"><g fill="#4C8EDA" stroke="#2870c2" stroke-width="2"><circle cx="-9.819759395831042" cy="748.1539644089505" r="26"/></g><g transform="translate(-9.819759395831042 748.1539644089505)"><g transform="scale(0.7734377265625001) translate(0 0)"><g transform="translate(0 0)"><g font-family="sans-serif" font-size="10" font-weight="normal" fill="#ffffff" text-anchor="middle"><text xml:space="preserve" x="0" y="3" stroke="none">Customer</text><text xml:space="preserve" x="0" y="15" stroke="none" text-anchor="middle">Service</text></g></g></g></g></g><g class="node"><g fill="#4C8EDA" stroke="#2870c2" stroke-width="2"><circle cx="94.75914728556123" cy="665.6627619903392" r="26"/></g><g transform="translate(94.75914728556123 665.6627619903392)"><g transform="scale(0.578125421875) translate(0 0)"><g transform="translate(0 0)"><g font-family="sans-serif" font-size="10" font-weight="normal" fill="#ffffff" text-anchor="middle"><text xml:space="preserve" x="0" y="-21" stroke="none">Supply</text><text xml:space="preserve" x="0" y="-9" stroke="none" text-anchor="middle">Chain</text><text xml:space="preserve" x="0" y="3" stroke="none" text-anchor="middle">Management</text></g></g></g></g></g><g class="node"><g fill="#ffffff" stroke="#ffffff" stroke-width="2"><circle cx="-9.819759395831042" cy="245.22682310508876" r="76"/></g><g transform="translate(-9.819759395831042 245.22682310508876)"><g transform="scale(1) translate(0 0)"><g transform="translate(0 0)"><g font-family="sans-serif" font-size="19" font-weight="normal" fill="#333333" text-anchor="middle"><text xml:space="preserve" x="0" y="-5.9" stroke="none">Enterprise</text><text xml:space="preserve" x="0" y="16.900000000000002" stroke="none" text-anchor="middle">Data Sharing</text></g></g></g></g></g></g></svg>