<svg xmlns="http://www.w3.org/2000/svg" width="1274" height="798" viewBox="0 0 1274 798"><defs><style type="text/css"/></defs><g transform="translate(266.3017124424123 115) scale(1)"><g class="relationship"><g transform="translate(0 0) rotate(-12.184757623296777)" stroke-width="5" stroke="#000000"><path d="M 59 0 L 205.14866232875718 0"/><polygon points="-24.8621506177483,0 -27.62461179749811,9.20820393249937 0,0 -27.62461179749811,-9.20820393249937" fill="#000000" transform="translate(230.0108129465055 0) rotate(0)" stroke="none"/></g><g transform="translate(129.09897098155642 -27.876237981858203) rotate(-12.184757623296777) translate(0 -13)"><g transform="translate(0 0)"><g transform="translate(-37.86666488647461 0)" fill="#ffffff" stroke="#000000" stroke-width="0"><rect x="0" y="0" width="75.73332977294922" height="26" rx="5" ry="5" stroke="none"/><text xml:space="preserve" x="5" y="17.5" stroke="none" text-anchor="left" font-family="sans-serif" font-size="16" font-weight="normal" fill="#000000">affected</text></g></g></g></g><g class="relationship"><g transform="translate(0 0) rotate(17.774960807202266)" stroke-width="5" stroke="#000000"><path d="M 59 0 L 205.14866232875713 0"/><polygon points="-24.8621506177483,0 -27.62461179749811,9.20820393249937 0,0 -27.62461179749811,-9.20820393249937" fill="#000000" transform="translate(230.01081294650544 0) rotate(0)" stroke="none"/></g><g transform="translate(125.76948503771693 40.3195434729293) rotate(17.774960807202266) translate(0 -13)"><g transform="translate(0 0)"><g transform="translate(-37.86666488647461 0)" fill="#ffffff" stroke="#000000" stroke-width="0"><rect x="0" y="0" width="75.73332977294922" height="26" rx="5" ry="5" stroke="none"/><text xml:space="preserve" x="5" y="17.5" stroke="none" text-anchor="left" font-family="sans-serif" font-size="16" font-weight="normal" fill="#000000">affected</text></g></g></g></g><g class="relationship"><g transform="translate(275.2142736151705 88.2289838912022) rotate(29.999999999999993)" stroke-width="5" stroke="#000000"><path d="M 59 0 L 101.83246361414626 0"/><polygon points="-24.8621506177483,0 -27.62461179749811,9.20820393249937 0,0 -27.62461179749811,-9.20820393249937" fill="#000000" transform="translate(126.69461423189455 0) rotate(0)" stroke="none"/></g></g><g class="relationship"><g transform="translate(436.03052688594255 181.07629100714945) rotate(-18.143510739981398)" stroke-width="5" stroke="#000000"><path d="M 59 0 L 133.1471261372384 0"/><polygon points="-24.8621506177483,0 -27.62461179749811,9.20820393249937 0,0 -27.62461179749811,-9.20820393249937" fill="#000000" transform="translate(158.0092767549867 0) rotate(0)" stroke="none"/></g></g><g class="relationship"><g transform="translate(642.25 113.5) rotate(-11.546816845027438)" stroke-width="5" stroke="#000000"><path d="M 59 0 L 233.71238196630785 0"/><polygon points="-24.8621506177483,0 -27.62461179749811,9.20820393249937 0,0 -27.62461179749811,-9.20820393249937" fill="#000000" transform="translate(258.57453258405616 0) rotate(0)" stroke="none"/></g><g transform="translate(785.6441571660164 84.20409022158213) rotate(-11.546816845027438) translate(0 -13)"><g transform="translate(0 0)"><g transform="translate(-41.83333206176758 0)" fill="#ffffff" stroke="#000000" stroke-width="0"><rect x="0" y="0" width="83.66666412353516" height="26" rx="5" ry="5" stroke="none"/><text xml:space="preserve" x="5" y="17.5" stroke="none" text-anchor="left" font-family="sans-serif" font-size="16" font-weight="normal" fill="#000000">damages</text></g></g></g></g><g class="relationship"><g transform="translate(436.03052688594255 181.07629100714945) rotate(29.999999999999993)" stroke-width="5" stroke="#000000"><path d="M 59 0 L 133.14712613723833 0"/><polygon points="-24.8621506177483,0 -27.62461179749811,9.20820393249937 0,0 -27.62461179749811,-9.20820393249937" fill="#000000" transform="translate(158.00927675498662 0) rotate(0)" stroke="none"/></g></g><g class="relationship"><g transform="translate(436.03052688594255 181.07629100714945) rotate(90)" stroke-width="5" stroke="#000000"><path d="M 59 0 L 101.83246361414626 0"/><polygon points="-24.8621506177483,0 -27.62461179749811,9.20820393249937 0,0 -27.62461179749811,-9.20820393249937" fill="#000000" transform="translate(126.69461423189455 0) rotate(0)" stroke="none"/></g></g><g class="relationship"><g transform="translate(623.9660734126488 289.58092938464273) rotate(24.037535387819943)" stroke-width="5" stroke="#000000"><path d="M 59 0 L 218.2270744954695 0"/><polygon points="-24.8621506177483,0 -27.62461179749811,9.20820393249937 0,0 -27.62461179749811,-9.20820393249937" fill="#000000" transform="translate(243.08922511321782 0) rotate(0)" stroke="none"/></g><g transform="translate(750.5588786374528 346.04307930513363) rotate(24.037535387819943) translate(0 -13)"><g transform="translate(0 0)"><g transform="translate(-41.83333206176758 0)" fill="#ffffff" stroke="#000000" stroke-width="0"><rect x="0" y="0" width="83.66666412353516" height="26" rx="5" ry="5" stroke="none"/><text xml:space="preserve" x="5" y="17.5" stroke="none" text-anchor="left" font-family="sans-serif" font-size="16" font-weight="normal" fill="#000000">damages</text></g></g></g></g><g class="relationship"><g transform="translate(436.03052688594255 366.770905239044) rotate(90)" stroke-width="5" stroke="#000000"><path d="M 59 0 L 177.49700229231968 0"/><polygon points="-24.8621506177483,0 -27.62461179749811,9.20820393249937 0,0 -27.62461179749811,-9.20820393249937" fill="#000000" transform="translate(202.35915291006796 0) rotate(0)" stroke="none"/></g><g transform="translate(436.03052688594255 485.01940638520387) rotate(270) translate(0 -13)"><g transform="translate(0 0)"><g transform="translate(-41.83333206176758 0)" fill="#ffffff" stroke="#000000" stroke-width="0"><rect x="0" y="0" width="83.66666412353516" height="26" rx="5" ry="5" stroke="none"/><text xml:space="preserve" x="5" y="17.5" stroke="none" text-anchor="left" font-family="sans-serif" font-size="16" font-weight="normal" fill="#000000">damages</text></g></g></g></g><g class="relationship"><g transform="translate(0 0) rotate(139.5384882374078)" stroke-width="5" stroke="#000000"><path d="M 59 0 L 195.1730447804068 0"/><polygon points="-24.8621506177483,0 -27.62461179749811,9.20820393249937 0,0 -27.62461179749811,-9.20820393249937" fill="#000000" transform="translate(220.0351953981551 0) rotate(0)" stroke="none"/></g><g transform="translate(-96.69277129464774 82.47115952014144) rotate(319.5384882374078) translate(0 -13)"><g transform="translate(0 0)"><g transform="translate(-33.53333282470703 0)" fill="#ffffff" stroke="#000000" stroke-width="0"><rect x="0" y="0" width="67.06666564941406" height="26" rx="5" ry="5" stroke="none"/><text xml:space="preserve" x="5" y="17.5" stroke="none" text-anchor="left" font-family="sans-serif" font-size="16" font-weight="normal" fill="#000000">caused</text></g></g></g></g><g class="relationship"><g transform="translate(0 0) rotate(98.03402603468182)" stroke-width="5" stroke="#000000"><path d="M 59 0 L 162.9478307281995 0"/><polygon points="-24.8621506177483,0 -27.62461179749811,9.20820393249937 0,0 -27.62461179749811,-9.20820393249937" fill="#000000" transform="translate(187.8099813459478 0) rotate(0)" stroke="none"/></g><g transform="translate(-15.50984350215284 109.88473345181805) rotate(278.03402603468186) translate(0 -13)"><g transform="translate(0 0)"><g transform="translate(-33.53333282470703 0)" fill="#ffffff" stroke="#000000" stroke-width="0"><rect x="0" y="0" width="67.06666564941406" height="26" rx="5" ry="5" stroke="none"/><text xml:space="preserve" x="5" y="17.5" stroke="none" text-anchor="left" font-family="sans-serif" font-size="16" font-weight="normal" fill="#000000">caused</text></g></g></g></g><g class="node"><g fill="#ffffff" stroke="#000000" stroke-width="4"><circle cx="0" cy="0" r="52"/></g><g transform="translate(0 0)"><g transform="scale(0.37304750195312497) translate(0 0)"><g transform="translate(0 0)"><g font-family="sans-serif" font-size="50" font-weight="normal" fill="#000000" text-anchor="middle"><text xml:space="preserve" x="0" y="-15.5" stroke="none">Typhoon</text><text xml:space="preserve" x="0" y="44.5" stroke="none" text-anchor="middle">Damrey</text></g></g></g></g></g><g class="node"><g fill="#ffffff" stroke="#000000" stroke-width="4"><circle cx="282.5" cy="-61" r="52"/></g><g transform="translate(282.5 -61)"><g transform="scale(0.32421942578124996) translate(0 0)"><g transform="translate(0 0)"><g font-family="sans-serif" font-size="50" font-weight="normal" fill="#000000" text-anchor="middle"><text xml:space="preserve" x="0" y="-45.5" stroke="none">The</text><text xml:space="preserve" x="0" y="14.5" stroke="none" text-anchor="middle">Philippines</text></g></g></g></g></g><g class="node"><g fill="#ffffff" stroke="#000000" stroke-width="4"><circle cx="275.2142736151705" cy="88.2289838912022" r="52"/></g><g transform="translate(275.2142736151705 88.2289838912022)"><g transform="scale(0.41406308593749996) translate(0 0)"><g transform="translate(0 0)"><g font-family="sans-serif" font-size="50" font-weight="normal" fill="#000000" text-anchor="middle"><text xml:space="preserve" x="0" y="14.5" stroke="none">Vietnam</text></g></g></g></g></g><g class="node"><g fill="#ffffff" stroke="#000000" stroke-width="4"><circle cx="436.03052688594255" cy="181.07629100714945" r="52"/></g><g transform="translate(436.03052688594255 181.07629100714945)"><g transform="scale(0.36523500976562495) translate(0 0)"><g transform="translate(0 0)"><g font-family="sans-serif" font-size="50" font-weight="normal" fill="#000000" text-anchor="middle"><text xml:space="preserve" x="0" y="14.5" stroke="none">Provinces</text></g></g></g></g></g><g class="node"><g fill="#ffffff" stroke="#000000" stroke-width="4"><circle cx="642.25" cy="113.5" r="52"/></g><g transform="translate(642.25 113.5)"><g transform="scale(0.44921930078124994) translate(0 0)"><g transform="translate(0 0)"><g font-family="sans-serif" font-size="50" font-weight="normal" fill="#000000" text-anchor="middle"><text xml:space="preserve" x="0" y="-15.5" stroke="none">Khánh</text><text xml:space="preserve" x="0" y="44.5" stroke="none" text-anchor="middle">Hoà</text></g></g></g></g></g><g class="node"><g fill="#ffffff" stroke="#000000" stroke-width="4"><circle cx="953.3972916272054" cy="49.931559252750624" r="52"/></g><g transform="translate(953.3972916272054 49.931559252750624)"><g transform="scale(0.43750056249999997) translate(0 0)"><g transform="translate(0 0)"><g font-family="sans-serif" font-size="50" font-weight="normal" fill="#000000" text-anchor="middle"><text xml:space="preserve" x="0" y="-15.5" stroke="none">$647</text><text xml:space="preserve" x="0" y="44.5" stroke="none" text-anchor="middle">million</text></g></g></g></g></g><g class="node"><g fill="#ffffff" stroke="#000000" stroke-width="4"><circle cx="623.9660734126488" cy="289.58092938464273" r="52"/></g><g transform="translate(623.9660734126488 289.58092938464273)"><g transform="scale(0.5898441601562501) translate(0 0)"><g transform="translate(0 0)"><g font-family="sans-serif" font-size="50" font-weight="normal" fill="#000000" text-anchor="middle"><text xml:space="preserve" x="0" y="-15.5" stroke="none">Phú</text><text xml:space="preserve" x="0" y="44.5" stroke="none" text-anchor="middle">Yên</text></g></g></g></g></g><g class="node"><g fill="#ffffff" stroke="#000000" stroke-width="4"><circle cx="436.03052688594255" cy="366.770905239044" r="52"/></g><g transform="translate(436.03052688594255 366.770905239044)"><g transform="scale(0.43750056249999997) translate(0 0)"><g transform="translate(0 0)"><g font-family="sans-serif" font-size="50" font-weight="normal" fill="#000000" text-anchor="middle"><text xml:space="preserve" x="0" y="-15.5" stroke="none">Quảng</text><text xml:space="preserve" x="0" y="44.5" stroke="none" text-anchor="middle">Nam</text></g></g></g></g></g><g class="node"><g fill="#ffffff" stroke="#000000" stroke-width="4"><circle cx="899.8577589911042" cy="412.63245419511844" r="52"/></g><g transform="translate(899.8577589911042 412.63245419511844)"><g transform="scale(0.41015683984374995) translate(0 0)"><g transform="translate(0 0)"><g font-family="sans-serif" font-size="50" font-weight="normal" fill="#000000" text-anchor="middle"><text xml:space="preserve" x="0" y="-15.5" stroke="none">$154</text><text xml:space="preserve" x="0" y="44.5" stroke="none" text-anchor="middle">million </text></g></g></g></g></g><g class="node"><g fill="#ffffff" stroke="#000000" stroke-width="4"><circle cx="436.03052688594255" cy="628.130058149112" r="52"/></g><g transform="translate(436.03052688594255 628.130058149112)"><g transform="scale(0.43750056249999997) translate(0 0)"><g transform="translate(0 0)"><g font-family="sans-serif" font-size="50" font-weight="normal" fill="#000000" text-anchor="middle"><text xml:space="preserve" x="0" y="-15.5" stroke="none">$70.4</text><text xml:space="preserve" x="0" y="44.5" stroke="none" text-anchor="middle">million</text></g></g></g></g></g><g class="node"><g fill="#ffffff" stroke="#000000" stroke-width="4"><circle cx="-212.3017124424123" cy="181.07629100714945" r="52"/></g><g transform="translate(-212.3017124424123 181.07629100714945)"><g transform="scale(0.42578182421875) translate(0 0)"><g transform="translate(0 0)"><g font-family="sans-serif" font-size="50" font-weight="normal" fill="#000000" text-anchor="middle"><text xml:space="preserve" x="0" y="14.5" stroke="none">flooding</text></g></g></g></g></g><g class="node"><g fill="#ffffff" stroke="#000000" stroke-width="4"><circle cx="-34.49445009564175" cy="244.38760157705704" r="52"/></g><g transform="translate(-34.49445009564175 244.38760157705704)"><g transform="scale(0.421875578125) translate(0 0)"><g transform="translate(0 0)"><g font-family="sans-serif" font-size="50" font-weight="normal" fill="#000000" text-anchor="middle"><text xml:space="preserve" x="0" y="14.5" stroke="none">damage</text></g></g></g></g></g></g></svg>