<svg xmlns="http://www.w3.org/2000/svg" width="1020" height="917" viewBox="0 0 1020 917"><defs><style type="text/css"/></defs><g transform="translate(371.143373016733 353.50541786577935) scale(1)"><g class="relationship"><g transform="translate(-80.50000000000004 80.50000000000014) rotate(-45.00000000000001)" stroke-width="1" stroke="#000000"><path d="M 89 0 L 240.5556633785214 0"/><polygon points="-9.45,0 -10.5,3.5 0,0 -10.5,-3.5" fill="#000000" transform="translate(250.00566337852138 0) rotate(0)" stroke="none"/></g><g transform="translate(36.01552217669176 -36.01552217669169) rotate(-45.00000000000001) translate(0 -11)"><g transform="translate(0 0)"><g transform="translate(-46.15833282470703 0)" fill="#ffffff" stroke="#000000" stroke-width="0"><rect x="0" y="0" width="92.31666564941406" height="22" rx="5" ry="5" stroke="none"/><text xml:space="preserve" x="5" y="14.5" stroke="none" text-anchor="left" font-family="sans-serif" font-size="12" font-weight="normal" fill="#000000">HAS_SUBJECT</text></g></g></g></g><g class="relationship"><g transform="translate(299.50541786577935 -299.50541786577935) rotate(135)" stroke-width="1" stroke="#000000"><path d="M 59 0 L 159.95315234251916 0"/><polygon points="-9.45,0 -10.5,3.5 0,0 -10.5,-3.5" fill="#000000" transform="translate(169.40315234251915 0) rotate(0)" stroke="none"/></g><g transform="translate(222.09378847399609 -222.09378847399609) rotate(315) translate(0 -11)"><g transform="translate(0 0)"><g transform="translate(-46.025001525878906 0)" fill="#ffffff" stroke="#000000" stroke-width="0"><rect x="0" y="0" width="92.05000305175781" height="22" rx="5" ry="5" stroke="none"/><text xml:space="preserve" x="5" y="14.5" stroke="none" text-anchor="left" font-family="sans-serif" font-size="12" font-weight="normal" fill="#000000">INSTANCE_OF</text></g></g></g></g><g class="relationship"><g transform="translate(-23.505417865779346 -299.50541786577935) rotate(45.00000000000001)" stroke-width="1" stroke="#000000"><path d="M 59 0 L 159.95315234251916 0"/><polygon points="-9.45,0 -10.5,3.5 0,0 -10.5,-3.5" fill="#000000" transform="translate(169.40315234251915 0) rotate(0)" stroke="none"/></g><g transform="translate(53.9062115260039 -222.09378847399609) rotate(45.00000000000001) translate(0 -11)"><g transform="translate(0 0)"><g transform="translate(-46.025001525878906 0)" fill="#ffffff" stroke="#000000" stroke-width="0"><rect x="0" y="0" width="92.05000305175781" height="22" rx="5" ry="5" stroke="none"/><text xml:space="preserve" x="5" y="14.5" stroke="none" text-anchor="left" font-family="sans-serif" font-size="12" font-weight="normal" fill="#000000">INSTANCE_OF</text></g></g></g></g><g class="relationship"><g transform="translate(138 -137.99999999999997) rotate(0)" stroke-width="1" stroke="#000000"><path d="M 59 0 L 159.95315234251916 0"/><polygon points="-9.45,0 -10.5,3.5 0,0 -10.5,-3.5" fill="#000000" transform="translate(169.40315234251915 0) rotate(0)" stroke="none"/></g><g transform="translate(247.47657617125958 -137.99999999999997) rotate(0) translate(0 -11)"><g transform="translate(0 0)"><g transform="translate(-35.49166679382324 0)" fill="#ffffff" stroke="#000000" stroke-width="0"><rect x="0" y="0" width="70.98333358764648" height="22" rx="5" ry="5" stroke="none"/><text xml:space="preserve" x="5" y="14.5" stroke="none" text-anchor="left" font-family="sans-serif" font-size="12" font-weight="normal" fill="#000000">PROVIDES</text></g></g></g></g><g class="relationship"><g transform="translate(594.8063046850383 -138) rotate(180)" stroke-width="1" stroke="#000000"><path d="M 59 0 L 159.95315234251916 0"/><polygon points="-9.45,0 -10.5,3.5 0,0 -10.5,-3.5" fill="#000000" transform="translate(169.40315234251915 0) rotate(0)" stroke="none"/></g><g transform="translate(485.3297285137787 -138) rotate(360) translate(0 -11)"><g transform="translate(0 0)"><g transform="translate(-46.025001525878906 0)" fill="#ffffff" stroke="#000000" stroke-width="0"><rect x="0" y="0" width="92.05000305175781" height="22" rx="5" ry="5" stroke="none"/><text xml:space="preserve" x="5" y="14.5" stroke="none" text-anchor="left" font-family="sans-serif" font-size="12" font-weight="normal" fill="#000000">INSTANCE_OF</text></g></g></g></g><g class="relationship"><g transform="translate(-80.50000000000004 80.50000000000014) rotate(29.999999999999996)" stroke-width="1" stroke="#000000"><path d="M 89 0 L 240.5556633785214 0"/><polygon points="-9.45,0 -10.5,3.5 0,0 -10.5,-3.5" fill="#000000" transform="translate(250.00566337852138 0) rotate(0)" stroke="none"/></g><g transform="translate(62.201788223416216 162.88891584463047) rotate(29.999999999999996) translate(0 -11)"><g transform="translate(0 0)"><g transform="translate(-37.141666412353516 0)" fill="#ffffff" stroke="#000000" stroke-width="0"><rect x="0" y="0" width="74.28333282470703" height="22" rx="5" ry="5" stroke="none"/><text xml:space="preserve" x="5" y="14.5" stroke="none" text-anchor="left" font-family="sans-serif" font-size="12" font-weight="normal" fill="#000000">HAS_GOAL</text></g></g></g></g><g class="relationship"><g transform="translate(187.10675439906228 235.00283168926083) rotate(13.141840421362813)" stroke-width="1" stroke="#000000"><path d="M 59 0 L 140.14998827687168 0"/><polygon points="-9.45,0 -10.5,3.5 0,0 -10.5,-3.5" fill="#000000" transform="translate(149.59998827687167 0) rotate(0)" stroke="none"/></g><g transform="translate(284.0738988357334 257.6424508880744) rotate(13.141840421362813) translate(0 -11)"><g transform="translate(0 0)"><g transform="translate(-24.899999618530273 0)" fill="#ffffff" stroke="#000000" stroke-width="0"><rect x="0" y="0" width="49.79999923706055" height="22" rx="5" ry="5" stroke="none"/><text xml:space="preserve" x="5" y="14.5" stroke="none" text-anchor="left" font-family="sans-serif" font-size="12" font-weight="normal" fill="#000000">LEARN</text></g></g></g></g><g class="relationship"><g transform="translate(187.10675439906228 235.00283168926083) rotate(64.38061347378763)" stroke-width="1" stroke="#000000"><path d="M 59 0 L 140.1499882768718 0"/><polygon points="-9.45,0 -10.5,3.5 0,0 -10.5,-3.5" fill="#000000" transform="translate(149.59998827687178 0) rotate(0)" stroke="none"/></g><g transform="translate(230.16207244162507 324.78823721779486) rotate(64.38061347378763) translate(0 -11)"><g transform="translate(0 0)"><g transform="translate(-24.899999618530273 0)" fill="#ffffff" stroke="#000000" stroke-width="0"><rect x="0" y="0" width="49.79999923706055" height="22" rx="5" ry="5" stroke="none"/><text xml:space="preserve" x="5" y="14.5" stroke="none" text-anchor="left" font-family="sans-serif" font-size="12" font-weight="normal" fill="#000000">LEARN</text></g></g></g></g><g class="relationship"><g transform="translate(187.10675439906228 235.00283168926083) rotate(115.6193865262124)" stroke-width="1" stroke="#000000"><path d="M 59 0 L 140.1499882768718 0"/><polygon points="-9.45,0 -10.5,3.5 0,0 -10.5,-3.5" fill="#000000" transform="translate(149.5999882768718 0) rotate(0)" stroke="none"/></g><g transform="translate(144.05143635649947 324.78823721779486) rotate(295.6193865262124) translate(0 -11)"><g transform="translate(0 0)"><g transform="translate(-24.899999618530273 0)" fill="#ffffff" stroke="#000000" stroke-width="0"><rect x="0" y="0" width="49.79999923706055" height="22" rx="5" ry="5" stroke="none"/><text xml:space="preserve" x="5" y="14.5" stroke="none" text-anchor="left" font-family="sans-serif" font-size="12" font-weight="normal" fill="#000000">LEARN</text></g></g></g></g><g class="relationship"><g transform="translate(187.10675439906228 235.00283168926083) rotate(162.50117292831817)" stroke-width="1" stroke="#000000"><path d="M 59 0 L 140.14998827687174 0"/><polygon points="-9.45,0 -10.5,3.5 0,0 -10.5,-3.5" fill="#000000" transform="translate(149.59998827687173 0) rotate(0)" stroke="none"/></g><g transform="translate(92.1397816660621 264.9436658058839) rotate(342.5011729283181) translate(0 -11)"><g transform="translate(0 0)"><g transform="translate(-24.899999618530273 0)" fill="#ffffff" stroke="#000000" stroke-width="0"><rect x="0" y="0" width="49.79999923706055" height="22" rx="5" ry="5" stroke="none"/><text xml:space="preserve" x="5" y="14.5" stroke="none" text-anchor="left" font-family="sans-serif" font-size="12" font-weight="normal" fill="#000000">LEARN</text></g></g></g></g><g class="relationship"><g transform="translate(138 -137.99999999999997) rotate(-180)" stroke-width="1" stroke="#000000"><path d="M 59 0 L 128.42816421322192 0"/><polygon points="-9.45,0 -10.5,3.5 0,0 -10.5,-3.5" fill="#000000" transform="translate(137.8781642132219 0) rotate(0)" stroke="none"/></g><g transform="translate(44.28591789338904 -137.99999999999997) rotate(0) translate(0 -11)"><g transform="translate(0 0)"><g transform="translate(-30.866666793823242 0)" fill="#ffffff" stroke="#000000" stroke-width="0"><rect x="0" y="0" width="61.733333587646484" height="22" rx="5" ry="5" stroke="none"/><text xml:space="preserve" x="5" y="14.5" stroke="none" text-anchor="left" font-family="sans-serif" font-size="12" font-weight="normal" fill="#000000">USED_IN</text></g></g></g></g><g class="relationship"><g transform="translate(138 -137.99999999999997) rotate(58.91098384333732)" stroke-width="1" stroke="#000000"><path d="M 59 0 L 186.69788876677802 0"/><polygon points="-9.45,0 -10.5,3.5 0,0 -10.5,-3.5" fill="#000000" transform="translate(196.147888766778 0) rotate(0)" stroke="none"/></g><g transform="translate(201.43540736719717 -32.796329777565475) rotate(58.91098384333732) translate(0 -11)"><g transform="translate(0 0)"><g transform="translate(-52.349998474121094 0)" fill="#ffffff" stroke="#000000" stroke-width="0"><rect x="0" y="0" width="104.69999694824219" height="22" rx="5" ry="5" stroke="none"/><text xml:space="preserve" x="5" y="14.5" stroke="none" text-anchor="left" font-family="sans-serif" font-size="12" font-weight="normal" fill="#000000">HAS_OBJECTIVE</text></g></g></g></g><g class="relationship"><g transform="translate(269.75050338478434 80.50000000000014) rotate(-17.567041036796297)" stroke-width="1" stroke="#000000"><path d="M 59 0 L 194.72685480935274 0"/><polygon points="-9.45,0 -10.5,3.5 0,0 -10.5,-3.5" fill="#000000" transform="translate(204.17685480935273 0) rotate(0)" stroke="none"/></g><g transform="translate(390.6975845784293 42.209886868808624) rotate(-17.567041036796297) translate(0 -11)"><g transform="translate(0 0)"><g transform="translate(-46.54166793823242 0)" fill="#ffffff" stroke="#000000" stroke-width="0"><rect x="0" y="0" width="93.08333587646484" height="22" rx="5" ry="5" stroke="none"/><text xml:space="preserve" x="5" y="14.5" stroke="none" text-anchor="left" font-family="sans-serif" font-size="12" font-weight="normal" fill="#000000">HAS_PREMISE</text></g></g></g></g><g class="relationship"><g transform="translate(269.75050338478434 80.50000000000014) rotate(10.465388172032105)" stroke-width="1" stroke="#000000"><path d="M 59 0 L 186.69788876677808 0"/><polygon points="-9.45,0 -10.5,3.5 0,0 -10.5,-3.5" fill="#000000" transform="translate(196.1478887667781 0) rotate(0)" stroke="none"/></g><g transform="translate(390.5558328358102 102.81446867711924) rotate(10.465388172032105) translate(0 -11)"><g transform="translate(0 0)"><g transform="translate(-46.54166793823242 0)" fill="#ffffff" stroke="#000000" stroke-width="0"><rect x="0" y="0" width="93.08333587646484" height="22" rx="5" ry="5" stroke="none"/><text xml:space="preserve" x="5" y="14.5" stroke="none" text-anchor="left" font-family="sans-serif" font-size="12" font-weight="normal" fill="#000000">HAS_PREMISE</text></g></g></g></g><g class="relationship"><g transform="translate(-80.50000000000004 80.50000000000014) rotate(149.99999999999997)" stroke-width="5" stroke="#000000"><path d="M 89 0 L 136.46630199628433 0"/><polygon points="-24.8621506177483,0 -27.62461179749811,9.20820393249937 0,0 -27.62461179749811,-9.20820393249937" fill="#000000" transform="translate(161.3284526140326 0) rotate(0)" stroke="none"/></g></g><g class="node"><g fill="#a3cbee" stroke="#000000" stroke-width="4"><circle cx="-80.50000000000004" cy="80.50000000000014" r="82"/></g><g transform="translate(-80.50000000000004 80.50000000000014)"><g transform="scale(0.3286448021414945) translate(0 -179)"><g transform="translate(0 0)"><g fill="#000000" font-family="sans-serif" font-size="50" font-weight="normal" text-anchor="middle"><text xml:space="preserve" x="0" y="44.5" stroke="none">Developing</text><text xml:space="preserve" x="0" y="104.5" stroke="none" text-anchor="middle">with</text><text xml:space="preserve" x="0" y="164.5" stroke="none" text-anchor="middle">Neo4j</text><text xml:space="preserve" x="0" y="224.5" stroke="none" text-anchor="middle">MCP</text><text xml:space="preserve" x="0" y="284.5" stroke="none" text-anchor="middle">Tools</text></g></g><g transform="translate(0 304)"><g transform="translate(-93.85832977294922 0)"><g fill="#ffffff" stroke="#000000" stroke-width="4"><rect x="0" y="0" width="187.71665954589844" height="54" rx="27" ry="27"/><text xml:space="preserve" x="27" y="39" stroke="none" font-family="sans-serif" font-size="40" font-weight="normal" fill="#000000">course</text></g></g></g></g><g transform="translate(-60.81118318204308 -99.21118318204309)"><g transform="translate(0 0)"><g transform="translate(-150.33333444595337 0)" fill="white"><rect x="0" y="0" width="150.33333444595337" height="38.4" rx="0" ry="0" stroke="none"/><g font-family="sans-serif" font-size="16" font-weight="normal" fill="#000000" text-anchor="end"><text xml:space="preserve" x="79.93333387374878" y="14.1" stroke="none">Duration:</text><text xml:space="preserve" x="85.01666736602783" y="14.1" stroke="none" text-anchor="start">2 hours</text><text xml:space="preserve" x="79.93333387374878" y="33.3" stroke="none" text-anchor="end">Provider:</text><text xml:space="preserve" x="85.01666736602783" y="33.3" stroke="none" text-anchor="start">Neo4j</text></g></g></g></g></g></g><g class="node"><g fill="#ffffff" stroke="#000000" stroke-width="4"><circle cx="138" cy="-137.99999999999997" r="52"/></g><g transform="translate(138 -137.99999999999997)"><g transform="scale(0.38903715123310406) translate(0 -59)"><g transform="translate(0 0)"><g fill="#000000" font-family="sans-serif" font-size="50" font-weight="normal" text-anchor="middle"><text xml:space="preserve" x="0" y="44.5" stroke="none">MCP</text></g></g><g transform="translate(0 64)"><g transform="translate(-99.49166870117188 0)"><g fill="#ffffff" stroke="#000000" stroke-width="4"><rect x="0" y="0" width="198.98333740234375" height="54" rx="27" ry="27"/><text xml:space="preserve" x="27" y="39" stroke="none" font-family="sans-serif" font-size="40" font-weight="normal" fill="#000000">subject</text></g></g></g></g></g></g><g class="node"><g fill="#ffffff" stroke="#000000" stroke-width="4"><circle cx="299.50541786577935" cy="-299.50541786577935" r="52"/></g><g transform="translate(299.50541786577935 -299.50541786577935)"><g transform="scale(0.38381006096001774) translate(0 -89)"><g transform="translate(0 0)"><g fill="#000000" font-family="sans-serif" font-size="50" font-weight="normal" text-anchor="middle"><text xml:space="preserve" x="0" y="44.5" stroke="none">MCP</text><text xml:space="preserve" x="0" y="104.5" stroke="none" text-anchor="middle">Client</text></g></g><g transform="translate(0 124)"><g transform="translate(-76.32500076293945 0)"><g fill="#ffffff" stroke="#000000" stroke-width="4"><rect x="0" y="0" width="152.6500015258789" height="54" rx="27" ry="27"/><text xml:space="preserve" x="27" y="39" stroke="none" font-family="sans-serif" font-size="40" font-weight="normal" fill="#000000">topic</text></g></g></g></g></g></g><g class="node"><g fill="#ffffff" stroke="#000000" stroke-width="4"><circle cx="-23.505417865779346" cy="-299.50541786577935" r="52"/></g><g transform="translate(-23.505417865779346 -299.50541786577935)"><g transform="scale(0.37190209175846395) translate(0 -89)"><g transform="translate(0 0)"><g fill="#000000" font-family="sans-serif" font-size="50" font-weight="normal" text-anchor="middle"><text xml:space="preserve" x="0" y="44.5" stroke="none">MCP</text><text xml:space="preserve" x="0" y="104.5" stroke="none" text-anchor="middle">Server</text></g></g><g transform="translate(0 124)"><g transform="translate(-76.32500076293945 0)"><g fill="#ffffff" stroke="#000000" stroke-width="4"><rect x="0" y="0" width="152.6500015258789" height="54" rx="27" ry="27"/><text xml:space="preserve" x="27" y="39" stroke="none" font-family="sans-serif" font-size="40" font-weight="normal" fill="#000000">topic</text></g></g></g></g></g></g><g class="node"><g fill="#ffffff" stroke="#000000" stroke-width="4"><circle cx="366.40315234251915" cy="-137.99999999999997" r="52"/></g><g transform="translate(366.40315234251915 -137.99999999999997)"><g transform="scale(0.38381006096001774) translate(0 -89)"><g transform="translate(0 0)"><g fill="#000000" font-family="sans-serif" font-size="50" font-weight="normal" text-anchor="middle"><text xml:space="preserve" x="0" y="44.5" stroke="none">MCP</text><text xml:space="preserve" x="0" y="104.5" stroke="none" text-anchor="middle">Tools</text></g></g><g transform="translate(0 124)"><g transform="translate(-76.32500076293945 0)"><g fill="#ffffff" stroke="#000000" stroke-width="4"><rect x="0" y="0" width="152.6500015258789" height="54" rx="27" ry="27"/><text xml:space="preserve" x="27" y="39" stroke="none" font-family="sans-serif" font-size="40" font-weight="normal" fill="#000000">topic</text></g></g></g></g></g></g><g class="node"><g fill="#ffffff" stroke="#000000" stroke-width="4"><circle cx="594.8063046850383" cy="-138" r="52"/></g><g transform="translate(594.8063046850383 -138)"><g transform="scale(0.31830545205472954) translate(0 -119)"><g transform="translate(0 0)"><g fill="#000000" font-family="sans-serif" font-size="50" font-weight="normal" text-anchor="middle"><text xml:space="preserve" x="0" y="44.5" stroke="none">Neo4j</text><text xml:space="preserve" x="0" y="104.5" stroke="none" text-anchor="middle">MCP</text><text xml:space="preserve" x="0" y="164.5" stroke="none" text-anchor="middle">Tool</text></g></g><g transform="translate(0 184)"><g transform="translate(-76.32500076293945 0)"><g fill="#ffffff" stroke="#000000" stroke-width="4"><rect x="0" y="0" width="152.6500015258789" height="54" rx="27" ry="27"/><text xml:space="preserve" x="27" y="39" stroke="none" font-family="sans-serif" font-size="40" font-weight="normal" fill="#000000">topic</text></g></g></g></g></g></g><g class="node"><g fill="#ffffff" stroke="#000000" stroke-width="4"><circle cx="187.10675439906228" cy="235.00283168926083" r="52"/></g><g transform="translate(187.10675439906228 235.00283168926083)"><g transform="scale(0.5898441601562501) translate(0 0)"><g transform="translate(0 0)"><g font-family="sans-serif" font-size="50" font-weight="normal" fill="#000000" text-anchor="middle"><text xml:space="preserve" x="0" y="14.5" stroke="none">Learn</text></g></g></g></g></g><g class="node"><g fill="#ffffff" stroke="#000000" stroke-width="4"><circle cx="390.24354961302845" cy="282.4306456733585" r="52"/></g><g transform="translate(390.24354961302845 282.4306456733585)"><g transform="scale(0.30859444140625003) translate(0 0)"><g transform="translate(0 0)"><g font-family="sans-serif" font-size="50" font-weight="normal" fill="#000000" text-anchor="middle"><text xml:space="preserve" x="0" y="-75.5" stroke="none">How</text><text xml:space="preserve" x="0" y="-15.5" stroke="none" text-anchor="middle">the MCP</text><text xml:space="preserve" x="0" y="44.5" stroke="none" text-anchor="middle">protocol</text><text xml:space="preserve" x="0" y="104.5" stroke="none" text-anchor="middle">works </text></g></g></g><g transform="translate(56 -13.5)"><g transform="translate(0 0)"><g transform="translate(0 0)"><g fill="#ffffff" stroke="#000000" stroke-width="1"><rect x="0" y="0" width="58.06666564941406" height="26" rx="13" ry="13"/><text xml:space="preserve" x="13" y="17.5" stroke="none" font-family="sans-serif" font-size="15" font-weight="normal" fill="#000000">goal</text></g></g></g></g></g></g><g class="node"><g fill="#ffffff" stroke="#000000" stroke-width="4"><circle cx="277.3034841769131" cy="423.09457804324734" r="52"/></g><g transform="translate(277.3034841769131 423.09457804324734)"><g transform="scale(0.20703204296875) translate(0 0)"><g transform="translate(0 0)"><g font-family="sans-serif" font-size="50" font-weight="normal" fill="#000000" text-anchor="middle"><text xml:space="preserve" x="0" y="-165.5" stroke="none">How</text><text xml:space="preserve" x="0" y="-105.5" stroke="none" text-anchor="middle">to integrate</text><text xml:space="preserve" x="0" y="-45.5" stroke="none" text-anchor="middle">Neo4j’s MCP</text><text xml:space="preserve" x="0" y="14.5" stroke="none" text-anchor="middle">tools into your</text><text xml:space="preserve" x="0" y="74.5" stroke="none" text-anchor="middle">IDEs and AI</text><text xml:space="preserve" x="0" y="134.5" stroke="none" text-anchor="middle">applications</text></g></g></g><g transform="translate(39.59797974644666 39.597979746446654)"><g transform="translate(0 0)"><g transform="translate(0 0)"><g fill="#ffffff" stroke="#000000" stroke-width="1"><rect x="0" y="0" width="58.06666564941406" height="26" rx="13" ry="13"/><text xml:space="preserve" x="13" y="17.5" stroke="none" font-family="sans-serif" font-size="15" font-weight="normal" fill="#000000">goal</text></g></g></g></g></g></g><g class="node"><g fill="#ffffff" stroke="#000000" stroke-width="4"><circle cx="96.91002462121132" cy="423.09457804324734" r="52"/></g><g transform="translate(96.91002462121132 423.09457804324734)"><g transform="scale(0.20703204296875) translate(0 0)"><g transform="translate(0 0)"><g font-family="sans-serif" font-size="50" font-weight="normal" fill="#000000" text-anchor="middle"><text xml:space="preserve" x="0" y="-105.5" stroke="none">How to build</text><text xml:space="preserve" x="0" y="-45.5" stroke="none" text-anchor="middle">GraphRAG</text><text xml:space="preserve" x="0" y="14.5" stroke="none" text-anchor="middle">applications</text><text xml:space="preserve" x="0" y="74.5" stroke="none" text-anchor="middle">with Neo4j</text><text xml:space="preserve" x="0" y="134.5" stroke="none" text-anchor="middle">MCP tools</text></g></g></g><g transform="translate(-39.597979746446654 39.59797974644666)"><g transform="translate(0 0)"><g transform="translate(-59.06666564941406 0)"><g fill="#ffffff" stroke="#000000" stroke-width="1"><rect x="0" y="0" width="58.06666564941406" height="26" rx="13" ry="13"/><text xml:space="preserve" x="13" y="17.5" stroke="none" font-family="sans-serif" font-size="15" font-weight="normal" fill="#000000">goal</text></g></g></g></g></g></g><g class="node"><g fill="#ffffff" stroke="#000000" stroke-width="4"><circle cx="-11.839874422752985" cy="297.72598522562157" r="52"/></g><g transform="translate(-11.839874422752985 297.72598522562157)"><g transform="scale(0.31640693359374994) translate(0 0)"><g transform="translate(0 0)"><g font-family="sans-serif" font-size="50" font-weight="normal" fill="#000000" text-anchor="middle"><text xml:space="preserve" x="0" y="-45.5" stroke="none">Agentic</text><text xml:space="preserve" x="0" y="14.5" stroke="none" text-anchor="middle">Systems</text><text xml:space="preserve" x="0" y="74.5" stroke="none" text-anchor="middle">and MCP</text></g></g></g><g transform="translate(-56 -13.499999999999993)"><g transform="translate(0 0)"><g transform="translate(-59.06666564941406 0)"><g fill="#ffffff" stroke="#000000" stroke-width="1"><rect x="0" y="0" width="58.06666564941406" height="26" rx="13" ry="13"/><text xml:space="preserve" x="13" y="17.5" stroke="none" font-family="sans-serif" font-size="15" font-weight="normal" fill="#000000">goal</text></g></g></g></g></g></g><g class="node"><g fill="#ffffff" stroke="#000000" stroke-width="4"><circle cx="-58.87816421322191" cy="-138" r="52"/></g><g transform="translate(-58.87816421322191 -138)"><g transform="scale(0.32468941994221173) translate(0 -89)"><g transform="translate(0 0)"><g fill="#000000" font-family="sans-serif" font-size="50" font-weight="normal" text-anchor="middle"><text xml:space="preserve" x="0" y="44.5" stroke="none">Agentic</text><text xml:space="preserve" x="0" y="104.5" stroke="none" text-anchor="middle">Systems</text></g></g><g transform="translate(0 124)"><g transform="translate(-76.32500076293945 0)"><g fill="#ffffff" stroke="#000000" stroke-width="4"><rect x="0" y="0" width="152.6500015258789" height="54" rx="27" ry="27"/><text xml:space="preserve" x="27" y="39" stroke="none" font-family="sans-serif" font-size="40" font-weight="normal" fill="#000000">topic</text></g></g></g></g></g></g><g class="node"><g fill="#ffffff" stroke="#000000" stroke-width="4"><circle cx="269.75050338478434" cy="80.50000000000014" r="52"/></g><g transform="translate(269.75050338478434 80.50000000000014)"><g transform="scale(0.4296880703125) translate(0 0)"><g transform="translate(0 0)"><g font-family="sans-serif" font-size="50" font-weight="normal" fill="#000000" text-anchor="middle"><text xml:space="preserve" x="0" y="14.5" stroke="none">Premise</text></g></g></g></g></g><g class="node"><g fill="#ffffff" stroke="#000000" stroke-width="4"><circle cx="520.6539597873943" cy="1.0675603259808646" r="52"/></g><g transform="translate(520.6539597873943 1.0675603259808646)"><g transform="scale(0.11230557519531248) translate(0 0)"><g transform="translate(0 0)"><g font-family="sans-serif" font-size="100" font-weight="normal" fill="#000000" text-anchor="middle"><text xml:space="preserve" x="0" y="-151" stroke="none">Connect AI</text><text xml:space="preserve" x="0" y="-31" stroke="none" text-anchor="middle">applications</text><text xml:space="preserve" x="0" y="89" stroke="none" text-anchor="middle">with tools and</text><text xml:space="preserve" x="0" y="209" stroke="none" text-anchor="middle">data sources</text></g></g></g><g transform="translate(56 -13.5)"><g transform="translate(0 0)"><g transform="translate(0 0)"><g fill="#ffffff" stroke="#000000" stroke-width="1"><rect x="0" y="0" width="56.64999961853027" height="26" rx="13" ry="13"/><text xml:space="preserve" x="13" y="17.5" stroke="none" font-family="sans-serif" font-size="15" font-weight="normal" fill="#000000">why</text></g></g></g></g></g></g><g class="node"><g fill="#ffffff" stroke="#000000" stroke-width="4"><circle cx="520.6539597873943" cy="126.84544969430928" r="52"/></g><g transform="translate(520.6539597873943 126.84544969430928)"><g transform="scale(0.138672736328125) translate(0 0)"><g transform="translate(0 0)"><g font-family="sans-serif" font-size="50" font-weight="normal" fill="#000000" text-anchor="middle"><text xml:space="preserve" x="0" y="-255.5" stroke="none">Enable AI</text><text xml:space="preserve" x="0" y="-195.5" stroke="none" text-anchor="middle">agents to access</text><text xml:space="preserve" x="0" y="-135.5" stroke="none" text-anchor="middle">and interact with</text><text xml:space="preserve" x="0" y="-75.5" stroke="none" text-anchor="middle">external resources as</text><text xml:space="preserve" x="0" y="-15.5" stroke="none" text-anchor="middle">part of their reasoning</text><text xml:space="preserve" x="0" y="44.5" stroke="none" text-anchor="middle">step, allowing them to</text><text xml:space="preserve" x="0" y="104.5" stroke="none" text-anchor="middle">perform more complex</text><text xml:space="preserve" x="0" y="164.5" stroke="none" text-anchor="middle">tasks and collaborate</text><text xml:space="preserve" x="0" y="224.5" stroke="none" text-anchor="middle">effectively</text></g></g></g><g transform="translate(56 -13.5)"><g transform="translate(0 0)"><g transform="translate(0 0)"><g fill="#ffffff" stroke="#000000" stroke-width="1"><rect x="0" y="0" width="56.64999961853027" height="26" rx="13" ry="13"/><text xml:space="preserve" x="13" y="17.5" stroke="none" font-family="sans-serif" font-size="15" font-weight="normal" fill="#000000">why</text></g></g></g></g></g></g><g class="node"><g fill="#ffffff" stroke="#000000" stroke-width="4"><circle cx="-271.31003714026815" cy="190.66422630701652" r="52"/></g><g transform="translate(-271.31003714026815 190.66422630701652)"><g transform="scale(0.3195732648362873) translate(0 -27)"><g transform="translate(0 0)"><g transform="translate(-138.1999969482422 0)"><g fill="#ffffff" stroke="#000000" stroke-width="4"><rect x="0" y="0" width="276.3999938964844" height="54" rx="27" ry="27"/><text xml:space="preserve" x="27" y="39" stroke="none" font-family="sans-serif" font-size="40" font-weight="normal" fill="#000000">description</text></g></g></g></g><g transform="translate(3.429011037612589e-15 56)"><g transform="translate(0 0)"><g fill="#000000" font-family="sans-serif" font-size="12" font-weight="normal" text-anchor="middle"><text xml:space="preserve" x="0" y="10.7" stroke="none">Model Context Protocol,</text><text xml:space="preserve" x="0" y="25.099999999999998" stroke="none" text-anchor="middle">referred to as MCP, is an open</text><text xml:space="preserve" x="0" y="39.5" stroke="none" text-anchor="middle">standard designed to connect AI</text><text xml:space="preserve" x="0" y="53.89999999999999" stroke="none" text-anchor="middle">applications with tools and data</text><text xml:space="preserve" x="0" y="68.3" stroke="none" text-anchor="middle">sources.  It enables AI agents to</text><text xml:space="preserve" x="0" y="82.69999999999999" stroke="none" text-anchor="middle">access and interact with external</text><text xml:space="preserve" x="0" y="97.1" stroke="none" text-anchor="middle">resources as part of their</text><text xml:space="preserve" x="0" y="111.49999999999999" stroke="none" text-anchor="middle">reasoning step, allowing them to</text><text xml:space="preserve" x="0" y="125.89999999999999" stroke="none" text-anchor="middle">perform more complex tasks and</text><text xml:space="preserve" x="0" y="140.29999999999998" stroke="none" text-anchor="middle">collaborate effectively.  In this</text><text xml:space="preserve" x="0" y="154.7" stroke="none" text-anchor="middle">course, you will learn:      How</text><text xml:space="preserve" x="0" y="169.1" stroke="none" text-anchor="middle">MCP Servers define sets of tools</text><text xml:space="preserve" x="0" y="183.49999999999997" stroke="none" text-anchor="middle">that AI agents can discover and</text><text xml:space="preserve" x="0" y="197.89999999999998" stroke="none" text-anchor="middle">use.      How MCP Clients</text><text xml:space="preserve" x="0" y="212.29999999999998" stroke="none" text-anchor="middle">establish connections to access</text><text xml:space="preserve" x="0" y="226.7" stroke="none" text-anchor="middle">and call tools to perform tasks.   </text><text xml:space="preserve" x="0" y="241.09999999999997" stroke="none" text-anchor="middle">How Neo4j’s suite of MCP tools</text><text xml:space="preserve" x="0" y="255.49999999999997" stroke="none" text-anchor="middle">can help aid your development</text><text xml:space="preserve" x="0" y="269.9" stroke="none" text-anchor="middle">on top of Neo4j.      How to</text><text xml:space="preserve" x="0" y="284.29999999999995" stroke="none" text-anchor="middle">build your own GraphRAG</text><text xml:space="preserve" x="0" y="298.7" stroke="none" text-anchor="middle">tool to retrieve information</text><text xml:space="preserve" x="0" y="313.09999999999997" stroke="none" text-anchor="middle">from a Neo4j database.</text></g></g></g></g></g></g></svg>