<svg xmlns="http://www.w3.org/2000/svg" width="1108" height="1028" viewBox="0 0 1108 1028"><defs><style type="text/css"/></defs><g transform="translate(666.4878860182395 505.10364589283387) scale(1)"><g class="relationship"><g transform="translate(0 0) rotate(1.302095847251524)" stroke-width="5" stroke="#0062b1"><path d="M 59 0 L 303.64844935357075 0"/><polygon points="-24.8621506177483,0 -27.62461179749811,9.20820393249937 0,0 -27.62461179749811,-9.20820393249937" fill="#0062b1" transform="translate(328.5105999713191 0) rotate(0)" stroke="none"/></g><g transform="translate(181.27740291137184 4.120394197828762) rotate(1.302095847251524) translate(0 -13)"><g transform="translate(0 0)"><g transform="translate(-39.849998474121094 0)" fill="#ffffff" stroke="#000000" stroke-width="0"><rect x="0" y="0" width="79.69999694824219" height="26" rx="5" ry="5" stroke="none"/><text xml:space="preserve" x="5" y="17.5" stroke="none" text-anchor="left" font-family="sans-serif" font-size="16" font-weight="normal" fill="#000000">same_as</text></g></g></g></g><g class="relationship"><g transform="translate(0 0) rotate(-45)" stroke-width="5" stroke="#000000"><path d="M 59 0 L 183.85185882852898 0"/><polygon points="-24.8621506177483,0 -27.62461179749811,9.20820393249937 0,0 -27.62461179749811,-9.20820393249937" fill="#000000" transform="translate(208.71400944627726 0) rotate(0)" stroke="none"/></g><g transform="translate(85.86109810070549 -85.86109810070548) rotate(-45) translate(0 -33)"><g transform="translate(0 0)"><g transform="translate(-49.39999961853027 0)" fill="#f44e3b" stroke="#ffffff" stroke-width="20"><rect x="10" y="10" width="78.79999923706055" height="46" rx="5" ry="5"/><text xml:space="preserve" x="25" y="37.5" stroke="none" text-anchor="left" font-family="sans-serif" font-size="16" font-weight="normal" fill="#000000">stores</text></g></g></g></g><g class="relationship"><g transform="translate(189.30239149810208 -189.30239149810205) rotate(45.00000000000001)" stroke-width="5" stroke="#000000"><path d="M 59 0 L 196.30507486790745 0"/><polygon points="-24.8621506177483,0 -27.62461179749811,9.20820393249937 0,0 -27.62461179749811,-9.20820393249937" fill="#000000" transform="translate(221.16722548565576 0) rotate(0)" stroke="none"/></g><g transform="translate(279.56636635332035 -99.03841664288375) rotate(45.00000000000001) translate(0 -13)"><g transform="translate(0 0)"><g transform="translate(-41.599998474121094 0)" fill="#ffffff" stroke="#000000" stroke-width="0"><rect x="0" y="0" width="83.19999694824219" height="26" rx="5" ry="5" stroke="none"/><text xml:space="preserve" x="5" y="17.5" stroke="none" text-anchor="left" font-family="sans-serif" font-size="16" font-weight="normal" fill="#000000">stored_in</text></g></g></g></g><g class="relationship"><g transform="translate(89.53377201444279 -451.10364589283387) rotate(69.13888981791722)" stroke-width="5" stroke="#000000"><path d="M 59 0 L 196.30507486790745 0"/><polygon points="-24.8621506177483,0 -27.62461179749811,9.20820393249937 0,0 -27.62461179749811,-9.20820393249937" fill="#000000" transform="translate(221.16722548565576 0) rotate(0)" stroke="none"/></g><g transform="translate(134.99132834100806 -331.81919222789014) rotate(69.13888981791722) translate(0 -13)"><g transform="translate(0 0)"><g transform="translate(-34.57500076293945 0)" fill="#ffffff" stroke="#000000" stroke-width="0"><rect x="0" y="0" width="69.1500015258789" height="26" rx="5" ry="5" stroke="none"/><text xml:space="preserve" x="5" y="17.5" stroke="none" text-anchor="left" font-family="sans-serif" font-size="16" font-weight="normal" fill="#000000">type_of</text></g></g></g></g><g class="relationship"><g transform="translate(387.41053650522974 -387.4105365052298) rotate(135)" stroke-width="5" stroke="#000000"><path d="M 59 0 L 196.30507486790745 0"/><polygon points="-24.8621506177483,0 -27.62461179749811,9.20820393249937 0,0 -27.62461179749811,-9.20820393249937" fill="#000000" transform="translate(221.16722548565576 0) rotate(0)" stroke="none"/></g><g transform="translate(297.14656165001145 -297.1465616500115) rotate(315) translate(0 -13)"><g transform="translate(0 0)"><g transform="translate(-34.57500076293945 0)" fill="#ffffff" stroke="#000000" stroke-width="0"><rect x="0" y="0" width="69.1500015258789" height="26" rx="5" ry="5" stroke="none"/><text xml:space="preserve" x="5" y="17.5" stroke="none" text-anchor="left" font-family="sans-serif" font-size="16" font-weight="normal" fill="#000000">type_of</text></g></g></g></g><g class="relationship"><g transform="translate(0 0) rotate(127.43746305546865)" stroke-width="5" stroke="#000000"><path d="M 59 0 L 183.85185882852898 0"/><polygon points="-24.8621506177483,0 -27.62461179749811,9.20820393249937 0,0 -27.62461179749811,-9.20820393249937" fill="#000000" transform="translate(208.71400944627726 0) rotate(0)" stroke="none"/></g><g transform="translate(-73.8142324536849 96.41429054549596) rotate(307.43746305546864) translate(0 -13)"><g transform="translate(0 0)"><g transform="translate(-36.25833320617676 0)" fill="#ffffff" stroke="#000000" stroke-width="0"><rect x="0" y="0" width="72.51666641235352" height="26" rx="5" ry="5" stroke="none"/><text xml:space="preserve" x="5" y="17.5" stroke="none" text-anchor="left" font-family="sans-serif" font-size="16" font-weight="normal" fill="#000000">used_to</text></g></g></g></g><g class="relationship"><g transform="translate(-162.74204545684185 212.5695591902205) rotate(19.552835666429264)" stroke-width="5" stroke="#009ce0"><path d="M 59 0 L 183.85185882852898 0"/><polygon points="-24.8621506177483,0 -27.62461179749811,9.20820393249937 0,0 -27.62461179749811,-9.20820393249937" fill="#009ce0" transform="translate(208.71400944627726 0) rotate(0)" stroke="none"/></g><g transform="translate(-48.31835254456922 253.2079011154993) rotate(19.552835666429264) translate(0 -13)"><g transform="translate(0 0)"><g transform="translate(-44.266666412353516 0)" fill="#ffffff" stroke="#000000" stroke-width="0"><rect x="0" y="0" width="88.53333282470703" height="26" rx="5" ry="5" stroke="none"/><text xml:space="preserve" x="5" y="17.5" stroke="none" text-anchor="left" font-family="sans-serif" font-size="16" font-weight="normal" fill="#000000">useful_for</text></g></g></g></g><g class="relationship"><g transform="translate(-162.74204545684185 212.5695591902205) rotate(72.9925851268412)" stroke-width="5" stroke="#009ce0"><path d="M 59 0 L 183.85185882852898 0"/><polygon points="-24.8621506177483,0 -27.62461179749811,9.20820393249937 0,0 -27.62461179749811,-9.20820393249937" fill="#009ce0" transform="translate(208.71400944627726 0) rotate(0)" stroke="none"/></g><g transform="translate(-127.22551220080003 328.6851576238092) rotate(72.9925851268412) translate(0 -13)"><g transform="translate(0 0)"><g transform="translate(-44.266666412353516 0)" fill="#ffffff" stroke="#000000" stroke-width="0"><rect x="0" y="0" width="88.53333282470703" height="26" rx="5" ry="5" stroke="none"/><text xml:space="preserve" x="5" y="17.5" stroke="none" text-anchor="left" font-family="sans-serif" font-size="16" font-weight="normal" fill="#000000">useful_for</text></g></g></g></g><g class="relationship"><g transform="translate(-162.74204545684185 212.5695591902205) rotate(140.7824647713985)" stroke-width="5" stroke="#009ce0"><path d="M 59 0 L 183.85185882852898 0"/><polygon points="-24.8621506177483,0 -27.62461179749811,9.20820393249937 0,0 -27.62461179749811,-9.20820393249937" fill="#009ce0" transform="translate(208.71400944627726 0) rotate(0)" stroke="none"/></g><g transform="translate(-256.8169083001965 289.3430996525566) rotate(320.7824647713985) translate(0 -13)"><g transform="translate(0 0)"><g transform="translate(-44.266666412353516 0)" fill="#ffffff" stroke="#000000" stroke-width="0"><rect x="0" y="0" width="88.53333282470703" height="26" rx="5" ry="5" stroke="none"/><text xml:space="preserve" x="5" y="17.5" stroke="none" text-anchor="left" font-family="sans-serif" font-size="16" font-weight="normal" fill="#000000">useful_for</text></g></g></g></g><g class="relationship"><g transform="translate(0 0) rotate(-169.9182402531747)" stroke-width="5" stroke="#000000"><path d="M 59 0 L 183.85185882852903 0"/><polygon points="-24.8621506177483,0 -27.62461179749811,9.20820393249937 0,0 -27.62461179749811,-9.20820393249937" fill="#000000" transform="translate(208.71400944627732 0) rotate(0)" stroke="none"/></g><g transform="translate(-119.55098660092057 -21.25600942944044) rotate(10.0817597468253) translate(0 -13)"><g transform="translate(0 0)"><g transform="translate(-52.32500076293945 0)" fill="#ffffff" stroke="#000000" stroke-width="0"><rect x="0" y="0" width="104.6500015258789" height="26" rx="5" ry="5" stroke="none"/><text xml:space="preserve" x="5" y="17.5" stroke="none" text-anchor="left" font-family="sans-serif" font-size="16" font-weight="normal" fill="#000000">implements</text></g></g></g></g><g class="relationship"><g transform="translate(-263.58022632051416 -46.86422032455023) rotate(-169.9182402531747)" stroke-width="5" stroke="#000000"><path d="M 59 0 L 270.517499965796 0"/><polygon points="-24.8621506177483,0 -27.62461179749811,9.20820393249937 0,0 -27.62461179749811,-9.20820393249937" fill="#000000" transform="translate(295.37965058354433 0) rotate(0)" stroke="none"/></g><g transform="translate(-425.7949296100403 -75.70578291429383) rotate(10.0817597468253) translate(0 -13)"><g transform="translate(0 0)"><g transform="translate(-85.28333282470703 0)" fill="#ffffff" stroke="#000000" stroke-width="0"><rect x="0" y="0" width="170.56666564941406" height="26" rx="5" ry="5" stroke="none"/><text xml:space="preserve" x="5" y="17.5" stroke="none" text-anchor="left" font-family="sans-serif" font-size="16" font-weight="normal" fill="#000000"> automatically_adds</text></g></g></g></g><g class="relationship"><g transform="translate(-612.4878860182395 -108.89954696970682) rotate(-44.99999999999999)" stroke-width="5" stroke="#000000"><path d="M 59 0 L 215.17747852675487 0"/><polygon points="-24.8621506177483,0 -27.62461179749811,9.20820393249937 0,0 -27.62461179749811,-9.20820393249937" fill="#000000" transform="translate(240.03962914450318 0) rotate(0)" stroke="none"/></g><g transform="translate(-515.5515088607908 -205.8359241271555) rotate(-44.99999999999999) translate(0 -13)"><g transform="translate(0 0)"><g transform="translate(-38.93333435058594 0)" fill="#ffffff" stroke="#000000" stroke-width="0"><rect x="0" y="0" width="77.86666870117188" height="26" rx="5" ry="5" stroke="none"/><text xml:space="preserve" x="5" y="17.5" stroke="none" text-anchor="left" font-family="sans-serif" font-size="16" font-weight="normal" fill="#000000">feeds_to</text></g></g></g></g><g class="node"><g fill="#ffffff" stroke="#000000" stroke-width="4"><circle cx="0" cy="0" r="52"/></g><g transform="translate(0 0)"><g transform="scale(0.30164628438745156) translate(0 -89)"><g transform="translate(0 0)"><g fill="#000000" font-family="sans-serif" font-size="50" font-weight="normal" text-anchor="middle"><text xml:space="preserve" x="0" y="44.5" stroke="none">vector</text><text xml:space="preserve" x="0" y="104.5" stroke="none" text-anchor="middle">database</text></g></g><g transform="translate(0 124)"><g transform="translate(-119.7249984741211 0)"><g fill="#ffffff" stroke="#000000" stroke-width="4"><rect x="0" y="0" width="239.4499969482422" height="54" rx="27" ry="27"/><text xml:space="preserve" x="27" y="39" stroke="none" font-family="sans-serif" font-size="40" font-weight="normal" fill="#000000">database</text></g></g></g></g></g></g><g class="node"><g fill="#ffffff" stroke="#000000" stroke-width="4"><circle cx="387.41053650522974" cy="8.805753509025692" r="52"/></g><g transform="translate(387.41053650522974 8.805753509025692)"><g transform="scale(0.24023513476562502) translate(0 0)"><g transform="translate(0 0)"><g font-family="sans-serif" font-size="50" font-weight="normal" fill="#000000" text-anchor="middle"><text xml:space="preserve" x="0" y="-105.5" stroke="none">vector</text><text xml:space="preserve" x="0" y="-45.5" stroke="none" text-anchor="middle">database</text><text xml:space="preserve" x="0" y="14.5" stroke="none" text-anchor="middle">management</text><text xml:space="preserve" x="0" y="74.5" stroke="none" text-anchor="middle">system</text><text xml:space="preserve" x="0" y="134.5" stroke="none" text-anchor="middle">(VDBMS)</text></g></g></g></g></g><g class="node"><g fill="#ffffff" stroke="#000000" stroke-width="4"><circle cx="189.30239149810208" cy="-189.30239149810205" r="52"/></g><g transform="translate(189.30239149810208 -189.30239149810205)"><g transform="scale(0.20703204296875) translate(0 0)"><g transform="translate(0 0)"><g font-family="sans-serif" font-size="50" font-weight="normal" fill="#000000" text-anchor="middle"><text xml:space="preserve" x="0" y="14.5" stroke="none">high-dimensional</text><text xml:space="preserve" x="0" y="74.5" stroke="none" text-anchor="middle">vectors</text></g></g></g></g></g><g class="node"><g fill="#ffffff" stroke="#000000" stroke-width="4"><circle cx="89.53377201444279" cy="-451.10364589283387" r="52"/></g><g transform="translate(89.53377201444279 -451.10364589283387)"><g transform="scale(0.28515696484374997) translate(0 0)"><g transform="translate(0 0)"><g font-family="sans-serif" font-size="50" font-weight="normal" fill="#000000" text-anchor="middle"><text xml:space="preserve" x="0" y="-45.5" stroke="none">word</text><text xml:space="preserve" x="0" y="14.5" stroke="none" text-anchor="middle">embeddings</text></g></g></g></g></g><g class="node"><g fill="#ffffff" stroke="#000000" stroke-width="4"><circle cx="387.41053650522974" cy="-387.4105365052298" r="52"/></g><g transform="translate(387.41053650522974 -387.4105365052298)"><g transform="scale(0.28515696484374997) translate(0 0)"><g transform="translate(0 0)"><g font-family="sans-serif" font-size="50" font-weight="normal" fill="#000000" text-anchor="middle"><text xml:space="preserve" x="0" y="-45.5" stroke="none">image</text><text xml:space="preserve" x="0" y="14.5" stroke="none" text-anchor="middle">embeddings</text></g></g></g></g></g><g class="node"><g fill="#ffffff" stroke="#000000" stroke-width="4"><circle cx="-162.74204545684185" cy="212.5695591902205" r="52"/></g><g transform="translate(-162.74204545684185 212.5695591902205)"><g transform="scale(0.287110087890625) translate(0 0)"><g transform="translate(0 0)"><g font-family="sans-serif" font-size="50" font-weight="normal" fill="#000000" text-anchor="middle"><text xml:space="preserve" x="0" y="-75.5" stroke="none">conduct</text><text xml:space="preserve" x="0" y="-15.5" stroke="none" text-anchor="middle">Semantic</text><text xml:space="preserve" x="0" y="44.5" stroke="none" text-anchor="middle">Similarity</text><text xml:space="preserve" x="0" y="104.5" stroke="none" text-anchor="middle">Search</text></g></g></g></g></g><g class="node"><g fill="#ffffff" stroke="#000000" stroke-width="4"><circle cx="89.53377201444279" cy="302.1670076639159" r="52"/></g><g transform="translate(89.53377201444279 302.1670076639159)"><g transform="scale(0.234375765625) translate(0 0)"><g transform="translate(0 0)"><g font-family="sans-serif" font-size="50" font-weight="normal" fill="#000000" text-anchor="middle"><text xml:space="preserve" x="0" y="-105.5" stroke="none">building</text><text xml:space="preserve" x="0" y="-45.5" stroke="none" text-anchor="middle">product</text><text xml:space="preserve" x="0" y="14.5" stroke="none" text-anchor="middle">recommenders</text></g></g></g></g></g><g class="node"><g fill="#ffffff" stroke="#000000" stroke-width="4"><circle cx="-84.43691272717612" cy="468.5756080288971" r="52"/></g><g transform="translate(-84.43691272717612 468.5756080288971)"><g transform="scale(0.1884773740234375) translate(0 0)"><g transform="translate(0 0)"><g font-family="sans-serif" font-size="50" font-weight="normal" fill="#000000" text-anchor="middle"><text xml:space="preserve" x="0" y="14.5" stroke="none">Image/Audio/Video</text><text xml:space="preserve" x="0" y="74.5" stroke="none" text-anchor="middle">Similarity Search</text></g></g></g></g></g><g class="node"><g fill="#ffffff" stroke="#000000" stroke-width="4"><circle cx="-370.1537477299188" cy="381.83614364795073" r="52"/></g><g transform="translate(-370.1537477299188 381.83614364795073)"><g transform="scale(0.337891287109375) translate(0 0)"><g transform="translate(0 0)"><g font-family="sans-serif" font-size="50" font-weight="normal" fill="#000000" text-anchor="middle"><text xml:space="preserve" x="0" y="-15.5" stroke="none">anomaly</text><text xml:space="preserve" x="0" y="44.5" stroke="none" text-anchor="middle">detection</text></g></g></g></g></g><g class="node"><g fill="#ffffff" stroke="#000000" stroke-width="4"><circle cx="-263.58022632051416" cy="-46.86422032455023" r="52"/></g><g transform="translate(-263.58022632051416 -46.86422032455023)"><g transform="scale(0.26953198046874993) translate(0 0)"><g transform="translate(0 0)"><g font-family="sans-serif" font-size="50" font-weight="normal" fill="#000000" text-anchor="middle"><text xml:space="preserve" x="0" y="-45.5" stroke="none">Retrieval -</text><text xml:space="preserve" x="0" y="14.5" stroke="none" text-anchor="middle">Augmented</text><text xml:space="preserve" x="0" y="74.5" stroke="none" text-anchor="middle">Generation</text><text xml:space="preserve" x="0" y="134.5" stroke="none" text-anchor="middle">(RAG)</text></g></g></g></g></g><g class="node"><g fill="#ffffff" stroke="#000000" stroke-width="4"><circle cx="-612.4878860182395" cy="-108.89954696970682" r="52"/></g><g transform="translate(-612.4878860182395 -108.89954696970682)"><g transform="scale(0.41796933203125) translate(0 0)"><g transform="translate(0 0)"><g font-family="sans-serif" font-size="50" font-weight="normal" fill="#000000" text-anchor="middle"><text xml:space="preserve" x="0" y="14.5" stroke="none">relevant</text><text xml:space="preserve" x="0" y="74.5" stroke="none" text-anchor="middle">info</text></g></g></g></g></g><g class="node"><g fill="#ffffff" stroke="#000000" stroke-width="4"><circle cx="-401.0349364066509" cy="-320.3524965812953" r="52"/></g><g transform="translate(-401.0349364066509 -320.3524965812953)"><g transform="scale(0.32421942578124996) translate(0 0)"><g transform="translate(0 0)"><g font-family="sans-serif" font-size="50" font-weight="normal" fill="#000000" text-anchor="middle"><text xml:space="preserve" x="0" y="-75.5" stroke="none">large</text><text xml:space="preserve" x="0" y="-15.5" stroke="none" text-anchor="middle">language</text><text xml:space="preserve" x="0" y="44.5" stroke="none" text-anchor="middle">model</text><text xml:space="preserve" x="0" y="104.5" stroke="none" text-anchor="middle">(LLM)</text></g></g></g></g></g></g></svg>